<?xml version="1.0" encoding="UTF-8" standalone="no"?>
<!-- Created with Inkscape (http://www.inkscape.org/) -->

<svg
   xmlns:dc="http://purl.org/dc/elements/1.1/"
   xmlns:cc="http://creativecommons.org/ns#"
   xmlns:rdf="http://www.w3.org/1999/02/22-rdf-syntax-ns#"
   xmlns:svg="http://www.w3.org/2000/svg"
   xmlns="http://www.w3.org/2000/svg"
   xmlns:sodipodi="http://sodipodi.sourceforge.net/DTD/sodipodi-0.dtd"
   xmlns:inkscape="http://www.inkscape.org/namespaces/inkscape"
   version="1.1"
   id="svg82"
   width="713.33331"
   height="278.66666"
   viewBox="0 0 713.33331 278.66666"
   sodipodi:docname="Facebook_connected_hover.svg"
   inkscape:version="0.92.1 r15371">
  <metadata
     id="metadata88">
    <rdf:RDF>
      <cc:Work
         rdf:about="">
        <dc:format>image/svg+xml</dc:format>
        <dc:type
           rdf:resource="http://purl.org/dc/dcmitype/StillImage" />
        <dc:title></dc:title>
      </cc:Work>
    </rdf:RDF>
  </metadata>
  <defs
     id="defs86" />
  <sodipodi:namedview
     pagecolor="#ffffff"
     bordercolor="#666666"
     borderopacity="1"
     objecttolerance="10"
     gridtolerance="10"
     guidetolerance="10"
     inkscape:pageopacity="0"
     inkscape:pageshadow="2"
     inkscape:window-width="1920"
     inkscape:window-height="1001"
     id="namedview84"
     showgrid="false"
     inkscape:zoom="1.9009346"
     inkscape:cx="578.35249"
     inkscape:cy="85.262235"
     inkscape:window-x="-9"
     inkscape:window-y="-9"
     inkscape:window-maximized="1"
     inkscape:current-layer="svg82" />
  <path
     style="fill:#ffffff;stroke-width:1.33333325"
     d="M 0.52605702,166.65016 V 54.633651 H 243.85939 487.19271 v 7.088455 c 0,34.335651 22.45556,61.390254 55.17673,66.477304 40.70013,6.32751 75.48993,-24.22947 75.48993,-66.305164 v -6.916313 l 6.33334,1.174297 c 32.95725,6.110785 62.88801,29.131387 78.69738,60.52841 8.47945,16.83998 10.30261,25.67973 10.30261,49.95301 0,19.35662 -0.37552,23.1959 -3.12534,31.95302 -11.5995,36.93979 -37.9475,63.52705 -75.54132,76.22726 l -9.33333,3.15305 -312.33333,0.34984 -312.33332298,0.34984 z M 112.52606,213.30032 v -33.33333 h -10 -10.000006 v -10 -10 h 9.859566 9.85956 l 0.47506,-15.66667 c 0.40224,-13.26533 0.92057,-16.38196 3.38167,-20.33333 5.0661,-8.13377 9.68821,-9.89574 27.42415,-10.45422 l 15.66666,-0.49332 v 10.14043 10.14044 h -6.10256 c -4.96716,0 -6.82769,0.72513 -10,3.89744 -3.5734,3.57339 -3.89744,4.68196 -3.89744,13.33333 v 9.4359 h 13.47788 c 13.30644,0 13.46851,0.0381 12.74121,3 -0.40516,1.65 -1.1475,6.15 -1.64965,10 l -0.91299,7 h -11.82822 -11.82823 v 33.33333 33.33333 h 20.73288 c 22.99209,0 27.0032,-1.04369 30.57788,-7.95636 3.03371,-5.86653 3.03371,-138.22075 0,-144.087284 -4.1634,-8.051138 -3.23447,-7.956355 -77.97742,-7.956355 -74.742959,0 -73.81403,-0.09479 -77.977435,7.956355 -3.028881,5.857214 -3.034217,138.219764 -0.0059,144.076054 3.86061,7.4656 6.012079,7.85568 43.649903,7.9142 l 34.333432,0.0534 z m 161.0869,-15.82453 c 4.34306,-3.09254 9.57976,-11.58744 9.57976,-15.54016 0,-1.6021 -1.06632,-2.03294 -4.25652,-1.71979 -3.4914,0.34271 -4.44646,1.15632 -5.31319,4.52625 -3.12963,12.16846 -21.04804,13.17243 -27.40772,1.53566 -1.80788,-3.30799 -2.3559,-7.41238 -2.3559,-17.6441 0,-11.58157 0.40154,-13.9791 3.05633,-18.24852 6.97485,-11.21697 23.55258,-9.70713 26.77521,2.43859 0.81881,3.08597 1.85301,3.89196 5.44268,4.24164 4.36251,0.42496 4.41821,0.36243 3.56339,-4 -1.92331,-9.81513 -9.58572,-16.02633 -20.76872,-16.83523 -6.86424,-0.49652 -8.82107,-0.0757 -14.13787,3.04012 -9.08028,5.3214 -12.56746,13.48404 -12.58466,29.45766 -0.012,10.56488 0.45064,13.00965 3.65364,19.33333 5.00513,9.88161 11.2965,13.51037 22.39005,12.91421 5.76901,-0.31001 9.27965,-1.30374 12.36352,-3.49966 z m 49.64382,0.82 c 7.23088,-4.87288 9.94932,-10.85039 9.85147,-21.66214 -0.10067,-11.12265 -2.51872,-16.50169 -9.57284,-21.29509 -10.05196,-6.83048 -22.77991,-3.36347 -29.37356,8.00119 -4.079,7.03046 -3.80153,22.40793 0.50929,28.22626 7.28023,9.82614 19.66454,12.74171 28.58564,6.72978 z m -17.2049,-5.75464 c -9.10168,-6.53756 -8.88542,-25.89747 0.35692,-31.95328 4.41054,-2.8899 11.90446,-1.65651 14.77865,2.43234 5.486,7.80447 5.16139,23.01056 -0.60257,28.22687 -3.65846,3.31085 -10.8355,3.94992 -14.533,1.29407 z m 163.54352,6.89568 c 1.98199,-1.02492 4.65704,-3.02754 5.94459,-4.45026 2.23468,-2.46929 2.22923,-2.68788 -0.12013,-4.81396 -2.30739,-2.08816 -2.61086,-2.06168 -4.86051,0.42418 -1.31972,1.45825 -4.27335,3.00292 -6.56363,3.43258 -7.89782,1.48164 -14.03586,-2.96496 -16.19066,-11.72905 l -0.90151,-3.66667 h 16.31632 16.31632 l -0.91203,-6.87517 c -1.18196,-8.91007 -3.87148,-13.95243 -9.16292,-17.1788 -9.62516,-5.86881 -21.61205,-1.75024 -27.35262,9.39807 -4.00311,7.77413 -3.7074,21.82473 0.58113,27.61328 6.63692,8.95833 18.22159,12.33646 26.90559,7.8458 z m -21.57327,-29.80318 c 2.37342,-7.42634 6.40806,-11 12.41894,-11 3.68695,0 7.96884,4.12443 9.34361,9 l 1.22188,4.33334 h -11.86508 c -10.69526,0 -11.79155,-0.23006 -11.11935,-2.33334 z m 67.11906,29.69331 c 4.69001,-2.42531 9.38485,-8.19816 9.38485,-11.53979 0,-3.89204 -6.35042,-3.3064 -8.20154,0.75636 -3.6306,7.96832 -16.00638,7.5957 -20.12972,-0.60608 -2.99103,-5.94948 -2.99103,-16.64976 0,-22.63713 4.39761,-8.80303 16.90288,-8.35068 20.35777,0.7364 0.86427,2.27317 2.26243,3.2636 4.60716,3.2636 6.85005,0 2.57223,-10.91753 -6.01852,-15.35997 -5.20217,-2.69015 -13.04704,-2.47912 -18.60272,0.50042 -14.31852,7.67911 -14.31852,36.70666 0,44.38576 5.55568,2.97955 13.40055,3.19058 18.60272,0.50043 z m 37.38485,-1.27141 c 0,-2.54858 -0.7867,-3.3353 -3.66666,-3.66667 l -3.66667,-0.42189 -0.37317,-17 -0.37316,-17 h 4.03982 c 3.42028,0 4.03984,-0.51122 4.03984,-3.33334 0,-2.81481 -0.62222,-3.33333 -4,-3.33333 -3.77777,0 -4,-0.29629 -4,-5.33333 0,-5.03704 -0.22222,-5.33334 -4,-5.33334 -3.77777,0 -4,0.2963 -4,5.33334 0,5.20634 -0.11106,5.33333 -4.66666,5.33333 -4.0889,0 -4.66667,0.41269 -4.66667,3.33333 0,2.92064 0.57777,3.33334 4.66667,3.33334 h 4.66666 v 17.58073 c 0,16.21548 0.22514,17.82037 2.89908,20.66667 2.05059,2.18273 4.39204,3.08593 8,3.08593 4.51496,0 5.10092,-0.37273 5.10092,-3.24477 z m 38.40269,1.38128 c 1.98199,-1.02492 4.65704,-3.02754 5.94459,-4.45026 2.23468,-2.46929 2.22923,-2.68788 -0.12013,-4.81396 -2.30739,-2.08816 -2.61086,-2.06168 -4.86051,0.42418 -1.31972,1.45825 -4.27335,3.00292 -6.56363,3.43258 -7.89782,1.48164 -14.03586,-2.96496 -16.19066,-11.72905 l -0.90151,-3.66667 h 16.31632 16.31632 l -0.91203,-6.87517 c -1.18196,-8.91007 -3.87148,-13.95243 -9.16292,-17.1788 -9.62516,-5.86881 -21.61205,-1.75024 -27.35262,9.39807 -4.00311,7.77413 -3.7074,21.82473 0.58113,27.61328 6.63692,8.95833 18.22159,12.33646 26.90559,7.8458 z m -21.57328,-29.80318 c 2.37343,-7.42634 6.40807,-11 12.41895,-11 3.68695,0 7.96884,4.12443 9.34361,9 l 1.22188,4.33334 h -11.86508 c -10.69526,0 -11.79156,-0.23006 -11.11936,-2.33334 z m 64.88867,29.14374 c 4.07944,-2.07982 4.94859,-2.18063 4.94859,-0.57394 0,1.25583 1.06058,1.79747 2.98205,1.52294 4.18872,-0.59848 4.84952,-5.78196 4.94111,-38.7594 l 0.0768,-27.66667 h -4.66667 -4.66667 v 11.36757 11.36758 l -3.93378,-2.03424 c -14.36626,-7.42908 -27.8235,5.06417 -26.43023,24.53693 0.74864,10.46331 3.62537,16.61095 9.42875,20.14947 5.38644,3.2843 10.99705,3.31338 17.32001,0.0897 z m -11.74183,-5.4041 c -1.47972,-0.60022 -3.57972,-2.75302 -4.66666,-4.784 -2.5056,-4.68176 -2.58551,-19.0802 -0.13134,-23.66586 3.44242,-6.43222 12.97916,-7.94188 18.06184,-2.8592 1.6015,1.60148 2.08844,4.96826 2.07283,14.33133 -0.0219,13.08964 -0.38608,14.33345 -4.89193,16.70516 -3.33366,1.75469 -6.58194,1.83947 -10.44474,0.27257 z M 352.52605,182.06376 c 0,-17.75304 0.0295,-17.92641 3.51315,-20.66667 4.07986,-3.20922 9.53947,-3.56974 13.23201,-0.87377 2.31022,1.68673 2.63478,3.90615 3.02228,20.66667 l 0.43412,18.777 h 3.89921 3.89923 v -18.13183 c 0,-20.51493 -1.51494,-25.84864 -8.11871,-28.58401 -4.78543,-1.98219 -13.90123,-0.94942 -17.08977,1.93617 -2.92244,2.64479 -4.12485,2.67772 -4.12485,0.113 0,-1.33333 -1.33334,-2 -4,-2 h -4 v 23.33333 23.33334 h 4.66666 4.66667 z m 49.33333,0 c 0,-17.75304 0.0295,-17.92641 3.51315,-20.66667 4.07986,-3.20922 9.53948,-3.56974 13.23201,-0.87377 2.31023,1.68673 2.63479,3.90615 3.02228,20.66667 l 0.43412,18.777 h 3.89921 3.89923 v -18.13183 c 0,-20.51493 -1.51493,-25.84864 -8.11871,-28.58401 -4.78542,-1.98219 -13.90122,-0.94942 -17.08977,1.93617 -2.92244,2.64479 -4.12485,2.67772 -4.12485,0.113 0,-1.33333 -1.33334,-2 -4,-2 h -4 v 23.33333 23.33334 h 4.66666 4.66667 z M 537.1753,116.31404 c -16.17071,-5.7822 -27.3043,-15.73366 -34.4299,-30.774244 -3.81584,-8.054396 -4.21936,-10.117536 -4.21936,-21.572811 0,-11.472268 0.40044,-13.511965 4.24664,-21.631105 5.90172,-12.458219 14.60787,-21.327606 26.89683,-27.401143 9.48252,-4.686515 10.77257,-4.9677506 22.78739,-4.9677506 11.54998,0 13.57047,0.3954016 21.70025,4.2466396 12.45821,5.901716 21.3276,14.607863 27.40114,26.896828 4.69218,9.493975 4.96775,10.761891 4.96775,22.856531 0,12.094639 -0.27557,13.362555 -4.96775,22.85653 -9.40798,19.035765 -26.66389,30.582885 -46.97173,31.432025 -7.8589,0.32861 -12.5144,-0.19051 -17.41126,-1.9415 z M 566.46687,68.026228 C 590.11968,44.346 590.35305,44.05581 587.91299,41.359562 c -1.3568,-1.49925 -3.14908,-2.72591 -3.98283,-2.72591 -0.83375,0 -10.67083,9.223934 -21.86017,20.497631 l -20.34425,20.497632 -7.46947,-7.830965 c -4.10821,-4.307031 -8.18516,-7.830965 -9.05987,-7.830965 -0.87472,0 -2.69722,1.223034 -4.05001,2.717854 -2.42515,2.679752 -2.30228,2.876019 8.76391,14 6.17294,6.20518 11.54304,11.282145 11.93353,11.282145 0.39049,0 11.47087,-10.77334 24.62304,-23.940756 z"
     id="path92"
     inkscape:connector-curvature="0" />
</svg>
