<?xml version="1.0" encoding="UTF-8" standalone="no"?>
<!-- Created with Inkscape (http://www.inkscape.org/) -->

<svg
   xmlns:dc="http://purl.org/dc/elements/1.1/"
   xmlns:cc="http://creativecommons.org/ns#"
   xmlns:rdf="http://www.w3.org/1999/02/22-rdf-syntax-ns#"
   xmlns:svg="http://www.w3.org/2000/svg"
   xmlns="http://www.w3.org/2000/svg"
   xmlns:sodipodi="http://sodipodi.sourceforge.net/DTD/sodipodi-0.dtd"
   xmlns:inkscape="http://www.inkscape.org/namespaces/inkscape"
   version="1.1"
   id="svg22"
   width="713.33331"
   height="278.66666"
   viewBox="0 0 713.33331 278.66666"
   sodipodi:docname="Facebook_connect_hover.svg"
   inkscape:version="0.92.1 r15371">
  <metadata
     id="metadata28">
    <rdf:RDF>
      <cc:Work
         rdf:about="">
        <dc:format>image/svg+xml</dc:format>
        <dc:type
           rdf:resource="http://purl.org/dc/dcmitype/StillImage" />
        <dc:title></dc:title>
      </cc:Work>
    </rdf:RDF>
  </metadata>
  <defs
     id="defs26" />
  <sodipodi:namedview
     pagecolor="#ffffff"
     bordercolor="#666666"
     borderopacity="1"
     objecttolerance="10"
     gridtolerance="10"
     guidetolerance="10"
     inkscape:pageopacity="0"
     inkscape:pageshadow="2"
     inkscape:window-width="1920"
     inkscape:window-height="1001"
     id="namedview24"
     showgrid="false"
     inkscape:zoom="1.9009346"
     inkscape:cx="337.52831"
     inkscape:cy="108.70142"
     inkscape:window-x="-9"
     inkscape:window-y="-9"
     inkscape:window-maximized="1"
     inkscape:current-layer="svg22" />
  <path
     style="fill:#ffffff;stroke-width:1.33333325"
     d="M 0,166.63365 V 54.600637 l 312.33332,0.34984 312.33333,0.349842 9.33333,3.153054 c 37.59382,12.700217 63.94182,39.287466 75.54132,76.227267 2.74982,8.75712 3.12534,12.5964 3.12534,31.95301 0,19.35662 -0.37552,23.1959 -3.12534,31.95302 -11.5995,36.9398 -37.9475,63.52705 -75.54132,76.22726 l -9.33333,3.15305 -312.33333,0.34984 L 0,278.66666 Z m 112,46.66667 V 179.96699 H 102 91.999997 v -10 -10 h 9.859563 9.85956 l 0.47506,-15.66667 c 0.40224,-13.26533 0.92057,-16.38196 3.38167,-20.33334 5.0661,-8.13376 9.68821,-9.89573 27.42415,-10.45421 l 15.66666,-0.49333 v 10.14044 10.14044 h -6.10256 c -4.96716,0 -6.82769,0.72513 -10,3.89744 -3.5734,3.57339 -3.89744,4.68196 -3.89744,13.33333 v 9.4359 h 13.47788 c 13.30644,0 13.46851,0.0382 12.74121,3 -0.40516,1.65 -1.1475,6.15 -1.64965,10 l -0.91299,7 h -11.82822 -11.82823 v 33.33333 33.33333 h 20.73288 c 22.99209,0 27.0032,-1.04369 30.57788,-7.95636 3.03371,-5.86653 3.03371,-138.22075 0,-144.087283 -4.1634,-8.051138 -3.23447,-7.956356 -77.97742,-7.956356 -74.742956,0 -73.814027,-0.09479 -77.977432,7.956356 -3.028881,5.857213 -3.034217,138.219763 -0.0059,144.076053 3.86061,7.4656 6.012079,7.85568 43.649903,7.9142 L 112,246.63365 Z m 195.78404,-15.84623 c 4.31759,-3.0744 9.54928,-11.57638 9.54928,-15.51846 0,-1.6021 -1.06632,-2.03294 -4.25652,-1.71979 -3.4914,0.34271 -4.44645,1.15632 -5.31318,4.52625 -3.12963,12.16846 -21.04804,13.17243 -27.40772,1.53566 -1.80788,-3.30799 -2.35591,-7.41238 -2.35591,-17.6441 0,-11.58157 0.40155,-13.9791 3.05633,-18.24852 6.97486,-11.21697 23.55259,-9.70713 26.77522,2.43859 0.80685,3.04094 1.86778,3.89426 5.25634,4.22774 4.86738,0.47902 5.35755,-1.17515 2.42674,-8.18955 -5.74786,-13.75657 -27.02068,-17.08617 -37.8272,-5.92068 -6.43518,6.64893 -8.3541,12.63883 -8.3541,26.07718 0,10.23299 0.48794,12.76706 3.66667,19.04283 2.86009,5.64667 4.98652,7.91803 9.66667,10.32555 7.77608,4.00009 18.76286,3.59212 25.11738,-0.9327 z m 49.61335,0.8417 c 7.23088,-4.87288 9.94932,-10.85039 9.85146,-21.66214 -0.10066,-11.12265 -2.51872,-16.50169 -9.57284,-21.29509 -10.05195,-6.83048 -22.7799,-3.36346 -29.37355,8.00119 -4.079,7.03046 -3.80154,22.40793 0.50929,28.22626 7.28023,9.82614 19.66453,12.74171 28.58564,6.72978 z m -17.20491,-5.75464 c -9.10168,-6.53756 -8.88541,-25.89747 0.35692,-31.95328 4.41055,-2.8899 11.90447,-1.65651 14.77866,2.43234 5.48599,7.80447 5.16138,23.01056 -0.60258,28.22687 -3.65845,3.31085 -10.83549,3.94992 -14.533,1.29407 z m 162.2102,6.89568 c 1.98198,-1.02492 4.65704,-3.02754 5.94458,-4.45026 2.23468,-2.46929 2.22923,-2.68788 -0.12013,-4.81396 -2.30739,-2.08816 -2.61085,-2.06168 -4.86051,0.42418 -1.31972,1.45825 -4.27334,3.00292 -6.56362,3.43258 -7.89783,1.48164 -14.03587,-2.96496 -16.19067,-11.72905 l -0.90151,-3.66667 h 16.31632 16.31632 l -0.91202,-6.87517 c -1.18196,-8.91007 -3.87148,-13.95243 -9.16292,-17.17881 -9.62516,-5.8688 -21.61206,-1.75023 -27.35263,9.39808 -4.00311,7.77413 -3.7074,21.82473 0.58113,27.61328 6.63692,8.95833 18.22159,12.33646 26.90559,7.8458 z M 480.8294,169.63365 c 2.37342,-7.42634 6.40806,-11 12.41894,-11 3.68695,0 7.96884,4.12443 9.34362,9 l 1.22188,4.33334 h -11.86508 c -10.69527,0 -11.79156,-0.23006 -11.11936,-2.33334 z m 67.11906,29.69331 c 4.69002,-2.42531 9.38486,-8.19816 9.38486,-11.53979 0,-3.89204 -6.35043,-3.3064 -8.20155,0.75636 -3.6306,7.96832 -16.00637,7.5957 -20.12972,-0.60608 -2.99103,-5.94948 -2.99103,-16.64976 0,-22.63713 4.39761,-8.80303 16.90288,-8.35068 20.35777,0.7364 0.86427,2.27317 2.26243,3.2636 4.60716,3.2636 6.85005,0 2.57223,-10.91753 -6.01852,-15.35997 -5.20217,-2.69015 -13.04704,-2.47912 -18.60272,0.50042 -14.31852,7.67911 -14.31852,36.70666 0,44.38576 5.55568,2.97955 13.40055,3.19058 18.60272,0.50043 z m 38.71819,-1.27141 c 0,-2.54858 -0.78671,-3.3353 -3.66667,-3.66667 l -3.66667,-0.42189 -0.37317,-17 -0.37316,-17 h 4.03983 c 3.42028,0 4.03984,-0.51122 4.03984,-3.33334 0,-2.81481 -0.62223,-3.33333 -4,-3.33333 -3.77778,0 -4,-0.2963 -4,-5.33333 0,-5.03704 -0.22223,-5.33334 -4,-5.33334 -3.77778,0 -4,0.2963 -4,5.33334 0,5.20635 -0.11107,5.33333 -4.66667,5.33333 -4.08889,0 -4.66667,0.4127 -4.66667,3.33333 0,2.92064 0.57778,3.33334 4.66667,3.33334 h 4.66667 v 17.58073 c 0,16.21548 0.22513,17.82037 2.89908,20.66667 2.05058,2.18273 4.39204,3.08593 8,3.08593 4.51496,0 5.10092,-0.37273 5.10092,-3.24477 z M 385.33332,182.06376 c 0,-17.75304 0.0295,-17.92641 3.51315,-20.66667 4.07986,-3.20922 9.53948,-3.56974 13.23201,-0.87377 2.31023,1.68673 2.63479,3.90615 3.02228,20.66667 l 0.43412,18.777 h 3.89921 3.89923 v -18.13183 c 0,-20.51493 -1.51493,-25.84864 -8.11871,-28.58401 -4.78542,-1.98219 -13.90122,-0.94942 -17.08977,1.93618 -2.92244,2.64477 -4.12485,2.67771 -4.12485,0.11299 0,-1.33333 -1.33334,-2 -4,-2 h -4 v 23.33333 23.33334 h 4.66666 4.66667 z m 49.33333,0 c 0,-17.75304 0.0295,-17.92641 3.51315,-20.66667 4.07987,-3.20922 9.53948,-3.56974 13.23201,-0.87377 2.31023,1.68673 2.63479,3.90615 3.02228,20.66667 l 0.43412,18.777 h 3.89921 3.89923 v -18.13183 c 0,-20.51493 -1.51493,-25.84864 -8.1187,-28.58401 -4.78543,-1.98219 -13.90123,-0.94942 -17.08978,1.93618 -2.92244,2.64477 -4.12485,2.67771 -4.12485,0.11299 0,-1.33333 -1.33333,-2 -4,-2 h -4 v 23.33333 23.33334 h 4.66667 4.66666 z"
     id="path32"
     inkscape:connector-curvature="0" />
</svg>
