<?xml version="1.0" encoding="UTF-8" standalone="no"?>
<!-- Created with Inkscape (http://www.inkscape.org/) -->

<svg
   xmlns:dc="http://purl.org/dc/elements/1.1/"
   xmlns:cc="http://creativecommons.org/ns#"
   xmlns:rdf="http://www.w3.org/1999/02/22-rdf-syntax-ns#"
   xmlns:svg="http://www.w3.org/2000/svg"
   xmlns="http://www.w3.org/2000/svg"
   xmlns:sodipodi="http://sodipodi.sourceforge.net/DTD/sodipodi-0.dtd"
   xmlns:inkscape="http://www.inkscape.org/namespaces/inkscape"
   version="1.1"
   id="svg97"
   width="713.33331"
   height="278.66666"
   viewBox="0 0 713.33331 278.66666"
   sodipodi:docname="Facebook_connect.svg"
   inkscape:version="0.92.1 r15371">
  <metadata
     id="metadata103">
    <rdf:RDF>
      <cc:Work
         rdf:about="">
        <dc:format>image/svg+xml</dc:format>
        <dc:type
           rdf:resource="http://purl.org/dc/dcmitype/StillImage" />
        <dc:title></dc:title>
      </cc:Work>
    </rdf:RDF>
  </metadata>
  <defs
     id="defs101" />
  <sodipodi:namedview
     pagecolor="#ffffff"
     bordercolor="#666666"
     borderopacity="1"
     objecttolerance="10"
     gridtolerance="10"
     guidetolerance="10"
     inkscape:pageopacity="0"
     inkscape:pageshadow="2"
     inkscape:window-width="1920"
     inkscape:window-height="1001"
     id="namedview99"
     showgrid="false"
     inkscape:zoom="1.9009346"
     inkscape:cx="185.91424"
     inkscape:cy="75.080679"
     inkscape:window-x="-9"
     inkscape:window-y="-9"
     inkscape:window-maximized="1"
     inkscape:current-layer="svg97" />
  <path
     style="fill:#ffffff;stroke-width:1.33333325"
     d="M 0,166.66666 V 54.666662 l 305.66666,0.01752 c 293.40035,0.01681 306.15168,0.117613 317.75301,2.512008 58.82207,12.140217 97.97665,68.24814 88.48929,126.80381 -3.91709,24.17617 -13.85628,43.28063 -31.90898,61.33333 -18.05271,18.05271 -37.15716,27.99189 -61.33333,31.90899 -5.88687,0.95381 -106.49405,1.40742 -313.66666,1.41428 L 0,278.66666 Z m 627.33331,100.99215 c 12.51187,-3.66156 31.15596,-13.4514 40.76056,-21.40299 15.44373,-12.78576 28.67375,-33.78525 34.18204,-54.25582 3.20729,-11.91936 3.20729,-38.74731 0,-50.66667 C 694.2692,111.57785 674.45346,87.264439 647.33331,73.920194 623.61963,62.252073 658.16047,63.377508 311.66666,62.983246 L 3.9999999,62.633163 V 166.66666 270.70015 L 311.66666,270.35007 c 288.87775,-0.3287 308.1552,-0.49305 315.66665,-2.69126 z M 39.683427,244.57947 c -7.751269,-4.20578 -7.683428,-3.51785 -7.683428,-77.91281 0,-74.742954 -0.09479,-73.814024 7.956356,-77.977429 5.866537,-3.033704 138.220745,-3.033704 144.087275,0 8.05115,4.163405 7.95636,3.234475 7.95636,77.977429 0,74.74296 0.0948,73.81403 -7.95636,77.97743 -3.00406,1.55346 -8.71985,2.02257 -24.64409,2.02257 H 138.66666 V 213.33333 180 h 11.81878 11.81875 l 0.79544,-5.66667 c 0.4375,-3.11667 1.19406,-7.61667 1.68124,-10 L 165.66666,160 h -13.5 -13.5 v -9.4359 c 0,-8.65137 0.32404,-9.75994 3.89744,-13.33333 3.17231,-3.17231 5.03284,-3.89744 10,-3.89744 h 6.10256 V 123.19289 113.05245 L 143,113.52659 c -25.67924,0.77717 -30.02957,5.12751 -30.80674,30.80674 L 111.71912,160 h -9.85956 -9.859563 v 10 10 H 102 112 v 33.33333 33.33333 l -34.333336,-0.0533 C 49.901718,246.57016 42.63506,246.1811 39.683427,244.57956 Z M 286.55142,200.13334 c -11.12171,-3.61009 -16.20202,-12.03316 -16.96759,-28.13201 -0.67081,-14.10624 1.20512,-21.31984 7.29824,-28.06419 5.45756,-6.04088 12.77123,-8.59183 21.06655,-7.34787 9.8264,1.47355 15.59905,6.55611 18.63897,16.41073 0.82001,2.65824 0.46156,3 -3.14652,3 -3.36329,0 -4.39864,-0.78184 -5.94901,-4.49241 -2.37555,-5.6855 -6.84466,-8.84093 -12.52163,-8.84093 -11.77325,0 -17.57855,8.58645 -17.57855,26 0,17.38448 5.50336,26 16.60811,26 6.59809,0 11.00453,-2.88738 13.49207,-8.84092 1.55037,-3.71057 2.58572,-4.49241 5.94901,-4.49241 3.59948,0 3.96795,0.34809 3.17556,3 -1.72369,5.76869 -5.41119,10.92521 -9.53513,13.33373 -4.80579,2.80672 -15.51712,4.09348 -20.53008,2.46628 z m 51.44857,-0.67002 c -14.65829,-6.47034 -17.15064,-32.88082 -4.07367,-43.16716 9.2976,-7.31349 25.18676,-3.71164 30.5872,6.93369 3.60027,7.09684 3.59675,19.78893 -0.008,26.87363 -4.64025,9.12121 -17.0884,13.51689 -26.50608,9.35984 z m 16.65503,-8.57988 c 7.16953,-7.16955 6.68822,-23.53568 -0.86694,-29.47858 -5.17594,-4.07141 -11.16648,-3.56212 -15.87197,1.34935 -3.60849,3.76645 -3.91612,4.85935 -3.91612,13.91245 0,9.05311 0.30763,10.146 3.91612,13.91246 5.24155,5.471 11.45919,5.58404 16.73891,0.30432 z m 131.48406,9.06532 c -9.49791,-2.84223 -15.21371,-14.01156 -13.70203,-26.77534 1.445,-12.20076 8.08339,-19.67406 18.41061,-20.72611 11.30911,-1.15207 18.58922,5.97415 20.31544,19.88602 l 0.78587,6.33333 H 495.80781 479.66665 L 480.49668,183 c 1.87126,9.7694 13.78994,14.8291 21.20046,9 3.98196,-3.13222 5.44599,-3.30568 7.45627,-0.88344 2.93476,3.53617 -8.34356,10.4506 -16.47796,10.10217 -1.47151,-0.0631 -4.41287,-0.63452 -6.53637,-1.26997 z m 17.04465,-31.61543 c -2.78599,-11.78159 -16.70248,-13.26418 -21.29663,-2.26884 -1.03792,2.48409 -1.88712,4.8358 -1.88712,5.22601 0,0.39023 5.41143,0.7095 12.0254,0.7095 h 12.0254 z m 28.14959,31.11781 c -14.35074,-6.37824 -17.39342,-31.35006 -5.13162,-42.11607 10.3506,-9.08794 27.4941,-5.15571 30.51066,6.99826 0.81552,3.28583 0.55368,3.66667 -2.52092,3.66667 -2.19566,0 -4.00634,-1.08015 -5.029,-3 -2.2806,-4.28138 -5.26764,-6.24219 -9.58344,-6.29093 -8.43946,-0.0953 -12.91235,6.12526 -12.91235,17.95759 0,12.05687 4.41687,18 13.3774,18 2.96896,0 5.32671,-1.1854 7.95593,-4 3.84895,-4.1203 9.33334,-5.4012 9.33334,-2.17981 0,3.07571 -5.54479,9.07091 -10.18104,11.00805 -5.46192,2.28214 -10.6179,2.26787 -15.81896,-0.0437 z m 42.68887,-1.30772 c -3.24221,-3.24221 -3.35554,-3.94302 -3.35554,-20.74949 V 160 h -4.66667 c -4.08889,0 -4.66667,-0.4127 -4.66667,-3.33334 0,-2.92063 0.57778,-3.33333 4.66667,-3.33333 4.55556,0 4.66667,-0.12699 4.66667,-5.33333 0,-5.03704 0.22222,-5.33334 4,-5.33334 3.77777,0 4,0.2963 4,5.33334 0,5.03703 0.22222,5.33333 4,5.33333 3.37777,0 4,0.51852 4,3.33333 0,2.82212 -0.61956,3.33334 -4.03984,3.33334 h -4.03983 l 0.37316,17 0.37317,17 3.74679,0.42962 c 2.98768,0.34259 3.66301,1.01792 3.33333,3.33334 -0.64024,4.49645 -8.04781,4.72389 -12.39124,0.38046 z M 377.33332,176.66666 v -23.33333 h 3.33333 c 2.46083,0 3.33334,0.70845 3.33334,2.70658 0,2.64783 0.0892,2.64059 4.1117,-0.33333 6.17548,-4.56573 15.94108,-4.25913 20.85799,0.65485 3.66225,3.66007 3.70125,3.88231 4.1526,23.66666 L 413.57789,200 h -4.12228 -4.12229 v -18 c 0,-16.22223 -0.26337,-18.26338 -2.66667,-20.66667 -3.95381,-3.95381 -10.09654,-3.44192 -14.76922,1.23077 -3.89451,3.89451 -3.89744,3.91003 -3.89744,20.66667 V 200 h -3.33334 -3.33333 z m 49.33333,0 v -23.33333 h 3.33334 c 2.46082,0 3.33333,0.70845 3.33333,2.70658 0,2.64783 0.0892,2.64059 4.11171,-0.33333 6.17548,-4.56573 15.94108,-4.25913 20.85798,0.65485 3.66225,3.66007 3.70125,3.88231 4.1526,23.66666 L 462.91122,200 h -4.12228 -4.12229 v -18 c 0,-16.22223 -0.26337,-18.26338 -2.66666,-20.66667 -3.95382,-3.95381 -10.09655,-3.44192 -14.76923,1.23077 -3.89451,3.89451 -3.89744,3.91003 -3.89744,20.66667 V 200 h -3.33333 -3.33334 z"
     id="path107"
     inkscape:connector-curvature="0" />
</svg>
