<?xml version="1.0" encoding="UTF-8" standalone="no"?>
<!-- Created with Inkscape (http://www.inkscape.org/) -->

<svg
   xmlns:dc="http://purl.org/dc/elements/1.1/"
   xmlns:cc="http://creativecommons.org/ns#"
   xmlns:rdf="http://www.w3.org/1999/02/22-rdf-syntax-ns#"
   xmlns:svg="http://www.w3.org/2000/svg"
   xmlns="http://www.w3.org/2000/svg"
   xmlns:sodipodi="http://sodipodi.sourceforge.net/DTD/sodipodi-0.dtd"
   xmlns:inkscape="http://www.inkscape.org/namespaces/inkscape"
   version="1.1"
   id="svg46"
   width="713.33331"
   height="278.66666"
   viewBox="0 0 713.33331 278.66666"
   sodipodi:docname="Facebook_connected.svg"
   inkscape:version="0.92.1 r15371">
  <metadata
     id="metadata52">
    <rdf:RDF>
      <cc:Work
         rdf:about="">
        <dc:format>image/svg+xml</dc:format>
        <dc:type
           rdf:resource="http://purl.org/dc/dcmitype/StillImage" />
        <dc:title></dc:title>
      </cc:Work>
    </rdf:RDF>
  </metadata>
  <defs
     id="defs50" />
  <sodipodi:namedview
     pagecolor="#ffffff"
     bordercolor="#666666"
     borderopacity="1"
     objecttolerance="10"
     gridtolerance="10"
     guidetolerance="10"
     inkscape:pageopacity="0"
     inkscape:pageshadow="2"
     inkscape:window-width="1920"
     inkscape:window-height="1001"
     id="namedview48"
     showgrid="false"
     inkscape:zoom="172.05296"
     inkscape:cx="2.4610404"
     inkscape:cy="0.95030395"
     inkscape:window-x="-9"
     inkscape:window-y="-9"
     inkscape:window-maximized="1"
     inkscape:current-layer="svg46" />
  <path
     style="fill:#ffffff;stroke-width:1.33333325"
     d="M 0.00581194,166.67247 V 54.672477 H 244.50207 488.99831 l 0.81813,-5.116322 c 1.45236,-9.082568 9.5798,-23.229668 17.91015,-31.175478 8.6836,-8.282751 17.85923,-13.4311368 29.20361,-16.3859738 32.92464,-8.575781 68.31721,12.7225218 76.90504,46.2794008 l 1.76485,6.896161 11.86952,2.931435 c 22.3536,5.520705 39.24728,15.289508 54.85423,31.719561 34.29982,36.108789 40.61438,88.733289 15.94118,132.851209 -7.60264,13.5942 -27.33169,33.32325 -40.92589,40.92589 -11.52416,6.44495 -26.22197,11.63344 -38.66666,13.64976 -5.88687,0.95382 -106.49405,1.40743 -313.66666,1.41428 L 0.00581194,278.6725 Z M 626.0058,267.64383 c 29.77349,-7.53475 53.76361,-26.81893 67.67434,-54.39925 8.79634,-17.4402 10.67651,-25.28052 10.8486,-45.23877 0.2185,-25.33867 -5.94034,-44.65059 -20.44541,-64.10949 C 670.01921,85.028959 643.52767,68.348765 621.92092,64.756245 l -5.41821,-0.900877 -1.42962,9.236069 c -4.48196,28.955903 -27.87382,51.476443 -56.58511,54.477373 -33.43206,3.49434 -64.70096,-21.08086 -69.53731,-54.651534 L 487.47476,62.672477 H 245.74029 4.005812 V 166.68375 270.69504 l 306.333328,-0.34462 c 288.09514,-0.3241 306.88901,-0.48524 315.66666,-2.70659 z M 39.689239,244.58528 c -7.751269,-4.20578 -7.683428,-3.51785 -7.683428,-77.91281 0,-74.742948 -0.09479,-73.814019 7.956356,-77.977424 5.866537,-3.033704 138.220753,-3.033704 144.087283,0 8.05115,4.163405 7.95636,3.234476 7.95636,77.977424 0,74.74296 0.0948,73.81403 -7.95636,77.97743 -3.00406,1.55346 -8.71985,2.02257 -24.64409,2.02257 h -20.73288 v -33.33333 -33.33333 h 11.81878 11.81875 l 0.79544,-5.66667 c 0.4375,-3.11667 1.19406,-7.61667 1.68124,-10 l 0.88579,-4.33333 h -13.5 -13.5 v -9.4359 c 0,-8.65137 0.32404,-9.75994 3.89744,-13.33333 3.17231,-3.17231 5.03284,-3.89744 10,-3.89744 h 6.10256 V 123.1987 113.05827 l -15.66666,0.47414 c -25.67925,0.77716 -30.02958,5.1275 -30.80675,30.80673 l -0.47414,15.66667 h -9.85956 -9.859563 v 10 10 h 10.000003 10 v 33.33333 33.33333 l -34.333334,-0.0533 c -27.764946,-0.0432 -35.031604,-0.43226 -37.983237,-2.0338 z M 251.89057,200.13915 c -11.1217,-3.61009 -16.20201,-12.03316 -16.96758,-28.13201 -0.67082,-14.10624 1.20512,-21.31984 7.29824,-28.0642 5.45756,-6.04087 12.77122,-8.59183 21.06654,-7.34787 9.8264,1.47356 15.59905,6.55612 18.63897,16.41074 0.82002,2.65824 0.46156,3 -3.14652,3 -3.36329,0 -4.39864,-0.78184 -5.94901,-4.49242 -2.37555,-5.68549 -6.84465,-8.84092 -12.52163,-8.84092 -11.77325,0 -17.57854,8.58646 -17.57854,26 0,17.38448 5.50336,26 16.6081,26 6.5981,0 11.00454,-2.88738 13.49207,-8.84092 1.55037,-3.71057 2.58572,-4.49241 5.94901,-4.49241 3.59948,0 3.96795,0.34809 3.17556,3 -1.72369,5.76869 -5.41118,10.92521 -9.53513,13.33373 -4.80579,2.80672 -15.51712,4.09348 -20.53008,2.46628 z m 51.44857,-0.67002 c -14.65829,-6.47034 -17.15064,-32.88082 -4.07366,-43.16716 9.2976,-7.3135 25.18676,-3.71164 30.5872,6.93369 3.60026,7.09684 3.59674,19.78893 -0.008,26.87363 -4.64026,9.12121 -17.0884,13.51689 -26.50608,9.35984 z m 16.65503,-8.57988 c 7.16953,-7.16955 6.68823,-23.53568 -0.86693,-29.47858 -5.17595,-4.07141 -11.16648,-3.56212 -15.87198,1.34935 -3.60849,3.76645 -3.91612,4.85935 -3.91612,13.91245 0,9.05311 0.30763,10.146 3.91612,13.91246 5.24155,5.471 11.45919,5.58404 16.73891,0.30432 z m 132.8174,9.06532 c -9.49791,-2.84223 -15.21371,-14.01156 -13.70203,-26.77534 1.445,-12.20077 8.08339,-19.67406 18.41061,-20.7261 11.30911,-1.15208 18.58921,5.97414 20.31544,19.88601 l 0.78587,6.33333 H 462.4803 446.33914 l 0.83003,4.33334 c 1.87126,9.7694 13.78994,14.8291 21.20046,9 3.98196,-3.13222 5.44599,-3.30568 7.45627,-0.88344 2.93476,3.53617 -8.34356,10.4506 -16.47796,10.10217 -1.47151,-0.0631 -4.41287,-0.63452 -6.53637,-1.26997 z m 17.04465,-31.61543 c -2.78599,-11.78159 -16.70248,-13.26419 -21.29663,-2.26884 -1.03792,2.48409 -1.88712,4.8358 -1.88712,5.22601 0,0.39023 5.41143,0.7095 12.0254,0.7095 h 12.0254 z m 28.14958,31.11781 c -14.35073,-6.37824 -17.39341,-31.35006 -5.13161,-42.11606 10.3506,-9.08795 27.49409,-5.15572 30.51065,6.99825 0.81552,3.28583 0.55368,3.66667 -2.52092,3.66667 -2.19565,0 -4.00633,-1.08015 -5.029,-3 -2.2806,-4.28138 -5.26764,-6.24219 -9.58344,-6.29094 -8.43945,-0.0953 -12.91234,6.12527 -12.91234,17.9576 0,12.05687 4.41686,18 13.3774,18 2.96896,0 5.3267,-1.1854 7.95593,-4 3.84895,-4.1203 9.33333,-5.4012 9.33333,-2.17981 0,3.07571 -5.54478,9.07091 -10.18104,11.00805 -5.46192,2.28214 -10.61789,2.26787 -15.81896,-0.0437 z m 41.35555,-1.30772 c -3.24221,-3.24221 -3.35555,-3.94302 -3.35555,-20.74949 v -17.39393 h -4.66666 c -4.0889,0 -4.66667,-0.4127 -4.66667,-3.33334 0,-2.92064 0.57777,-3.33333 4.66667,-3.33333 4.55556,0 4.66666,-0.12693 4.66666,-5.33333 0,-5.03704 0.22223,-5.33334 4,-5.33334 3.77778,0 4,0.2963 4,5.33334 0,5.03704 0.22223,5.33333 4,5.33333 3.37778,0 4,0.51852 4,3.33333 0,2.82212 -0.61956,3.33334 -4.03984,3.33334 h -4.03982 l 0.37316,17 0.37317,17 3.74679,0.42962 c 2.98768,0.34259 3.66301,1.01792 3.33333,3.33334 -0.64024,4.49645 -8.04781,4.72389 -12.39124,0.38046 z m 34.78354,1.80534 c -9.4979,-2.84223 -15.2137,-14.01156 -13.70202,-26.77534 1.445,-12.20077 8.08338,-19.67406 18.41061,-20.7261 11.30911,-1.15208 18.58921,5.97414 20.31544,19.88601 l 0.78587,6.33333 h -16.14116 -16.14116 l 0.83002,4.33334 c 1.87127,9.7694 13.78995,14.8291 21.20047,9 3.98196,-3.13222 5.44599,-3.30568 7.45627,-0.88344 2.93476,3.53617 -8.34356,10.4506 -16.47796,10.10217 -1.47151,-0.0631 -4.41287,-0.63452 -6.53638,-1.26997 z m 17.04466,-31.61543 c -2.78599,-11.78159 -16.70248,-13.26419 -21.29663,-2.26884 -1.03792,2.48409 -1.88712,4.8358 -1.88712,5.22601 0,0.39023 5.41143,0.7095 12.0254,0.7095 h 12.0254 z m 26.24109,30.6646 c -6.75593,-3.44247 -10.09843,-10.86119 -10.06129,-22.33127 0.0337,-10.40648 2.95892,-18.17269 8.11829,-21.55325 5.08125,-3.32936 12.56105,-3.60683 18.18483,-0.67456 l 5,2.60701 v -11.85626 c 0,-11.7578 0.0277,-11.85627 3.33333,-11.85627 h 3.33333 v 33.33333 33.33334 h -3.33333 c -1.95936,0 -3.33333,-0.76514 -3.33333,-1.85627 0,-1.46639 -1.03939,-1.32636 -4.94859,0.66667 -6.15089,3.1359 -10.41075,3.18493 -16.29324,0.18753 z m 17.7138,-7.60093 c 3.28777,-3.04702 3.52803,-4.04991 3.52803,-14.72728 0,-10.38708 -0.30579,-11.76338 -3.27274,-14.73032 -3.53454,-3.53456 -9.6194,-4.31626 -14.26113,-1.83208 -8.29119,4.4373 -8.47705,28.27152 -0.25773,33.0493 4.30088,2.50004 10.49134,1.73635 14.26357,-1.75962 z M 344.00581,176.67247 v -23.33333 h 3.33333 c 2.46083,0 3.33334,0.70845 3.33334,2.70659 0,2.64782 0.0892,2.64058 4.1117,-0.33334 6.17548,-4.56573 15.94108,-4.25913 20.85799,0.65484 3.66225,3.66008 3.70125,3.88231 4.1526,23.66667 l 0.45561,19.97191 h -4.12228 -4.12229 v -18 c 0,-16.22223 -0.26338,-18.26338 -2.66667,-20.66667 -3.95381,-3.95381 -10.09655,-3.44192 -14.76922,1.23077 -3.89451,3.89451 -3.89744,3.91003 -3.89744,20.66667 v 16.76923 h -3.33334 -3.33333 z m 49.33333,0 v -23.33333 h 3.33333 c 2.46083,0 3.33334,0.70845 3.33334,2.70659 0,2.64782 0.0892,2.64058 4.1117,-0.33334 6.17548,-4.56573 15.94108,-4.25913 20.85799,0.65484 3.66225,3.66008 3.70125,3.88231 4.1526,23.66667 l 0.45561,19.97191 h -4.12228 -4.12229 v -18 c 0,-16.22223 -0.26337,-18.26338 -2.66667,-20.66667 -3.95381,-3.95381 -10.09654,-3.44192 -14.76922,1.23077 -3.89451,3.89451 -3.89744,3.91003 -3.89744,20.66667 v 16.76923 h -3.33334 -3.33333 z M 572.0058,116.20138 c 22.46061,-8.70833 37.31481,-31.746262 35.66823,-55.319169 -1.68323,-24.097415 -17.0569,-43.433241 -40.09754,-50.431619 -22.46782,-6.8243958 -47.62014,2.02917 -61.26974,21.566839 -21.51996,30.803073 -6.98769,73.606569 28.9818,85.363269 10.4218,3.40639 26.19657,2.89972 36.71725,-1.17932 z M 530.11332,80.521515 c -10.42826,-11.001959 -10.52846,-11.173929 -8.08374,-13.875313 2.46924,-2.728478 2.49637,-2.714501 10.90398,5.61838 l 8.42859,8.353663 21.29525,-21.264058 c 20.29927,-20.269524 21.38793,-21.141308 23.27669,-18.639551 1.08979,1.44348 1.85175,3.055724 1.69324,3.582766 -0.26242,0.872549 -46.66315,47.935864 -46.86703,47.536274 -0.0483,-0.09467 -4.83944,-5.185146 -10.64698,-11.312161 z"
     id="path56"
     inkscape:connector-curvature="0" />
</svg>
