<?xml version="1.0" encoding="UTF-8" standalone="no"?>
<!-- Created with Inkscape (http://www.inkscape.org/) -->

<svg
   xmlns:dc="http://purl.org/dc/elements/1.1/"
   xmlns:cc="http://creativecommons.org/ns#"
   xmlns:rdf="http://www.w3.org/1999/02/22-rdf-syntax-ns#"
   xmlns:svg="http://www.w3.org/2000/svg"
   xmlns="http://www.w3.org/2000/svg"
   xmlns:sodipodi="http://sodipodi.sourceforge.net/DTD/sodipodi-0.dtd"
   xmlns:inkscape="http://www.inkscape.org/namespaces/inkscape"
   version="1.1"
   id="svg10"
   width="726.66669"
   height="278.66666"
   viewBox="0 0 726.66669 278.66666"
   sodipodi:docname="Google_connect_hover.svg"
   inkscape:version="0.92.1 r15371">
  <metadata
     id="metadata16">
    <rdf:RDF>
      <cc:Work
         rdf:about="">
        <dc:format>image/svg+xml</dc:format>
        <dc:type
           rdf:resource="http://purl.org/dc/dcmitype/StillImage" />
        <dc:title></dc:title>
      </cc:Work>
    </rdf:RDF>
  </metadata>
  <defs
     id="defs14" />
  <sodipodi:namedview
     pagecolor="#ffffff"
     bordercolor="#666666"
     borderopacity="1"
     objecttolerance="10"
     gridtolerance="10"
     guidetolerance="10"
     inkscape:pageopacity="0"
     inkscape:pageshadow="2"
     inkscape:window-width="1920"
     inkscape:window-height="1001"
     id="namedview12"
     showgrid="false"
     inkscape:zoom="1.9334862"
     inkscape:cx="363.33334"
     inkscape:cy="139.33333"
     inkscape:window-x="-9"
     inkscape:window-y="-9"
     inkscape:window-maximized="1"
     inkscape:current-layer="svg10" />
  <path
     style="fill:#ffffff;stroke-width:1.33333337"
     d="M 89.433581,277.21698 C 56.305121,270.7173 26.694251,247.84907 10.969276,216.61968 2.4898283,199.7797 0.6666637,190.93994 0.6666637,166.66666 c 0,-19.35661 0.3755236,-23.19589 3.1253517,-31.95301 C 15.391509,97.773849 41.739508,71.1866 79.333333,58.486383 L 88.666667,55.333329 407.66668,54.983822 726.66669,54.634314 V 166.65049 278.66666 L 411.00001,278.52057 C 237.38334,278.44022 92.678445,277.85361 89.433581,277.21698 Z m 47.899759,-33.31633 c 9.74017,-2.21992 24.53168,-10.25311 33.01553,-17.93055 29.10307,-26.33676 34.59575,-69.02402 13.10068,-101.81407 -10.52718,-16.05889 -24.80684,-26.909198 -42.78288,-32.508302 -11.567,-3.602843 -33.51283,-3.927575 -44.173651,-0.653638 -33.446211,10.27133 -55.724243,38.30873 -57.479509,72.33924 -0.785448,15.22803 1.797856,26.69336 9.235531,40.98951 9.733677,18.70936 28.016665,33.55485 47.91596,38.90698 8.392139,2.25716 32.485559,2.64976 41.168339,0.67083 z M 87.49865,207.15112 c -12.134884,-3.72644 -20.290218,-10.58454 -26.55282,-22.32916 -4.288438,-8.04236 -4.222857,-27.05351 0.12148,-35.21538 4.695638,-8.82187 11.761039,-15.83005 20.045706,-19.88336 10.221921,-5.00113 25.405124,-5.23496 35.845004,-0.55204 10.39938,4.66474 10.80107,5.68072 4.99305,12.62897 l -4.94557,5.91648 -4.83608,-2.8562 c -3.53271,-2.08643 -7.05104,-2.85678 -13.054564,-2.85832 -6.97372,-0.002 -9.094137,0.60642 -14,4.01572 -21.374581,14.85413 -11.155887,46.7549 14.929504,46.60701 4.93302,-0.028 8.90785,-0.93548 11.99547,-2.73876 4.9327,-2.88084 11.05625,-10.77927 9.85896,-12.71651 C 121.50123,176.5263 116.41137,176 110.58798,176 H 99.999997 v -8.03564 -8.03565 l 19.666673,0.36898 19.66667,0.36897 -0.26198,9.58695 c -0.34549,12.64303 -4.12658,21.38377 -12.51131,28.92237 -10.30649,9.26642 -25.05243,12.2771 -39.0614,7.97514 z m 75.16802,-30.4114 v -5.92695 l -6.33333,-0.40639 C 150.06106,170.00392 149.99602,169.9518 149.58618,165 l -0.41382,-5 h 6.74715 6.74716 v -6 c 0,-5.96826 0.0247,-6 4.66667,-6 4.64197,0 4.66667,0.0317 4.66667,6 v 6 h 6 6 v 5.33333 5.33333 h -6 -6 v 6 c 0,5.96826 -0.0247,6 -4.66667,6 -4.63345,0 -4.66667,-0.0421 -4.66667,-5.92694 z m 173.08691,20.76908 c 4.34307,-3.09254 9.57976,-11.58744 9.57976,-15.54016 0,-1.6021 -1.06632,-2.03294 -4.25652,-1.71979 -3.4914,0.34271 -4.44645,1.15632 -5.31318,4.52625 -3.12963,12.16846 -21.04804,13.17243 -27.40772,1.53566 -1.80788,-3.30799 -2.35591,-7.41238 -2.35591,-17.6441 0,-11.58157 0.40155,-13.9791 3.05633,-18.24852 6.97486,-11.21697 23.55259,-9.70713 26.77522,2.43859 0.80685,3.04094 1.86778,3.89426 5.25634,4.22774 4.86738,0.47902 5.35755,-1.17515 2.42674,-8.18955 -5.74786,-13.75657 -27.02068,-17.08617 -37.8272,-5.92068 -6.43518,6.64893 -8.3541,12.63883 -8.3541,26.07718 0,10.23299 0.48794,12.76706 3.66667,19.04283 5.00513,9.88161 11.29651,13.51037 22.39005,12.91421 5.76902,-0.31001 9.27966,-1.30374 12.36352,-3.49966 z m 49.64383,0.82 c 7.23088,-4.87288 9.94932,-10.85039 9.85147,-21.66214 -0.10067,-11.12265 -2.51872,-16.50169 -9.57284,-21.29509 -10.05196,-6.83048 -22.77991,-3.36346 -29.37356,8.00119 -4.079,7.03046 -3.80154,22.40793 0.50929,28.22626 7.28023,9.82614 19.66454,12.74171 28.58564,6.72978 z m -17.2049,-5.75464 c -9.10169,-6.53756 -8.88542,-25.89747 0.35692,-31.95328 4.41054,-2.8899 11.90446,-1.65651 14.77865,2.43234 5.486,7.80447 5.16139,23.01056 -0.60257,28.22687 -3.65846,3.31085 -10.8355,3.94992 -14.533,1.29407 z m 162.2102,6.89568 c 1.98199,-1.02492 4.65704,-3.02754 5.94459,-4.45026 2.23468,-2.46929 2.22922,-2.68788 -0.12014,-4.81396 -2.30738,-2.08816 -2.61085,-2.06168 -4.8605,0.42418 -1.31972,1.45825 -4.27335,3.00292 -6.56363,3.43258 -7.89783,1.48164 -14.03587,-2.96496 -16.19067,-11.72905 l -0.9015,-3.66667 h 16.31632 16.31632 l -0.91203,-6.87517 c -1.18196,-8.91007 -3.87148,-13.95243 -9.16292,-17.17881 -9.62516,-5.8688 -21.61205,-1.75023 -27.35263,9.39808 -4.0031,7.77413 -3.7074,21.82473 0.58114,27.61328 6.63692,8.95833 18.22158,12.33646 26.90558,7.8458 z m -21.57328,-29.80318 c 2.37343,-7.42634 6.40807,-11 12.41895,-11 3.68694,0 7.96884,4.12443 9.34361,9 L 531.81387,172 h -11.86508 c -10.69527,0 -11.79156,-0.23006 -11.11936,-2.33334 z m 67.11907,29.69331 c 4.69001,-2.42531 9.38485,-8.19816 9.38485,-11.53979 0,-3.89204 -6.35042,-3.3064 -8.20154,0.75636 -3.6306,7.96832 -16.00638,7.5957 -20.12973,-0.60608 -2.99102,-5.94948 -2.99102,-16.64976 0,-22.63713 4.39762,-8.80303 16.90289,-8.35068 20.35778,0.7364 0.86427,2.27317 2.26243,3.2636 4.60716,3.2636 6.85005,0 2.57223,-10.91753 -6.01852,-15.35997 -5.20218,-2.69015 -13.04704,-2.47912 -18.60272,0.50042 -14.31852,7.67911 -14.31852,36.70666 0,44.38576 5.55568,2.97955 13.40054,3.19058 18.60272,0.50043 z m 38.71819,-1.27141 c 0,-2.54858 -0.78671,-3.3353 -3.66667,-3.66667 L 607.33335,194 l -0.37317,-17 -0.37316,-17 h 4.03983 c 3.42028,0 4.03984,-0.51122 4.03984,-3.33334 0,-2.81481 -0.62223,-3.33333 -4,-3.33333 -3.77778,0 -4,-0.2963 -4,-5.33333 0,-5.03704 -0.22223,-5.33334 -4,-5.33334 -3.77778,0 -4,0.2963 -4,5.33334 0,5.20635 -0.11107,5.33333 -4.66667,5.33333 -4.08889,0 -4.66667,0.4127 -4.66667,3.33333 0,2.92064 0.57778,3.33334 4.66667,3.33334 h 4.66667 v 17.58073 c 0,16.21548 0.22513,17.82037 2.89908,20.66667 2.05058,2.18273 4.39204,3.08593 8,3.08593 4.51496,0 5.10092,-0.37273 5.10092,-3.24477 z M 413.33335,182.09677 c 0,-17.75304 0.0295,-17.92641 3.51314,-20.66667 4.07987,-3.20922 9.53948,-3.56974 13.23202,-0.87377 2.31022,1.68673 2.63478,3.90615 3.02228,20.66667 L 433.53491,200 h 3.89921 3.89923 v -18.13183 c 0,-20.51493 -1.51494,-25.84864 -8.11871,-28.58401 -4.78543,-1.98219 -13.90123,-0.94942 -17.08977,1.93618 -2.92244,2.64477 -4.12486,2.67771 -4.12486,0.11299 0,-1.33333 -1.33333,-2 -4,-2 h -4 V 176.66666 200 h 4.66667 4.66667 z m 49.33333,0 c 0,-17.75304 0.0295,-17.92641 3.51315,-20.66667 4.07987,-3.20922 9.53948,-3.56974 13.23201,-0.87377 2.31023,1.68673 2.63479,3.90615 3.02228,20.66667 L 482.86824,200 h 3.89922 3.89922 v -18.13183 c 0,-20.51493 -1.51493,-25.84864 -8.1187,-28.58401 -4.78543,-1.98219 -13.90123,-0.94942 -17.08978,1.93618 -2.92244,2.64477 -4.12485,2.67771 -4.12485,0.11299 0,-1.33333 -1.33334,-2 -4,-2 h -4 V 176.66666 200 h 4.66666 4.66667 z"
     id="path20"
     inkscape:connector-curvature="0" />
</svg>
