<?xml version="1.0" encoding="UTF-8" standalone="no"?>
<!-- Created with Inkscape (http://www.inkscape.org/) -->

<svg
   xmlns:dc="http://purl.org/dc/elements/1.1/"
   xmlns:cc="http://creativecommons.org/ns#"
   xmlns:rdf="http://www.w3.org/1999/02/22-rdf-syntax-ns#"
   xmlns:svg="http://www.w3.org/2000/svg"
   xmlns="http://www.w3.org/2000/svg"
   xmlns:sodipodi="http://sodipodi.sourceforge.net/DTD/sodipodi-0.dtd"
   xmlns:inkscape="http://www.inkscape.org/namespaces/inkscape"
   version="1.1"
   id="svg20"
   width="726.66669"
   height="278.66666"
   viewBox="0 0 726.66669 278.66666"
   sodipodi:docname="Google_connect.svg"
   inkscape:version="0.92.1 r15371">
  <metadata
     id="metadata26">
    <rdf:RDF>
      <cc:Work
         rdf:about="">
        <dc:format>image/svg+xml</dc:format>
        <dc:type
           rdf:resource="http://purl.org/dc/dcmitype/StillImage" />
        <dc:title></dc:title>
      </cc:Work>
    </rdf:RDF>
  </metadata>
  <defs
     id="defs24" />
  <sodipodi:namedview
     pagecolor="#ffffff"
     bordercolor="#666666"
     borderopacity="1"
     objecttolerance="10"
     gridtolerance="10"
     guidetolerance="10"
     inkscape:pageopacity="0"
     inkscape:pageshadow="2"
     inkscape:window-width="1920"
     inkscape:window-height="1001"
     id="namedview22"
     showgrid="false"
     inkscape:zoom="1.866055"
     inkscape:cx="486.80847"
     inkscape:cy="63.17537"
     inkscape:window-x="-9"
     inkscape:window-y="-9"
     inkscape:window-maximized="1"
     inkscape:current-layer="svg20" />
  <g
     id="g95">
    <path
       sodipodi:nodetypes="ssssssscccssccccsscscsccsssssssscscccccccscscscsscsssscscccccccccccccccccccccccsccscsssssssccscccccccccsccccsscccccsccccsscccscsccsscscccsccssssssssscccccsccsscsscccssssccccccssccscccsccsccccc"
       inkscape:connector-curvature="0"
       id="path30"
       d="M 96.046518,277.24386 C 73.542139,272.69277 49.873153,261.95417 33.136569,245.21758 16.18479,228.26581 7.1436055,211.61108 2.3902129,188.57982 c -3.16331382,-15.32696 -3.16331382,-28.84576 0,-44.17272 C 7.1436055,121.37585 16.18479,104.72112 33.136569,87.769339 50.088347,70.817561 66.743083,61.776377 89.774328,57.022985 101.3801,54.627685 114.28037,54.527797 414.19405,54.510977 l 312.33334,-0.01752 v 112.000003 112 l -313.00001,-0.0939 c -296.18133,-0.0887 -306.24304,1.11694 -317.480862,-1.1557 z M 722.52739,166.47442 V 62.45538 L 407.52738,62.807754 92.527359,63.160127 83.194025,66.314126 C 46.884456,78.58416 22.728228,102.95863 11.660963,138.49346 c -4.5061625,14.46841 -4.5070647,41.55171 -0.0019,55.94258 9.066597,28.96122 27.007621,50.95731 52.083004,63.8549 11.214128,5.76801 20.925646,9.21837 30.46977,10.82544 3.473518,0.58489 146.265503,1.134 317.315513,1.22025 l 311.00001,0.15683 z M 93.194025,242.1257 c -24.30684,-8.31736 -43.930197,-28.39373 -51.405745,-52.59246 -2.958831,-9.5779 -3.843228,-25.2679 -2.015787,-35.76184 6.903043,-39.64021 43.743916,-68.51386 83.380567,-65.348638 19.89238,1.588524 35.92701,9.047066 50.09045,23.299688 15.04957,15.14434 22.6172,33.69356 22.6172,55.43768 0,34.69001 -20.84024,63.57771 -53.86385,74.66336 -13.67922,4.59196 -35.86488,4.72934 -48.802835,0.30221 z m 18.343865,-34.76189 c 17.48731,-4.53615 28.32281,-20.27915 28.32281,-41.15048 v -6.38653 h -20 -20.000005 v 8.66666 8.66667 c 7.054315,-0.004 14.108615,0.004 21.162925,0.0108 -1.58557,4.87179 -1.58724,4.36022 -3.08764,7.1694 -6.87824,8.74427 -20.907847,10.76823 -31.636195,4.48099 -8.770228,-5.1397 -12.421508,-11.56611 -12.431295,-21.87963 -0.0067,-6.99142 0.58942,-9.06395 3.992202,-13.88125 2.2,-3.11453 6.4,-6.91621 9.333333,-8.44819 7.245964,-3.78431 18.413345,-3.71165 24.979605,0.16254 l 4.85354,2.86366 4.87613,-5.95067 c 5.73246,-6.99571 5.3187,-8.02761 -5.08458,-12.681 -9.51458,-4.25588 -25.546785,-4.40024 -34.454568,-0.31023 -8.441673,3.87598 -16.680448,11.63616 -20.928096,19.71235 -3.082409,5.86068 -4.49814,8.33424 -4.49814,18.75127 0,10.41703 1.415731,12.89059 4.49814,18.75128 9.588315,18.23057 29.558417,26.78129 50.101834,21.4524 z m 60.32282,-30.87035 v -6 h 6 6 v -5.33333 -5.33333 h -6 -6 v -6 -6 h -5.33334 -5.33333 v 6 6 h -6 -6 v 5.33333 5.33333 h 6.34294 6.10611 l 0.0611,6.20096 0.008,5.83253 4.68051,-0.0335 h 5.46759 z m 142.55143,23.46668 c -11.12171,-3.61009 -16.20202,-12.03316 -16.96759,-28.13201 -0.67081,-14.10624 1.20512,-21.31984 7.29824,-28.06419 5.45756,-6.04088 12.77123,-8.59183 21.06655,-7.34787 9.8264,1.47355 15.59905,6.55611 18.63897,16.41073 0.82001,2.65824 0.46156,3 -3.14652,3 -3.36329,0 -4.39864,-0.78184 -5.94901,-4.49241 -2.37555,-5.6855 -6.84466,-8.84093 -12.52163,-8.84093 -11.77325,0 -17.57855,8.58645 -17.57855,26 0,17.38448 5.50336,26 16.60811,26 6.59809,0 11.00453,-2.88738 13.49207,-8.84092 1.55037,-3.71057 2.58572,-4.49241 5.94901,-4.49241 3.59948,0 3.96795,0.34809 3.17556,3 -1.72369,5.76869 -5.41119,10.92521 -9.53513,13.33373 -4.80579,2.80672 -15.51712,4.09348 -20.53008,2.46628 z m 51.44857,-0.67002 c -14.65829,-6.47034 -17.15064,-32.88082 -4.07367,-43.16716 9.29761,-7.31349 25.18677,-3.71164 30.58721,6.93369 3.60026,7.09684 3.59674,19.78893 -0.008,26.87363 -4.64026,9.12121 -17.0884,13.51689 -26.50608,9.35984 z m 16.65503,-8.57988 c 7.16953,-7.16955 6.68823,-23.53568 -0.86693,-29.47858 -5.17595,-4.07141 -11.16648,-3.56212 -15.87198,1.34935 -3.60849,3.76645 -3.91612,4.85935 -3.91612,13.91245 0,9.05311 0.30763,10.146 3.91612,13.91246 5.24155,5.471 11.45919,5.58404 16.73891,0.30432 z m 131.48407,9.06532 c -9.49791,-2.84223 -15.21371,-14.01156 -13.70203,-26.77534 1.445,-12.20076 8.08339,-19.67406 18.41062,-20.72611 11.3091,-1.15207 18.58921,5.97415 20.31544,19.88602 l 0.78586,6.33333 h -16.14116 -16.14116 l 0.83003,4.33334 c 1.87127,9.7694 13.78995,14.8291 21.20047,9 3.98196,-3.13222 5.44598,-3.30568 7.45626,-0.88344 2.93476,3.53617 -8.34356,10.4506 -16.47796,10.10217 -1.4715,-0.0631 -4.41286,-0.63452 -6.53637,-1.26997 z m 17.04465,-31.61543 c -2.78598,-11.78159 -16.70248,-13.26418 -21.29662,-2.26884 -1.03792,2.48409 -1.88712,4.8358 -1.88712,5.22601 0,0.39023 5.41142,0.7095 12.0254,0.7095 h 12.0254 z m 28.14959,31.11781 c -14.35073,-6.37824 -17.39341,-31.35006 -5.13161,-42.11607 10.3506,-9.08794 27.49409,-5.15571 30.51065,6.99826 0.81552,3.28583 0.55368,3.66667 -2.52092,3.66667 -2.19565,0 -4.00633,-1.08015 -5.029,-3 -2.2806,-4.28138 -5.26764,-6.24219 -9.58344,-6.29093 -8.43945,-0.0953 -12.91235,6.12526 -12.91235,17.95759 0,12.05687 4.41687,18 13.3774,18 2.96897,0 5.32671,-1.1854 7.95594,-4 3.84895,-4.1203 9.33333,-5.4012 9.33333,-2.17981 0,3.07571 -5.54478,9.07091 -10.18104,11.00805 -5.46192,2.28214 -10.61789,2.26787 -15.81896,-0.0437 z m 42.68888,-1.30772 c -3.24221,-3.24221 -3.35554,-3.94302 -3.35554,-20.74949 V 159.8268 h -4.66667 c -4.08889,0 -4.66667,-0.4127 -4.66667,-3.33334 0,-2.92063 0.57778,-3.33333 4.66667,-3.33333 4.55556,0 4.66667,-0.12699 4.66667,-5.33333 0,-5.03704 0.22222,-5.33334 4,-5.33334 3.77777,0 4,0.2963 4,5.33334 0,5.03703 0.22222,5.33333 4,5.33333 3.37777,0 4,0.51852 4,3.33333 0,2.82212 -0.61956,3.33334 -4.03984,3.33334 h -4.03983 l 0.37316,17 0.37317,17 3.74679,0.42962 c 2.98768,0.34259 3.66301,1.01792 3.33333,3.33334 -0.64024,4.49645 -8.04781,4.72389 -12.39124,0.38046 z M 405.19405,176.49346 v -23.33333 h 3.33333 c 2.46083,0 3.33333,0.70845 3.33333,2.70658 0,2.64783 0.0892,2.64059 4.11171,-0.33333 6.17548,-4.56573 15.94108,-4.25913 20.85799,0.65485 3.66225,3.66007 3.70125,3.88231 4.1526,23.66666 l 0.45561,19.97191 h -4.12228 -4.12229 v -18 c 0,-16.22223 -0.26338,-18.26338 -2.66667,-20.66667 -3.95381,-3.95381 -10.09655,-3.44192 -14.76923,1.23077 -3.8945,3.89451 -3.89744,3.91003 -3.89744,20.66667 v 16.76923 h -3.33333 -3.33333 z m 49.33333,0 v -23.33333 h 3.33333 c 2.46083,0 3.33334,0.70845 3.33334,2.70658 0,2.64783 0.0892,2.64059 4.1117,-0.33333 6.17549,-4.56573 15.94109,-4.25913 20.85799,0.65485 3.66226,3.66007 3.70126,3.88231 4.1526,23.66666 l 0.45562,19.97191 h -4.12228 -4.1223 v -18 c 0,-16.22223 -0.26337,-18.26338 -2.66666,-20.66667 -3.95382,-3.95381 -10.09655,-3.44192 -14.76923,1.23077 -3.89451,3.89451 -3.89744,3.91003 -3.89744,20.66667 v 16.76923 h -3.33334 -3.33333 z"
       style="fill:#ffffff;stroke-width:1.33333337" />
  </g>
</svg>
