<?xml version="1.0" encoding="UTF-8" standalone="no"?>
<!-- Created with Inkscape (http://www.inkscape.org/) -->

<svg
   xmlns:dc="http://purl.org/dc/elements/1.1/"
   xmlns:cc="http://creativecommons.org/ns#"
   xmlns:rdf="http://www.w3.org/1999/02/22-rdf-syntax-ns#"
   xmlns:svg="http://www.w3.org/2000/svg"
   xmlns="http://www.w3.org/2000/svg"
   xmlns:sodipodi="http://sodipodi.sourceforge.net/DTD/sodipodi-0.dtd"
   xmlns:inkscape="http://www.inkscape.org/namespaces/inkscape"
   version="1.1"
   id="svg60"
   width="726.66669"
   height="278.66666"
   viewBox="0 0 726.66669 278.66666"
   sodipodi:docname="Google_connected_hover.svg"
   inkscape:version="0.92.1 r15371">
  <metadata
     id="metadata66">
    <rdf:RDF>
      <cc:Work
         rdf:about="">
        <dc:format>image/svg+xml</dc:format>
        <dc:type
           rdf:resource="http://purl.org/dc/dcmitype/StillImage" />
        <dc:title></dc:title>
      </cc:Work>
    </rdf:RDF>
  </metadata>
  <defs
     id="defs64" />
  <sodipodi:namedview
     pagecolor="#ffffff"
     bordercolor="#666666"
     borderopacity="1"
     objecttolerance="10"
     gridtolerance="10"
     guidetolerance="10"
     inkscape:pageopacity="0"
     inkscape:pageshadow="2"
     inkscape:window-width="1920"
     inkscape:window-height="1001"
     id="namedview62"
     showgrid="false"
     inkscape:zoom="1.3195001"
     inkscape:cx="329.47622"
     inkscape:cy="178.10049"
     inkscape:window-x="-9"
     inkscape:window-y="-9"
     inkscape:window-maximized="1"
     inkscape:current-layer="svg60" />
  <path
     style="fill:#ffffff;stroke-width:1.33333337"
     d="M 89.433581,277.21698 C 56.305121,270.7173 26.694251,247.84907 10.969276,216.61967 2.4898283,199.7797 0.6666637,190.93994 0.6666637,166.66666 c 0,-19.35661 0.3755236,-23.19589 3.1253517,-31.95301 C 15.391509,97.773848 41.739508,71.1866 79.333333,58.486383 l 9.333334,-3.153055 206.333343,-0.357896 206.33334,-0.357895 v 6.44635 c 0,33.664384 22.73548,60.791673 55.17673,65.835203 40.46313,6.29066 75.48994,-24.24503 75.48994,-65.810641 v -6.421788 h 47.33334 47.33333 v 111.999999 112 L 411.00001,278.52057 C 237.38334,278.44022 92.678445,277.85361 89.433581,277.21698 Z m 47.899759,-33.31633 c 9.74017,-2.21992 24.53168,-10.25311 33.01553,-17.93055 29.10307,-26.33676 34.59575,-69.02402 13.10068,-101.81406 -10.52718,-16.0589 -24.80684,-26.909209 -42.78288,-32.508313 -11.567,-3.602842 -33.51283,-3.927574 -44.173651,-0.653637 -25.427798,7.808877 -44.655251,26.01119 -53.630434,50.77104 -3.017096,8.32327 -3.466124,11.64999 -3.451105,25.5682 0.01952,18.08751 2.108501,26.01731 10.728319,40.72479 9.554433,16.30215 27.849909,30.28326 46.025202,35.1717 8.392139,2.25716 32.485559,2.64976 41.168339,0.67083 z M 87.49865,207.15112 c -12.134884,-3.72644 -20.290218,-10.58454 -26.55282,-22.32916 -4.288438,-8.04236 -4.222857,-27.05351 0.12148,-35.21538 4.695638,-8.82188 11.761039,-15.83005 20.045706,-19.88336 10.221921,-5.00112 25.405124,-5.23496 35.845004,-0.55204 10.39938,4.66474 10.80107,5.68072 4.99305,12.62896 l -4.94557,5.9165 -4.83608,-2.85622 c -3.53271,-2.08642 -7.05104,-2.85677 -13.054564,-2.85832 -6.97372,-0.001 -9.094137,0.60643 -14,4.01574 -21.374581,14.85412 -11.155887,46.75489 14.929504,46.607 4.93302,-0.028 8.90785,-0.93548 11.99547,-2.73876 4.9327,-2.88084 11.05625,-10.77927 9.85896,-12.71651 C 121.50123,176.5263 116.41137,176 110.58798,176 H 99.999997 v -8.03564 -8.03566 l 19.666673,0.36899 19.66667,0.36897 -0.26198,9.58695 c -0.34549,12.64303 -4.12658,21.38377 -12.51131,28.92237 -10.30649,9.26642 -25.05243,12.2771 -39.0614,7.97514 z m 75.16802,-30.4114 v -5.92695 l -6.33333,-0.40639 C 150.06106,170.00392 149.99602,169.9518 149.58618,165 l -0.41382,-5 h 6.74715 6.74716 v -6 c 0,-5.96826 0.0247,-6 4.66667,-6 4.64197,0 4.66667,0.0317 4.66667,6 v 6 h 6 6 v 5.33333 5.33333 h -6 -6 v 6 c 0,5.96826 -0.0247,6 -4.66667,6 -4.63345,0 -4.66667,-0.0421 -4.66667,-5.92694 z m 123.75358,20.76908 c 4.34307,-3.09254 9.57976,-11.58744 9.57976,-15.54016 0,-1.6021 -1.06632,-2.03294 -4.25652,-1.71979 -3.4914,0.34271 -4.44645,1.15632 -5.31319,4.52625 -3.12962,12.16846 -21.04804,13.17243 -27.40772,1.53566 -1.80788,-3.30799 -2.35591,-7.41238 -2.35591,-17.6441 0,-11.58157 0.40155,-13.9791 3.05634,-18.24852 6.97485,-11.21697 23.55259,-9.70713 26.77521,2.43859 0.80686,3.04095 1.86779,3.89427 5.25635,4.22775 4.86737,0.47901 5.35755,-1.17516 2.42673,-8.18956 -5.5846,-13.36586 -25.02381,-17.17913 -36.44687,-7.14956 -7.38302,6.48238 -9.67085,12.85085 -9.70514,27.01556 -0.0256,10.58349 0.42874,12.9985 3.63738,19.33333 5.00514,9.88161 11.29651,13.51037 22.39006,12.91421 5.76901,-0.31001 9.27965,-1.30374 12.36352,-3.49966 z m 49.64383,0.82 c 7.23088,-4.87288 9.94932,-10.85039 9.85146,-21.66214 -0.10066,-11.12265 -2.51872,-16.50169 -9.57284,-21.29509 -10.05196,-6.83048 -22.7799,-3.36347 -29.37356,8.00119 -4.079,7.03046 -3.80153,22.40793 0.5093,28.22626 7.28022,9.82614 19.66453,12.74171 28.58564,6.72978 z m -17.20491,-5.75464 c -9.10168,-6.53756 -8.88541,-25.89747 0.35692,-31.95328 4.41055,-2.8899 11.90447,-1.65651 14.77865,2.43234 5.486,7.80447 5.16139,23.01056 -0.60257,28.22687 -3.65845,3.31085 -10.83549,3.94992 -14.533,1.29407 z m 163.54354,6.89568 c 1.98199,-1.02492 4.65704,-3.02754 5.94459,-4.45026 2.23468,-2.46929 2.22922,-2.68788 -0.12014,-4.81396 -2.30738,-2.08816 -2.61085,-2.06168 -4.8605,0.42418 -1.31972,1.45825 -4.27335,3.00292 -6.56363,3.43258 -7.89783,1.48164 -14.03587,-2.96496 -16.19067,-11.72905 l -0.90151,-3.66667 h 16.31633 16.31632 l -0.91203,-6.87517 c -1.18196,-8.91007 -3.87148,-13.95243 -9.16292,-17.1788 -9.62516,-5.86881 -21.61206,-1.75024 -27.35263,9.39807 -4.00311,7.77413 -3.7074,21.82473 0.58113,27.61328 6.63692,8.95833 18.22159,12.33646 26.90559,7.8458 z m -21.57328,-29.80318 c 2.37342,-7.42634 6.40807,-11 12.41895,-11 3.68694,0 7.96884,4.12443 9.34361,9 L 483.81387,172 h -11.86508 c -10.69527,0 -11.79156,-0.23006 -11.11936,-2.33334 z m 67.11907,29.69331 c 4.69001,-2.42531 9.38485,-8.19816 9.38485,-11.53979 0,-3.89204 -6.35043,-3.3064 -8.20155,0.75636 -3.6306,7.96832 -16.00637,7.5957 -20.12972,-0.60608 -2.99102,-5.94948 -2.99102,-16.64976 0,-22.63713 4.39762,-8.80303 16.90288,-8.35068 20.35778,0.7364 0.86426,2.27317 2.26242,3.2636 4.60716,3.2636 6.85005,0 2.57222,-10.91753 -6.01852,-15.35997 -5.20218,-2.69015 -13.04704,-2.47912 -18.60272,0.50042 -14.31852,7.67911 -14.31852,36.70666 0,44.38576 5.55568,2.97955 13.40054,3.19058 18.60272,0.50043 z m 37.38485,-1.27141 c 0,-2.54858 -0.78671,-3.3353 -3.66667,-3.66667 L 558.00002,194 l -0.37318,-17 -0.37316,-17 h 4.03983 c 3.42028,0 4.03984,-0.51122 4.03984,-3.33334 0,-2.81481 -0.62223,-3.33333 -4,-3.33333 -3.77777,0 -4,-0.29629 -4,-5.33333 0,-5.03704 -0.22223,-5.33334 -4,-5.33334 -3.77777,0 -4,0.2963 -4,5.33334 0,5.20634 -0.11107,5.33333 -4.66667,5.33333 -4.08889,0 -4.66666,0.41269 -4.66666,3.33333 0,2.92064 0.57777,3.33334 4.66666,3.33334 h 4.66667 v 17.58073 c 0,16.21548 0.22513,17.82037 2.89908,20.66667 2.05059,2.18273 4.39204,3.08593 8,3.08593 4.51496,0 5.10092,-0.37273 5.10092,-3.24477 z m 38.4027,1.38128 c 1.98198,-1.02492 4.65704,-3.02754 5.94458,-4.45026 2.23468,-2.46929 2.22923,-2.68788 -0.12013,-4.81396 -2.30739,-2.08816 -2.61085,-2.06168 -4.86051,0.42418 -1.31972,1.45825 -4.27334,3.00292 -6.56362,3.43258 -7.89783,1.48164 -14.03587,-2.96496 -16.19067,-11.72905 l -0.90151,-3.66667 h 16.31632 16.31632 l -0.91202,-6.87517 c -1.18196,-8.91007 -3.87148,-13.95243 -9.16292,-17.1788 -9.62516,-5.86881 -21.61206,-1.75024 -27.35263,9.39807 -4.00311,7.77413 -3.7074,21.82473 0.58113,27.61328 6.63692,8.95833 18.22159,12.33646 26.90559,7.8458 z m -21.57328,-29.80318 c 2.37342,-7.42634 6.40806,-11 12.41894,-11 3.68695,0 7.96884,4.12443 9.34362,9 L 605.14721,172 h -11.86508 c -10.69527,0 -11.79156,-0.23006 -11.11936,-2.33334 z m 64.88866,29.14374 c 4.07214,-2.0761 4.94859,-2.17848 4.94859,-0.57811 0,1.33503 1.14969,1.81255 3.66667,1.52293 l 3.66666,-0.42189 V 166.66666 134 h -4 -4 l -0.38736,11.0063 -0.38736,11.0063 -3.87976,-2.0063 c -9.27789,-4.79778 -19.72837,-0.66777 -24.26578,9.5898 -3.26584,7.38298 -2.88527,21.04479 0.78388,28.14016 4.5947,8.88518 14.52564,11.83024 23.85446,7.07414 z m -11.74182,-5.4041 c -1.47972,-0.60022 -3.57972,-2.75302 -4.66667,-4.784 -2.5056,-4.68176 -2.58551,-19.0802 -0.13133,-23.66586 3.44241,-6.43222 12.97916,-7.94188 18.06184,-2.8592 1.60149,1.60148 2.08844,4.96826 2.07282,14.33133 -0.0219,13.08964 -0.38608,14.33345 -4.89193,16.70516 -3.33365,1.75469 -6.58193,1.83947 -10.44473,0.27257 z M 365.33335,182.09677 c 0,-17.75304 0.0295,-17.92641 3.51314,-20.66667 4.07987,-3.20922 9.53948,-3.56974 13.23202,-0.87377 2.31022,1.68673 2.63478,3.90615 3.02228,20.66667 L 385.53491,200 h 3.89921 3.89923 v -18.13183 c 0,-20.51493 -1.51494,-25.84864 -8.11871,-28.58401 -4.78543,-1.98219 -13.90123,-0.94942 -17.08977,1.93617 -2.92244,2.64479 -4.12486,2.67772 -4.12486,0.113 0,-1.33333 -1.33333,-2 -4,-2 h -4 V 176.66666 200 h 4.66667 4.66667 z m 49.33333,0 c 0,-17.75304 0.0295,-17.92641 3.51315,-20.66667 4.07986,-3.20922 9.53948,-3.56974 13.23201,-0.87377 2.31023,1.68673 2.63479,3.90615 3.02228,20.66667 L 434.86824,200 h 3.89921 3.89923 v -18.13183 c 0,-20.51493 -1.51493,-25.84864 -8.11871,-28.58401 -4.78542,-1.98219 -13.90122,-0.94942 -17.08977,1.93617 -2.92244,2.64479 -4.12485,2.67772 -4.12485,0.113 0,-1.33333 -1.33334,-2 -4,-2 h -4 V 176.66666 200 h 4.66666 4.66667 z m 136.64926,-67.08305 c -16.17071,-5.78221 -27.3043,-15.733664 -34.4299,-30.774247 -3.81584,-8.054396 -4.21936,-10.117536 -4.21936,-21.572812 0,-11.472267 0.40044,-13.511965 4.24664,-21.631105 5.90172,-12.458218 14.60787,-21.327606 26.89683,-27.401142 9.48252,-4.6865151 10.77257,-4.9677509 22.78739,-4.9677509 11.54999,0 13.57048,0.3954017 21.70025,4.2466399 12.45822,5.901715 21.3276,14.607863 27.40115,26.896828 4.69217,9.493975 4.96775,10.761891 4.96775,22.85653 0,12.09464 -0.27558,13.362556 -4.96775,22.85653 -9.40799,19.035769 -26.66389,30.582879 -46.97174,31.432029 -7.8589,0.32861 -12.5144,-0.19051 -17.41126,-1.9415 z m 29.29157,-48.287815 c 23.65282,-23.680229 23.88619,-23.970418 21.44612,-26.666666 -1.3568,-1.49925 -3.14908,-2.72591 -3.98282,-2.72591 -0.83375,0 -10.67083,9.223934 -21.86018,20.497631 l -20.34425,20.497632 -7.46947,-7.830966 c -4.10821,-4.30703 -8.18516,-7.830965 -9.05987,-7.830965 -0.87472,0 -2.69722,1.223035 -4.05001,2.717855 -2.42515,2.679752 -2.30228,2.876018 8.76391,14 6.17294,6.205179 11.54304,11.282145 11.93353,11.282145 0.39049,0 11.47087,-10.77334 24.62304,-23.940756 z"
     id="path70"
     inkscape:connector-curvature="0" />
</svg>
