<?xml version="1.0" encoding="UTF-8" standalone="no"?>
<!-- Created with Inkscape (http://www.inkscape.org/) -->

<svg
   xmlns:dc="http://purl.org/dc/elements/1.1/"
   xmlns:cc="http://creativecommons.org/ns#"
   xmlns:rdf="http://www.w3.org/1999/02/22-rdf-syntax-ns#"
   xmlns:svg="http://www.w3.org/2000/svg"
   xmlns="http://www.w3.org/2000/svg"
   xmlns:sodipodi="http://sodipodi.sourceforge.net/DTD/sodipodi-0.dtd"
   xmlns:inkscape="http://www.inkscape.org/namespaces/inkscape"
   version="1.1"
   id="svg34"
   width="726.66669"
   height="280"
   viewBox="0 0 726.66669 280"
   sodipodi:docname="Google_connected.svg"
   inkscape:version="0.92.1 r15371">
  <metadata
     id="metadata40">
    <rdf:RDF>
      <cc:Work
         rdf:about="">
        <dc:format>image/svg+xml</dc:format>
        <dc:type
           rdf:resource="http://purl.org/dc/dcmitype/StillImage" />
        <dc:title></dc:title>
      </cc:Work>
    </rdf:RDF>
  </metadata>
  <defs
     id="defs38" />
  <sodipodi:namedview
     pagecolor="#ffffff"
     bordercolor="#666666"
     borderopacity="1"
     objecttolerance="10"
     gridtolerance="10"
     guidetolerance="10"
     inkscape:pageopacity="0"
     inkscape:pageshadow="2"
     inkscape:window-width="1920"
     inkscape:window-height="1001"
     id="namedview36"
     showgrid="false"
     inkscape:zoom="29.85688"
     inkscape:cx="716.92113"
     inkscape:cy="10.040297"
     inkscape:window-x="-9"
     inkscape:window-y="-9"
     inkscape:window-maximized="1"
     inkscape:current-layer="svg34" />
  <path
     style="fill:#ffffff;stroke-width:1.33333337"
     d="M 93.564366,278.51772 C 70.657231,274.70883 50.962614,264.29595 33.345813,246.67915 19.311773,232.64511 11.735907,220.75191 6.1675253,204.01248 -7.5982867,162.63031 2.1476723,120.6883 32.679147,89.919006 50.469039,71.99054 67.806948,62.683503 91.945979,58.104407 101.65695,56.262268 126.89601,56.012479 303.31756,56.012479 h 200.34382 l 0.71486,-5.329739 c 1.18276,-8.818089 8.31264,-22.179493 16.30875,-30.56257 25.35621,-26.5833458 66.63214,-26.5833458 91.98835,0 7.99611,8.383077 15.12599,21.744481 16.30875,30.56257 l 0.71486,5.329739 h 48.49111 48.49111 v 112.000001 112 L 413.67916,279.85661 C 238.60399,279.76943 97.543989,279.17944 93.564366,278.51772 Z M 722.67917,168.01248 V 64.012479 h -45.76319 -45.7632 l -1.44476,9.333967 c -3.92475,25.356058 -22.76176,46.115594 -47.75092,52.624444 -35.65088,9.28587 -72.56546,-15.53223 -78.31062,-52.649146 L 502.1979,63.963075 298.1052,64.329459 C 68.382119,64.741855 89.415534,63.75073 66.012481,75.266011 38.892335,88.610256 19.076581,112.92367 11.069882,142.67915 c -3.2072997,11.91936 -3.2072997,38.7473 0,50.66666 10.532039,39.14046 41.663908,68.6195 80.9426,76.64524 7.048624,1.44024 66.729538,1.79424 319.666678,1.89614 l 311.00001,0.12529 z M 94.007637,243.99007 C 69.537353,236.2276 48.247373,213.92615 41.205322,188.67915 c -3.008684,-10.78667 -2.296919,-34.1499 1.360778,-44.66667 11.967259,-34.40879 45.525436,-56.88269 80.73874,-54.0707 20.27204,1.618843 36.04635,9.07755 50.70765,23.97653 15.05193,15.29597 22,32.51301 22,54.51517 0,14.20569 -2.61827,25.17655 -8.84188,37.04867 -9.45091,18.02844 -25.91619,31.87869 -45.16401,37.99101 -13.18339,4.18651 -35.66767,4.42864 -47.998963,0.51691 z m 17.682033,-35.10724 c 17.48731,-4.53615 28.32281,-20.27915 28.32281,-41.15048 v -6.38654 h -20 -20 v 8.66667 8.66667 h 10.66667 c 12.44525,0 13.48704,1.44629 6.2528,8.68053 -10.91877,10.91877 -31.309716,8.01416 -39.795633,-5.66873 -4.808846,-7.75391 -4.425837,-19.60552 0.876165,-27.11154 2.2,-3.11453 6.4,-6.91621 9.333333,-8.44818 7.245964,-3.78431 18.413335,-3.71166 24.979595,0.16254 l 4.85354,2.86366 4.87613,-5.95067 c 5.73246,-6.99571 5.3187,-8.02761 -5.08458,-12.68101 -9.51458,-4.25587 -25.546775,-4.40023 -34.454558,-0.31023 -8.441673,3.87599 -16.680448,11.63616 -20.928096,19.71235 -3.081497,5.85896 -3.55117,8.33733 -3.553526,18.75128 -0.0023,9.88853 0.524909,12.99056 2.995908,17.6296 10.362919,19.45525 29.613383,28.03336 50.659442,22.57408 z m 60.32282,-30.87035 v -6 h 6 6 v -5.33333 -5.33334 h -6 -6 v -6 -6 h -5.46759 -5.4676 l 0.4772,6 0.4772,6 h -6.34294 -6.34294 v 5.33334 5.33333 h 6.34294 6.34294 l -0.4772,6 -0.4772,6 h 5.4676 5.46759 z m 93.21809,23.46668 c -11.12171,-3.61009 -16.20201,-12.03316 -16.96759,-28.13201 -0.67081,-14.10624 1.20512,-21.31984 7.29824,-28.0642 5.45757,-6.04087 12.77123,-8.59183 21.06655,-7.34787 9.8264,1.47356 15.59906,6.55612 18.63898,16.41073 0.82001,2.65824 0.46156,3 -3.14652,3 -3.3633,0 -4.39864,-0.78184 -5.94902,-4.49241 -2.37554,-5.68549 -6.84465,-8.84092 -12.52162,-8.84092 -11.77326,0 -17.57855,8.58645 -17.57855,26 0,17.38448 5.50336,26 16.60811,26 6.59809,0 11.00453,-2.88739 13.49206,-8.84092 1.55038,-3.71057 2.58572,-4.49241 5.94902,-4.49241 3.59948,0 3.96794,0.34809 3.17556,3 -1.7237,5.76869 -5.41119,10.92521 -9.53514,13.33373 -4.80578,2.80672 -15.51712,4.09348 -20.53008,2.46628 z m 51.44858,-0.67003 c -14.6583,-6.47033 -17.15064,-32.88081 -4.07367,-43.16716 9.2976,-7.31349 25.18676,-3.71164 30.5872,6.9337 3.60027,7.09684 3.59675,19.78893 -0.008,26.87362 -4.64025,9.12122 -17.0884,13.5169 -26.50608,9.35984 z m 16.65502,-8.57988 c 7.16954,-7.16954 6.68823,-23.53568 -0.86693,-29.47857 -5.17595,-4.07141 -11.16648,-3.56212 -15.87197,1.34935 -3.6085,3.76645 -3.91612,4.85934 -3.91612,13.91245 0,9.05311 0.30762,10.146 3.91612,13.91245 5.24154,5.471 11.45918,5.58404 16.7389,0.30432 z m 132.81741,9.06532 c -9.49791,-2.84222 -15.21371,-14.01156 -13.70203,-26.77533 1.445,-12.20077 8.08339,-19.67407 18.41062,-20.72611 11.3091,-1.15208 18.58921,5.97415 20.31544,19.88602 l 0.78586,6.33333 h -16.14116 -16.14116 l 0.83003,4.33333 c 1.87126,9.7694 13.78995,14.82911 21.20047,9 3.98196,-3.13221 5.44598,-3.30568 7.45626,-0.88344 2.93476,3.53618 -8.34356,10.4506 -16.47796,10.10218 -1.4715,-0.0631 -4.41286,-0.63452 -6.53637,-1.26998 z m 17.04465,-31.61542 c -2.78598,-11.78159 -16.70248,-13.26419 -21.29663,-2.26884 -1.03792,2.48409 -1.88712,4.8358 -1.88712,5.22601 0,0.39023 5.41143,0.70949 12.02541,0.70949 h 12.0254 z m 28.14959,31.11781 c -14.35073,-6.37824 -17.39341,-31.35007 -5.13161,-42.11607 10.3506,-9.08794 27.49409,-5.15572 30.51065,6.99826 0.81552,3.28582 0.55368,3.66666 -2.52092,3.66666 -2.19565,0 -4.00633,-1.08014 -5.029,-3 -2.2806,-4.28137 -5.26764,-6.24218 -9.58344,-6.29093 -8.43945,-0.0953 -12.91235,6.12527 -12.91235,17.9576 0,12.05687 4.41687,18 13.3774,18 2.96896,0 5.32671,-1.1854 7.95594,-4 3.84894,-4.12031 9.33333,-5.4012 9.33333,-2.17981 0,3.0757 -5.54479,9.0709 -10.18104,11.00805 -5.46192,2.28213 -10.61789,2.26787 -15.81896,-0.0437 z m 41.35555,-1.30772 c -3.24222,-3.24221 -3.35555,-3.94303 -3.35555,-20.74949 v -17.39394 h -4.66667 c -4.08889,0 -4.66666,-0.41269 -4.66666,-3.33333 0,-2.92064 0.57777,-3.33333 4.66666,-3.33333 4.55556,0 4.66667,-0.12694 4.66667,-5.33334 0,-5.03704 0.22223,-5.33333 4,-5.33333 3.77777,0 4,0.29629 4,5.33333 0,5.03704 0.22223,5.33334 4,5.33334 3.37777,0 4,0.51852 4,3.33333 0,2.82212 -0.61956,3.33333 -4.03984,3.33333 h -4.03983 l 0.37316,17 0.37318,17 3.74678,0.42963 c 2.98768,0.34259 3.66302,1.01792 3.33334,3.33333 -0.64024,4.49646 -8.04782,4.7239 -12.39124,0.38047 z m 34.78355,1.80533 c -9.49791,-2.84222 -15.21371,-14.01156 -13.70203,-26.77533 1.445,-12.20077 8.08339,-19.67407 18.41061,-20.72611 11.30911,-1.15208 18.58922,5.97415 20.31544,19.88602 l 0.78587,6.33333 H 597.15366 581.0125 l 0.83003,4.33333 c 1.87126,9.7694 13.78994,14.82911 21.20046,9 3.98196,-3.13221 5.44599,-3.30568 7.45627,-0.88344 2.93476,3.53618 -8.34356,10.4506 -16.47796,10.10218 -1.47151,-0.0631 -4.41287,-0.63452 -6.53637,-1.26998 z m 17.04465,-31.61542 c -2.78599,-11.78159 -16.70248,-13.26419 -21.29663,-2.26884 -1.03792,2.48409 -1.88712,4.8358 -1.88712,5.22601 0,0.39023 5.41143,0.70949 12.0254,0.70949 h 12.0254 z m 26.24109,30.6646 c -6.75593,-3.44247 -10.09842,-10.86119 -10.06129,-22.33127 0.0337,-10.40648 2.95892,-18.17269 8.11829,-21.55325 5.08126,-3.32936 12.56106,-3.60683 18.18483,-0.67456 l 5,2.60701 v -11.85627 c 0,-11.7578 0.0277,-11.85626 3.33333,-11.85626 h 3.33334 v 33.33333 33.33333 h -3.33334 c -1.95936,0 -3.33333,-0.76513 -3.33333,-1.85626 0,-1.46639 -1.03939,-1.32636 -4.94859,0.66666 -6.15089,3.13591 -10.41074,3.18494 -16.29324,0.18754 z m 17.7138,-7.60094 c 3.28778,-3.04701 3.52803,-4.0499 3.52803,-14.72728 0,-10.38708 -0.30579,-11.76337 -3.27273,-14.73032 -3.53455,-3.53456 -9.6194,-4.31625 -14.26114,-1.83208 -8.29118,4.43731 -8.47705,28.27152 -0.25773,33.04931 4.30088,2.50004 10.49135,1.73635 14.26357,-1.75963 z M 357.34582,178.01248 v -23.33333 h 3.33334 c 2.46082,0 3.33333,0.70845 3.33333,2.70658 0,2.64783 0.0892,2.64059 4.11171,-0.33333 6.17548,-4.56573 15.94108,-4.25913 20.85799,0.65484 3.66225,3.66008 3.70125,3.88231 4.1526,23.66667 l 0.45561,19.9719 h -4.12228 -4.12229 v -18 c 0,-16.22222 -0.26338,-18.26337 -2.66667,-20.66666 -3.95381,-3.95382 -10.09655,-3.44192 -14.76923,1.23077 -3.8945,3.89451 -3.89744,3.91003 -3.89744,20.66667 v 16.76922 h -3.33333 -3.33334 z m 49.33334,0 v -23.33333 h 3.33333 c 2.46083,0 3.33334,0.70845 3.33334,2.70658 0,2.64783 0.0892,2.64059 4.1117,-0.33333 6.17548,-4.56573 15.94108,-4.25913 20.85799,0.65484 3.66225,3.66008 3.70125,3.88231 4.1526,23.66667 l 0.45561,19.9719 h -4.12228 -4.12229 v -18 c 0,-16.22222 -0.26337,-18.26337 -2.66667,-20.66666 -3.95381,-3.95382 -10.09654,-3.44192 -14.76922,1.23077 -3.89451,3.89451 -3.89744,3.91003 -3.89744,20.66667 v 16.76922 h -3.33334 -3.33333 z m 180.00001,-61.80442 c 22.46061,-8.70834 37.31481,-31.746273 35.66822,-55.319181 -1.68322,-24.097415 -17.05689,-43.433241 -40.09753,-50.43162 -22.46783,-6.8243957 -47.62015,2.029172 -61.26975,21.56684 -21.51996,30.803073 -6.98769,73.606571 28.9818,85.363271 10.4218,3.40639 26.19658,2.89972 36.71726,-1.17931 z M 544.78668,80.528184 c -10.42826,-11.00196 -10.52846,-11.173929 -8.08374,-13.875313 2.46924,-2.728479 2.49637,-2.714501 10.90398,5.61838 l 8.42859,8.353663 21.29526,-21.264059 c 20.29926,-20.269524 21.38793,-21.141308 23.27669,-18.639551 1.08979,1.44348 1.85175,3.055724 1.69324,3.582766 -0.26243,0.872549 -46.66316,47.935865 -46.86704,47.536276 -0.0483,-0.09467 -4.83944,-5.185147 -10.64698,-11.312162 z"
     id="path44"
     inkscape:connector-curvature="0" />
</svg>
