<?xml version="1.0" encoding="UTF-8" standalone="no"?>
<!-- Created with Inkscape (http://www.inkscape.org/) -->

<svg
   xmlns:dc="http://purl.org/dc/elements/1.1/"
   xmlns:cc="http://creativecommons.org/ns#"
   xmlns:rdf="http://www.w3.org/1999/02/22-rdf-syntax-ns#"
   xmlns:svg="http://www.w3.org/2000/svg"
   xmlns="http://www.w3.org/2000/svg"
   xmlns:sodipodi="http://sodipodi.sourceforge.net/DTD/sodipodi-0.dtd"
   xmlns:inkscape="http://www.inkscape.org/namespaces/inkscape"
   version="1.1"
   id="svg88"
   width="400"
   height="389.33334"
   viewBox="0 0 400 389.33334"
   sodipodi:docname="player_ico.svg"
   inkscape:version="0.92.1 r15371">
  <metadata
     id="metadata94">
    <rdf:RDF>
      <cc:Work
         rdf:about="">
        <dc:format>image/svg+xml</dc:format>
        <dc:type
           rdf:resource="http://purl.org/dc/dcmitype/StillImage" />
        <dc:title></dc:title>
      </cc:Work>
    </rdf:RDF>
  </metadata>
  <defs
     id="defs92" />
  <sodipodi:namedview
     pagecolor="#ffffff"
     bordercolor="#666666"
     borderopacity="1"
     objecttolerance="10"
     gridtolerance="10"
     guidetolerance="10"
     inkscape:pageopacity="0"
     inkscape:pageshadow="2"
     inkscape:window-width="1920"
     inkscape:window-height="1001"
     id="namedview90"
     showgrid="false"
     inkscape:zoom="1.7144917"
     inkscape:cx="222.91587"
     inkscape:cy="174.64391"
     inkscape:window-x="-9"
     inkscape:window-y="-9"
     inkscape:window-maximized="1"
     inkscape:current-layer="svg88" />
  <path
     style="fill:#000000;stroke-width:1.33333337"
     d="M 172.83347,388.48108 C 86.066451,385.58325 22.682213,371.04537 12.706339,351.75415 7.9566688,342.5693 13.548021,320.39634 24.461474,305.13819 36.015949,288.98385 57.363591,272.01142 77.790731,262.73882 l 8.30862,-3.77157 8.03373,6.99413 c 16.606439,14.45752 42.124089,28.52775 61.123099,33.7028 7.7748,2.11775 9.73737,3.29468 13.56983,8.13776 5.91769,7.47816 10.12144,10.65761 18.0988,13.68877 18.80008,7.14347 40.15481,-2.05657 48.84781,-21.0446 4.3836,-9.57504 3.9994,-23.11798 -0.93295,-32.8858 -11.47189,-22.71844 -41.15693,-28.51666 -60.23548,-11.76548 l -4.76048,4.17975 -7.2769,-2.50361 C 136.38979,248.46475 113.16608,229.71075 98.997231,206.13621 89.328971,190.04989 83.983321,168.63858 83.983321,146 c 0,-33.77707 10.6131,-59.520773 34.080179,-82.666665 23.26095,-22.942593 49.96241,-34.000001 82.10331,-34.000001 32.14089,0 58.84236,11.057408 82.1033,34.000001 17.41986,17.181425 27.21608,34.920485 31.98038,57.910185 2.485,11.99114 2.77346,34.6781 0.59377,46.69758 -4.18468,23.07556 -15.55723,48.14505 -30.29624,66.78461 -4.71964,5.96867 -8.38619,10.9969 -8.14785,11.17386 0.23832,0.17696 6.7333,2.2901 14.4333,4.69588 38.71062,12.09469 68.13259,30.90762 84.81883,54.23466 11.00927,15.39075 16.71656,37.75483 11.97497,46.92404 -8.4348,16.31113 -59.40249,30.48826 -125.3168,34.85805 -22.36993,1.48301 -70.76497,2.49382 -89.477,1.86888 z m 20.71539,-80.71319 c -6.98477,-2.00404 -11.28732,-5.65498 -14.87109,-12.61894 -3.13322,-6.08841 -3.55955,-6.3807 -12.54387,-8.59985 -27.20872,-6.72061 -49.95237,-19.60345 -69.460369,-39.34493 -18.08964,-18.30612 -30.28864,-40.11086 -37.54341,-67.1058 -3.03081,-11.2776 -3.43055,-15.32855 -3.43055,-34.76503 0,-19.54477 0.39054,-23.45489 3.4994,-35.03647 3.84754,-14.333412 12.58429,-33.88994 20.50266,-45.893585 2.80696,-4.255138 10.19606,-13.039101 16.42023,-19.519915 C 151.29411,-12.563876 241.8909,-14.44223 300.02609,40.655801 323.15777,62.579009 337.86627,90.160842 343.40435,122 c 1.148,6.6 2.08919,14.55 2.09154,17.66667 l 0.004,5.66667 h -6 -6 v -5.15868 c 0,-2.83728 -0.88067,-10.18728 -1.95703,-16.33334 -7.49933,-42.821192 -34.74829,-79.175186 -73.3763,-97.894473 -36.97884,-17.9200871 -79.02116,-17.9200871 -116,0 C 72.316751,59.796329 46.007988,146.70307 85.491501,213.16367 c 18.404629,30.97959 49.609639,54.04222 83.966799,62.05719 l 8.08962,1.88719 1.97458,-3.81843 c 5.34886,-10.34356 20.18678,-14.96572 30.7447,-9.57731 6.39377,3.26318 9.17405,6.22614 11.8485,12.627 2.76623,6.62051 2.58019,12.39198 -0.61201,18.98618 -3.11133,6.42716 -8.14739,10.516 -15.449,12.54326 -6.02093,1.67168 -6.33697,1.66914 -12.50608,-0.1008 z"
     id="path100"
     inkscape:connector-curvature="0" />
</svg>
