<?xml version="1.0" encoding="UTF-8" standalone="no"?>
<!-- Created with Inkscape (http://www.inkscape.org/) -->

<svg
   xmlns:dc="http://purl.org/dc/elements/1.1/"
   xmlns:cc="http://creativecommons.org/ns#"
   xmlns:rdf="http://www.w3.org/1999/02/22-rdf-syntax-ns#"
   xmlns:svg="http://www.w3.org/2000/svg"
   xmlns="http://www.w3.org/2000/svg"
   xmlns:sodipodi="http://sodipodi.sourceforge.net/DTD/sodipodi-0.dtd"
   xmlns:inkscape="http://www.inkscape.org/namespaces/inkscape"
   version="1.1"
   id="svg10"
   width="682.66669"
   height="682.66669"
   viewBox="0 0 682.66669 682.66669"
   sodipodi:docname="apply.svg"
   inkscape:version="0.92.1 r15371">
  <metadata
     id="metadata16">
    <rdf:RDF>
      <cc:Work
         rdf:about="">
        <dc:format>image/svg+xml</dc:format>
        <dc:type
           rdf:resource="http://purl.org/dc/dcmitype/StillImage" />
        <dc:title></dc:title>
      </cc:Work>
    </rdf:RDF>
  </metadata>
  <defs
     id="defs14" />
  <sodipodi:namedview
     pagecolor="#ffffff"
     bordercolor="#666666"
     borderopacity="1"
     objecttolerance="10"
     gridtolerance="10"
     guidetolerance="10"
     inkscape:pageopacity="0"
     inkscape:pageshadow="2"
     inkscape:window-width="1920"
     inkscape:window-height="1001"
     id="namedview12"
     showgrid="false"
     inkscape:zoom="1.1835937"
     inkscape:cx="341.33334"
     inkscape:cy="341.33334"
     inkscape:window-x="-9"
     inkscape:window-y="-9"
     inkscape:window-maximized="1"
     inkscape:current-layer="svg10" />
  <path
     style="fill:#000000;stroke-width:1.33333337"
     d="m 247.92292,671.8414 c -4.80906,-1.63946 -12.12226,-5.02844 -16.25154,-7.53105 C 226.41311,661.12351 192.63501,628.16947 118.93629,554.32563 8.9288259,444.10153 9.0106759,444.19164 3.1864159,426.8911 c -3.63723999,-10.80415 -3.36344999,-31.34537 0.5598,-42 6.14673,-16.69307 19.3733201,-30.26568 35.9297501,-36.86975 6.32286,-2.52208 10.21344,-3.061 22.32404,-3.09232 16.60655,-0.0429 25.63763,2.22062 36.70766,9.20047 3.649864,2.30131 37.829164,35.31872 75.953994,73.37203 38.12483,38.05331 69.54766,68.93323 69.8285,68.62204 C 244.771,495.81238 312.6786,393.67399 395.39593,269.14936 478.11328,144.62474 548.12039,40.340792 550.96729,37.407255 c 12.97278,-13.367571 30.47769,-21.052562 50.36606,-22.111668 23.15471,-1.233048 42.5217,6.117479 58.76942,22.305289 24.49063,24.400332 29.45392,64.181744 11.60699,93.031344 -2.40702,3.89095 -80.81619,121.98113 -174.2426,262.42261 -187.17832,281.37229 -172.9834,261.53353 -195.08059,272.64379 -19.50948,9.80917 -37.69319,11.86005 -54.46365,6.14278 z"
     id="path20"
     inkscape:connector-curvature="0" />
</svg>
