<?xml version="1.0" encoding="UTF-8" standalone="no"?>
<!-- Created with Inkscape (http://www.inkscape.org/) -->

<svg
   xmlns:dc="http://purl.org/dc/elements/1.1/"
   xmlns:cc="http://creativecommons.org/ns#"
   xmlns:rdf="http://www.w3.org/1999/02/22-rdf-syntax-ns#"
   xmlns:svg="http://www.w3.org/2000/svg"
   xmlns="http://www.w3.org/2000/svg"
   xmlns:sodipodi="http://sodipodi.sourceforge.net/DTD/sodipodi-0.dtd"
   xmlns:inkscape="http://www.inkscape.org/namespaces/inkscape"
   version="1.1"
   id="svg3713"
   width="250"
   height="250"
   viewBox="0 0 250 250"
   sodipodi:docname="ava.svg"
   inkscape:version="0.92.3 (2405546, 2018-03-11)">
  <metadata
     id="metadata3719">
    <rdf:RDF>
      <cc:Work
         rdf:about="">
        <dc:format>image/svg+xml</dc:format>
        <dc:type
           rdf:resource="http://purl.org/dc/dcmitype/StillImage" />
        <dc:title />
      </cc:Work>
    </rdf:RDF>
  </metadata>
  <defs
     id="defs3717" />
  <sodipodi:namedview
     pagecolor="#ffffff"
     bordercolor="#666666"
     borderopacity="1"
     objecttolerance="10"
     gridtolerance="10"
     guidetolerance="10"
     inkscape:pageopacity="0"
     inkscape:pageshadow="2"
     inkscape:window-width="1920"
     inkscape:window-height="1001"
     id="namedview3715"
     showgrid="false"
     inkscape:zoom="4.5707382"
     inkscape:cx="134.81782"
     inkscape:cy="134.23605"
     inkscape:window-x="-9"
     inkscape:window-y="-9"
     inkscape:window-maximized="1"
     inkscape:current-layer="svg3713" />
  <path
     inkscape:connector-curvature="0"
     id="path4375"
     d="M 114.5,246.89415 C 94.516968,245.32104 75.246153,238.71424 58,227.5237 49.371413,221.92485 31.811025,204.37296 25.185141,194.72471 -0.30797138,157.60304 -3.7663225,111.2311 15.995224,71.5 27.13445,49.104299 41.972524,33.034732 63.353761,20.21092 84.16277,7.7303127 112.16511,1.4159675 135.7518,3.8856355 166.64579,7.1204221 192.11615,19.634908 213.51099,42.091464 235.25322,64.912653 246.35162,92.931357 246.35162,125 c 0,34.58384 -12.13795,62.67195 -38.4894,89.06736 -23.61795,23.65734 -57.68459,35.6354 -93.36222,32.82679 z"
     style="fill:#dcdde1" />
  <path
     inkscape:connector-curvature="0"
     id="path4363"
     d="m 111.99802,246.65182 c -20.290596,-2.30473 -45.427246,-12.15499 -58.079456,-22.7595 -3.22481,-2.70289 -3.40469,-3.22593 -4.38686,-12.75587 -0.72039,-6.98993 -0.70241,-11.66757 0.0606,-15.77065 4.06822,-21.87575 21.33454,-34.49003 49.84052,-36.41207 l 9.151606,-0.61705 4.8484,6.80829 c 8.26542,11.60658 9.16995,12.48043 12.91861,12.48043 3.09123,0 4.07383,-0.85593 11.06735,-9.64056 l 7.67493,-9.64056 9.09375,0.61325 c 27.93047,1.88355 45.53552,14.53537 49.63192,35.66787 1.11723,5.76356 0.39958,20.23391 -1.14956,23.17922 -2.35135,4.47051 -23.4815,17.04994 -37.50725,22.32922 -14.44197,5.43594 -37.64567,8.28072 -53.1646,6.51798 z m 0.55495,-100.37107 c -17.095246,-5.8261 -28.092206,-18.94759 -30.866756,-36.82998 -2.61533,-16.856215 5.00537,-34.257815 19.134466,-43.692855 22.59508,-15.088416 51.79824,-8.473788 65.63896,14.867481 7.99625,13.485007 7.55382,33.167304 -1.05198,46.799774 -11.03711,17.48392 -33.43446,25.47403 -52.85469,18.85558 z"
     style="fill:#808187" />
</svg>
