<?xml version="1.0" encoding="UTF-8" standalone="no"?>
<!-- Generator: Adobe Illustrator 17.1.0, SVG Export Plug-In . SVG Version: 6.00 Build 0)  -->

<svg viewBox="0 0 1599.8 871.9" version="1.1" xmlns="http://www.w3.org/2000/svg" xmlns:xlink="http://www.w3.org/1999/xlink" xmlns:sketch="http://www.bohemiancoding.com/sketch/ns">


<path
   style="fill:#0669b2;stroke-width:0.99901479"
   d="m 433.68538,869.88133 c -0.8244,-0.50337 -3.71021,-1.91016 -6.41291,-3.12618 -6.39674,-2.87807 -15.59278,-11.99505 -18.47187,-18.31308 -1.2516,-2.74658 -2.79723,-6.07521 -3.43474,-7.39695 -0.66505,-1.37887 -1.14096,-6.913 -1.11654,-12.98381 0.0349,-8.66108 0.43437,-11.43679 2.20216,-15.29978 l 2.15961,-4.71914 -3.20144,-1.48515 c -1.76079,-0.81683 -6.57399,-2.67323 -10.696,-4.12535 -4.12201,-1.45212 -8.84358,-3.24844 -10.49239,-3.99182 -1.6488,-0.74338 -7.26972,-2.90866 -12.49094,-4.81173 -5.22121,-1.90306 -14.21468,-5.2618 -19.9855,-7.46384 -38.43771,-14.6672 -51.83689,-19.727 -62.81784,-23.7213 -5.14613,-1.8719 -10.76705,-4.056 -12.49093,-4.85356 -1.72387,-0.79756 -7.63106,-3.09197 -13.12707,-5.09868 -5.49601,-2.00672 -14.48949,-5.35612 -19.9855,-7.44312 -17.41555,-6.61321 -31.16024,-11.84107 -41.71974,-15.86828 -12.63051,-4.81707 -28.19035,-10.70861 -40.72045,-15.41832 -5.22122,-1.96249 -14.8892,-5.6499 -21.48442,-8.19423 -6.59521,-2.54433 -16.37693,-6.22146 -21.73713,-8.17142 l -9.74584,-3.54538 -5.46338,5.16434 c -3.015193,2.85017 -8.499233,6.59449 -12.238214,8.35586 -6.377737,3.00445 -7.448411,3.19304 -18.266501,3.21752 -11.259722,0.0255 -11.64532,-0.049 -19.10468,-3.69372 -8.969299,-4.38238 -16.74001,-12.12873 -21.365961,-21.29896 -2.8362,-5.62233 -2.997825,-6.59169 -2.997825,-17.97993 0,-11.70695 0.09303,-12.2204 3.390658,-18.71387 1.864863,-3.67216 4.936481,-8.48166 6.825821,-10.68778 4.384231,-5.11932 15.218914,-11.56351 22.109324,-13.15006 l 5.345375,-1.2308 -0.608449,-3.55091 c -0.334649,-1.953 -0.901837,-42.7054 -1.260421,-90.56089 l -0.65197,-87.00997 -5.583868,-1.74704 c -7.573152,-2.36943 -9.767333,-3.5916 -15.479546,-8.62214 -6.064186,-5.34051 -11.422079,-13.56091 -13.208159,-20.26472 -1.751743,-6.57495 -1.7323,-18.64821 0.04075,-25.30497 2.798541,-10.50685 15.288598,-24.27816 24.97708,-27.53928 l 4.081657,-1.37387 -0.270032,-7.3934 c -0.148517,-4.06637 -0.737975,-10.7642 -1.309906,-14.88406 -0.57193,-4.11986 -2.61103,-28.61432 -4.531334,-54.43213 -1.920304,-25.81781 -4.342769,-57.05386 -5.383255,-69.41345 -1.040486,-12.35959 -1.91517,-25.05625 -1.94374,-28.21482 l -0.05195,-5.74283 -4.246919,-0.0246 C 29.435822,177.68852 14.663733,169.69007 7.5797588,159.80951 1.6508073,151.53995 0,145.84873 0,133.67801 c 0,-9.83231 0.27419299,-11.47945 2.8596573,-17.1786 3.9773567,-8.7673 8.5675497,-14.07762 16.9861257,-19.650949 6.397896,-4.235583 13.115094,-5.961789 23.199155,-5.961789 18.919087,0 29.831636,6.781038 41.528828,25.805938 0.114195,0.18573 4.627269,-1.02757 10.029053,-2.69623 5.401781,-1.66866 13.643651,-3.97805 18.315261,-5.13198 4.67161,-1.15394 10.29254,-2.75133 12.49094,-3.54978 2.19841,-0.79844 8.94351,-2.78191 14.98913,-4.40771 11.20803,-3.014094 30.13925,-8.332362 56.95867,-16.001163 8.24402,-2.357312 21.05973,-5.980134 28.47934,-8.050718 7.41962,-2.070584 20.01049,-5.617644 27.97971,-7.882356 7.96921,-2.264712 20.78492,-5.87412 28.47934,-8.020908 7.69441,-2.146787 16.01338,-4.539999 18.48658,-5.318248 l 4.49674,-1.415001 0.59594,-7.889569 c 1.17235,-15.520498 10.44455,-29.05229 24.71453,-36.068201 7.57493,-3.724259 7.80746,-3.7688408 19.65691,-3.7688408 h 11.9913 l 7.2583,3.8761638 c 8.56153,4.572131 16.33395,12.512819 20.7214,21.170008 2.83557,5.595077 2.99783,6.563879 2.99783,17.900278 0,11.702156 -0.0825,12.149775 -3.49747,18.963427 -4.44151,8.862004 -11.60707,16.063898 -20.35201,20.455215 -6.06122,3.043671 -7.97315,3.49427 -16.38707,3.862074 -12.16491,0.531774 -18.10597,-0.843567 -26.33991,-6.097632 -6.58538,-4.202115 -14.15521,-11.902944 -15.32664,-15.591879 -0.53914,-1.697816 -1.06563,-1.816995 -4.32279,-0.978538 -2.03988,0.525108 -4.60822,1.361136 -5.70742,1.857842 -1.0992,0.496706 -7.84431,2.480559 -14.98912,4.408562 -7.14482,1.928003 -19.51085,5.365113 -27.48007,7.638022 -7.96922,2.272909 -20.33525,5.679055 -27.48006,7.569213 -7.14482,1.890158 -13.88993,3.870978 -14.98913,4.401821 -1.0992,0.530844 -7.84431,2.520621 -14.98912,4.421718 -7.14482,1.90111 -19.51085,5.31554 -27.48007,7.58761 -7.96922,2.27208 -20.11041,5.65954 -26.98043,7.5277 -6.87001,1.86816 -14.28963,4.04777 -16.48803,4.84359 -2.19841,0.79581 -9.16835,2.79527 -15.48877,4.44325 -6.32041,1.64798 -15.089051,4.08947 -19.485862,5.42552 l -7.9942,2.42919 -0.650279,7.1429 c -0.821378,9.02228 -4.255656,16.22561 -11.426564,23.96702 -2.974781,3.21145 -7.868545,7.10431 -10.926252,8.69157 l -5.538224,2.87489 0.535375,4.99377 c 0.294457,2.74658 1.435044,18.47696 2.53464,34.95641 1.099597,16.47946 2.460043,33.10872 3.023214,36.95393 0.563173,3.8452 2.347593,26.09246 3.965379,49.43835 1.617787,23.34589 3.207472,45.19632 3.532634,48.5565 l 0.591204,6.10941 5.928829,0.53733 c 11.998915,1.08746 26.605076,11.01903 31.342076,21.31128 0.98349,2.13688 2.44767,5.23355 3.25375,6.88149 0.80606,1.64795 1.71928,5.35583 2.02936,8.23973 0.31009,2.8839 0.61331,5.25638 0.67381,5.27219 0.0606,0.0158 7.52964,1.09468 16.59806,2.39752 25.20104,3.62056 51.0692,7.43175 65.45252,9.64318 7.14482,1.09852 24.23242,3.5411 37.97245,5.42793 13.74003,1.88685 26.78057,3.88669 28.97898,4.4441 2.1984,0.55742 14.56443,2.3899 27.48006,4.0722 12.91563,1.6823 25.05683,3.48597 26.98043,4.00816 3.34675,0.90852 25.65625,3.93584 29.0048,3.93584 1.06182,0 2.17332,-1.78048 3.27334,-5.24346 3.43098,-10.80114 16.15257,-22.70377 28.03553,-26.23081 6.52554,-1.93686 19.54166,-1.89515 26.55771,0.0851 11.81115,3.33365 25.13637,16.32258 28.45685,27.73865 2.18367,7.50765 2.06382,20.91754 -0.25347,28.35912 -2.04113,6.55475 -8.37068,15.80395 -13.38467,19.55869 -1.79382,1.34332 -6.18438,3.95522 -9.75678,5.80423 -6.31628,3.2692 -6.82576,3.36185 -18.48659,3.36185 -11.7058,0 -12.15785,-0.0832 -18.98623,-3.49564 -8.18122,-4.08848 -17.1448,-12.57908 -20.42116,-19.34363 -1.23125,-2.54209 -2.73599,-7.23767 -3.34386,-10.43464 l -1.10523,-5.81264 -15.04493,-2.2447 c -40.65779,-6.06615 -70.27869,-10.385 -92.9884,-13.5581 -13.74003,-1.91981 -25.88123,-3.74749 -26.98043,-4.0615 -1.83753,-0.52495 -23.42719,-3.70502 -77.94345,-11.48079 -11.54163,-1.6462 -21.43606,-2.82133 -21.98762,-2.61138 -0.55156,0.20995 -1.627,2.12373 -2.38986,4.25285 -3.64921,10.18479 -13.917839,19.75746 -25.021885,23.32602 -3.639684,1.16971 -7.088046,2.43943 -7.663026,2.8216 -0.720425,0.47885 -0.90495,28.69475 -0.593568,90.76332 l 0.45185,90.06847 4.868129,1.16724 c 5.869512,1.40734 16.13486,7.7681 20.64424,12.79188 1.80558,2.01155 4.93666,6.80344 6.95793,10.64865 3.61607,6.87908 3.67564,7.17883 3.71204,18.67671 0.0255,8.06585 -0.35027,12.07249 -1.21325,12.93502 -1.33192,1.33122 0.22847,2.04868 20.39891,9.37929 5.03576,1.83015 9.98218,3.80874 10.99202,4.39684 1.00986,0.58811 6.10801,2.59435 11.32922,4.45832 5.22122,1.86397 14.32711,5.23138 20.23532,7.48313 5.90822,2.25176 15.5762,5.93644 21.48442,8.18819 5.90821,2.25176 15.01411,5.6369 20.23532,7.52256 5.22121,1.88565 11.29181,4.25047 13.49021,5.25514 2.19841,1.00468 6.47031,2.62075 9.49312,3.59129 3.0228,0.97054 7.43911,2.6319 9.81401,3.69191 2.37489,1.06001 8.44549,3.42994 13.49021,5.26652 9.13259,3.32482 20.67934,7.66726 40.64938,15.28723 36.59316,13.96286 51.50404,19.59984 62.95433,23.79956 5.22121,1.91503 10.84213,4.09064 12.49094,4.83469 1.6488,0.74405 6.37037,2.53288 10.49238,3.97518 4.12201,1.4423 8.39392,3.04985 9.49312,3.57231 1.0992,0.52247 4.92143,2.02329 8.49384,3.33515 l 6.49528,2.38518 6.49529,-4.3782 c 8.30538,-5.59829 14.21872,-7.32601 25.07422,-7.32601 17.69225,0 30.30525,7.31756 39.59483,22.97135 3.14355,5.29717 4.59,13.63067 4.10948,23.67605 -0.35451,7.41082 -0.93997,9.98017 -3.37636,14.8172 -4.35779,8.65168 -12.20831,16.61864 -20.5488,20.85362 -7.00375,3.55623 -7.10541,3.57438 -19.70126,3.51594 -6.96364,-0.0323 -13.33568,-0.47059 -14.16008,-0.97398 z m 26.03848,-14.97659 c 5.94992,-3.03384 11.51604,-8.46887 14.09921,-13.76714 3.49893,-7.17655 3.28905,-18.7117 -0.48002,-26.38312 -3.30339,-6.72356 -8.14281,-11.03431 -15.46274,-13.77353 -21.91648,-8.20148 -44.385,12.61499 -37.84586,35.06314 2.83387,9.72838 9.55215,16.46791 20.49015,20.55497 4.78202,1.78684 13.96065,0.97683 19.19926,-1.69432 z M 85.749329,692.87913 c 5.54605,-3.33776 9.537359,-7.6345 12.750282,-13.72598 1.345689,-2.55132 1.844829,-5.65407 1.847719,-11.48567 0.005,-9.68462 -1.710061,-13.75955 -8.891991,-21.1295 C 81.370008,636.18863 65.648764,635.46714 53.659,644.80342 c -7.054899,5.49356 -10.217478,12.65757 -10.093407,22.86406 0.10884,8.95356 1.64342,13.41121 6.53308,18.97733 3.521892,4.00912 10.42034,8.36381 15.185947,9.58623 6.057922,1.5539 14.652135,0.14626 20.464709,-3.35191 z M 404.96879,469.62247 c 9.71611,-4.29566 17.10372,-15.8173 17.10372,-26.67479 0,-10.55777 -6.83074,-21.53222 -16.57519,-26.63011 -5.6906,-2.97709 -18.48111,-3.19619 -23.77425,-0.40724 -6.87724,3.62359 -10.80906,7.57761 -14.15113,14.23097 -4.66819,9.29343 -4.64858,16.37265 0.0713,25.76071 7.13596,14.19351 23.03585,20.03814 37.32546,13.72046 z M 84.41801,425.5542 c 16.70206,-8.21811 21.45999,-28.1459 10.396412,-43.54363 -3.703226,-5.15397 -8.5719,-8.34564 -16.759758,-10.98688 -4.701237,-1.51653 -6.063017,-1.57442 -10.727438,-0.45603 -11.70645,2.80687 -19.811177,9.99755 -22.869336,20.29012 -2.734475,9.20318 -1.127013,18.69025 4.476905,26.42221 3.478032,4.79877 5.873516,6.5097 13.756155,9.82502 7.416572,3.1193 13.05349,2.71695 21.72706,-1.55081 z M 55.935464,160.12292 c 14.198169,-7.36244 19.731133,-23.82723 13.068075,-38.8875 -2.751399,-6.2189 -6.276551,-9.91163 -12.481972,-13.07536 -10.358611,-5.28116 -23.880721,-3.70933 -31.936476,3.71233 -11.778408,10.8513 -13.557037,25.756 -4.639741,38.88046 3.212375,4.72798 5.131932,6.39347 10.2408,8.88541 3.458064,1.68673 7.186737,3.28431 8.28594,3.55018 4.121643,0.99689 12.447732,-0.46467 17.463374,-3.06552 z M 358.8082,77.298731 c 7.90337,-2.334049 16.08605,-10.675454 18.44479,-18.802574 3.42747,-11.809525 0.20557,-23.106229 -8.85987,-31.064641 -22.7268,-19.9515356 -56.92929,5.607239 -45.16425,33.750271 0.81286,1.944431 3.62684,5.863099 6.25328,8.70815 7.61757,8.251597 17.77931,10.818812 29.32605,7.408794 z M 684.50342,864.42214 v -6.4919 h -4.49674 -4.49674 v -14.48195 -14.48194 h -8.49384 -8.49383 v -7.49066 -7.49066 h 8.49383 8.49384 v -19.9347 -19.93471 l -8.24402,-0.29007 -8.24402,-0.29008 v -7.49066 -7.49066 l 8.24402,-0.29008 8.24402,-0.29008 v -16.93844 -16.93844 h -8.49384 -8.49383 v -7.49066 -7.49066 h 8.49383 8.49384 v -16.97883 -16.97882 h -8.49384 -8.49383 v -7.49066 -7.49066 h 8.49383 8.49384 v -16.97883 -16.97883 h -8.49384 -8.49383 v -7.49066 -7.49066 h 8.49383 8.49384 v -16.47945 -16.47945 h -8.49384 -8.49383 v -7.49066 -7.49066 h 8.49383 8.49384 v -14.48195 -14.48194 h -8.49384 c -7.82765,0 -8.49383,-0.15666 -8.49383,-1.99751 0,-1.96855 -0.66619,-1.99751 -45.96666,-1.99751 h -45.96665 v 15.57937 15.57936 l 2.99783,2.79893 c 2.34594,2.19031 2.99782,3.65124 2.99782,6.71852 0,5.32765 -3.37976,8.53519 -8.99347,8.53519 -8.6895,0 -12.34904,-9.30681 -5.95478,-15.14403 l 3.03869,-2.77397 -0.0823,-17.89388 c -0.0453,-9.84163 -0.0638,-18.45568 -0.0409,-19.14233 0.0327,-0.9812 10.52273,-1.24844 49.00599,-1.24844 48.29829,0 48.96448,-0.0272 48.96448,-1.99751 0,-1.84084 0.66618,-1.99751 8.49383,-1.99751 h 8.49384 V 507.36736 495.3823 h -8.49384 c -6.85012,0 -8.49383,-0.28734 -8.49383,-1.48485 0,-1.27943 -4.66556,-1.52122 -33.72554,-1.74782 l -33.72557,-0.26297 -0.25392,-118.10274 -0.25391,-118.10273 h -28.92945 -28.92947 l -2.49819,2.49688 c -3.45437,3.45258 -9.69628,3.47417 -13.12683,0.0455 -3.51635,-3.51451 -3.42804,-9.6206 0.18018,-12.45734 3.73589,-2.93712 10.30667,-2.8167 13.18126,0.24157 1.19501,1.27136 2.17274,3.06912 2.17274,3.99502 0,1.54423 2.68575,1.68345 32.47644,1.68345 H 597.5665 V 368.54051 485.3948 h 30.47789 30.47789 v -2.49688 c 0,-2.46752 0.0999,-2.49689 8.49383,-2.49689 h 8.49384 V 460.92532 441.4496 h 4.49674 4.49674 v -6.52325 c 0,-4.8771 0.37825,-6.66832 1.49891,-7.09813 1.32276,-0.50733 1.49891,-17.46444 1.49891,-144.28871 V 139.82565 H 666.51648 645.5317 v -12.98381 -12.98381 h -16.94226 c -16.73936,0 -16.97217,0.0299 -19.44044,2.49689 -3.42347,3.42169 -10.27584,3.5164 -13.40687,0.18531 -3.0658,-3.26171 -2.93419,-9.00322 0.28004,-12.21576 3.51285,-3.51104 9.73511,-3.42009 13.08371,0.19123 1.34776,1.45351 2.45047,3.02654 2.45047,3.49564 0,0.4691 2.81046,0.8532 6.24547,0.85353 l 6.24547,6.2e-4 -0.34352,-5.24408 c -0.27917,-4.261747 -0.88753,-5.748026 -3.24765,-7.934353 -2.13231,-1.975302 -2.90412,-3.612536 -2.90412,-6.160531 0,-4.849132 0.81409,-6.482882 4.06857,-8.164962 4.1288,-2.133976 7.36893,-1.797986 10.84388,1.124477 4.31707,3.630675 4.35026,9.147651 0.0766,12.741764 -2.66955,2.245109 -2.99782,3.129777 -2.99782,8.078825 v 5.55763 h 10.99203 10.99202 v 12.48443 12.48443 h 7.49456 7.49457 V 98.377332 62.921542 h -61.51993 -61.51993 l -2.5225,2.996264 c -5.31031,6.307688 -16.33467,2.600336 -16.33467,-5.49315 0,-4.96566 3.84826,-8.489415 9.27121,-8.489415 3.27616,0 4.91422,0.578709 6.54301,2.311569 1.195,1.271363 2.17273,2.844401 2.17273,3.495641 0,0.887867 7.87427,1.184073 31.47716,1.184073 h 31.47717 V 43.445827 27.96513 h 33.92387 33.92387 l 2.69558,-2.496887 c 5.75538,-5.331121 15.39433,-1.242535 15.39433,6.52986 0,3.198317 -0.56958,4.289624 -3.34196,6.403123 -1.83809,1.401243 -4.33362,2.547714 -5.54564,2.547714 -3.55171,0 -8.02109,-2.833384 -8.69356,-5.511317 l -0.62245,-2.47872 h -30.8692 -30.86919 v 12.98381 12.983811 h 30.47789 30.47789 v 37.453299 37.453297 h 11.49166 11.49166 v 146.74747 146.74747 l 2.24837,0.31915 c 2.04292,0.28999 2.27537,0.93518 2.54385,7.06075 l 0.29547,6.74159 h 4.45108 4.45108 v -6.52325 c 0,-4.8771 0.37826,-6.66832 1.49892,-7.09813 1.32572,-0.50847 1.49891,-24.56669 1.49891,-208.20901 V 11.985056 H 610.55706 508.63101 v 5.306292 c 0,4.592132 0.40346,5.692639 2.99782,8.176895 4.23082,4.051269 4.19962,9.298644 -0.0766,12.895027 -3.47495,2.922463 -6.71508,3.258453 -10.84389,1.124477 -3.25317,-1.681388 -4.06859,-3.316095 -4.06859,-8.156351 0,-2.460451 0.76474,-4.170014 2.6441,-5.910842 1.45426,-1.347059 2.9157,-2.449197 3.24764,-2.449197 0.33195,0 0.60354,-2.471918 0.60354,-5.493151 v -5.49315 h -16.73785 -16.73786 v 39.450808 39.450808 h 38.07117 38.07117 l 2.80039,-2.996264 c 3.71524,-3.97511 9.85623,-4.222269 13.53563,-0.544775 3.51635,3.514513 3.42803,9.620601 -0.18018,12.457341 -3.75924,2.955486 -9.73945,2.778646 -12.90123,-0.381489 -1.34902,-1.348319 -2.45277,-2.921357 -2.45277,-3.495641 0,-0.70939 -13.1354,-1.044153 -40.97028,-1.044153 H 464.6629 V 50.437109 5.9925278 H 592.57011 720.47732 V 216.66029 427.32806 l 2.24837,0.31915 c 2.04292,0.28999 2.27537,0.93518 2.54384,7.06075 l 0.29548,6.74159 6.19981,0.002 6.19981,0.002 -0.33096,-6.40096 c -0.29775,-5.75854 -0.12224,-6.46717 1.74874,-7.06069 l 2.07969,-0.65953 V 234.64003 41.947695 h 77.04289 77.0429 l 2.80039,-2.996264 c 5.78716,-6.191951 15.9884,-2.687101 15.9884,5.49315 0,7.752482 -9.94949,11.619713 -15.53418,6.037927 -1.34902,-1.348319 -2.45277,-2.921358 -2.45277,-3.495642 0,-0.574283 -2.02353,-1.044153 -4.49674,-1.044153 h -4.49673 v 20.973848 20.973847 h 21.96824 21.96824 l 0.26563,-27.715441 0.26563,-27.715441 42.21937,-0.260528 42.21933,-0.260529 V 21.462385 10.986301 h -98.92819 -98.92823 v 9.488169 9.488169 H 783.1062 747.80612 l -2.34692,2.496887 c -6.80765,7.242636 -19.15546,-1.468635 -14.58983,-10.292996 1.78346,-3.447035 3.32852,-4.188946 8.72362,-4.188946 3.00203,0 4.55733,0.640864 6.41356,2.642727 1.34776,1.4535 2.45047,3.251258 2.45047,3.995019 0,1.109478 5.83134,1.352291 32.47644,1.352291 h 32.47644 v -7.49066 -7.49066 h -2.99782 c -1.64881,0 -2.99783,0.437898 -2.99783,0.973107 0,0.535208 -1.40365,1.698583 -3.11922,2.585277 -6.25939,3.23517 -13.86846,-0.656436 -13.86846,-7.0929318 C 790.42657,2.1864914 793.22567,0 799.96616,0 c 5.11047,0 5.67519,0.23306286 7.24475,2.9899492 l 1.70225,2.9899491 106.17298,0.00631 106.17296,0.00631 V 21.473225 36.953922 h -41.96954 -41.96955 v 25.468243 25.468243 h 9.25615 c 8.60119,0 9.32596,-0.156977 10.24257,-2.218447 0.54253,-1.220146 2.66456,-2.851077 4.71562,-3.624293 4.69795,-1.771042 9.15734,-0.218598 11.30705,3.936311 2.15803,4.171009 1.78198,6.72384 -1.46918,9.973294 l -2.92095,2.919436 6.66824,0.0013 6.66824,0.0013 -0.33781,-11.568007 c -0.50522,-17.301341 -1.10675,-16.39972 10.94144,-16.39972 8.55282,0 10.44782,-0.300263 12.60662,-1.997509 3.6439,-2.864779 10.2502,-2.706268 13.0891,0.314059 3.0658,3.261709 2.9342,9.00322 -0.28,12.215772 -3.4085,3.40674 -9.673,3.40674 -13.0815,0 -1.349,-1.348318 -2.4527,-2.921357 -2.4527,-3.495641 0,-0.626924 -2.79508,-1.044153 -6.99494,-1.044153 h -6.99492 v 10.986301 10.986301 h 18.00906 18.0089 l -0.2718,18.726648 -0.2719,18.72665 -54.71031,0.25822 -54.71031,0.25821 v 5.984 c 0,3.49695 0.4342,5.984 1.04469,5.984 0.57459,0 2.14845,1.10318 3.49747,2.45149 5.5983,5.59538 1.57681,14.52734 -6.54071,14.52734 -8.54708,0 -12.21778,-9.172 -5.99565,-14.98132 2.64051,-2.46532 2.99783,-3.46544 2.99783,-8.39075 v -5.59181 h -21.40755 -21.40754 l -2.99783,2.99626 c -6.1225,6.11931 -16.14214,2.70963 -16.14214,-5.49315 0,-8.18025 10.20124,-11.6851 15.9884,-5.49315 l 2.80039,2.99626 h 34.57371 34.57371 v -2.45149 c 0,-1.34832 -1.12419,-3.57508 -2.49819,-4.94837 -5.48601,-5.48315 -1.2164,-14.57274 6.8452,-14.57274 5.2185,0 8.64356,3.52846 8.64356,8.90449 0,4.34265 -2.85807,8.07434 -6.18407,8.07434 -1.26462,0 -1.81013,0.75247 -1.81013,2.49689 v 2.49688 h 38.47209 38.47208 V 118.35242 104.86924 H 897.34901 777.436 v 161.22941 161.22941 l 2.24837,0.31915 c 2.04292,0.28999 2.27537,0.93518 2.54384,7.06075 l 0.29548,6.74159 h 4.95072 4.95071 v 19.47572 19.47571 h 7.99421 c 7.86096,0 7.9942,0.0417 7.9942,2.49689 v 2.49688 h 46.96592 46.96593 V 466.81913 448.2435 l -2.99782,-2.79893 c -6.14368,-5.73607 -2.55485,-14.98132 5.81547,-14.98132 5.72831,0 9.17365,3.04508 9.17365,8.10792 0,2.92342 -0.67199,4.63957 -2.5528,6.5194 l -2.55279,2.55147 -0.19521,22.1223 -0.19521,22.12232 -50.21357,0.25893 c -43.71379,0.22541 -50.21357,0.45164 -50.21357,1.74782 0,1.19528 -1.57648,1.48889 -7.9942,1.48889 h -7.99421 v 11.98506 11.98505 h 7.99421 c 7.32801,0 7.9942,0.16646 7.9942,1.99751 0,1.94909 0.66618,1.99751 27.48006,1.99751 h 27.48006 v 48.93898 48.93898 h 4.09582 c 3.26242,0 4.66564,-0.60967 6.89621,-2.99627 2.29542,-2.45598 3.59763,-2.99626 7.22166,-2.99626 5.67065,0 8.76674,2.94873 8.76674,8.3495 0,8.31659 -10.14099,11.88948 -15.9884,5.63306 -2.63635,-2.82075 -3.24519,-2.99626 -10.39367,-2.99626 h -7.59328 v -47.94022 -47.94023 h -23.9826 c -23.31642,0 -23.9826,0.0555 -23.9826,1.99751 0,1.83105 -0.66619,1.99751 -7.9942,1.99751 h -7.99421 v 14.48194 14.48195 h 7.99421 7.9942 v 7.49066 7.49066 h -7.9942 -7.99421 v 16.47945 16.47945 h 7.99421 7.9942 v 7.49066 7.49066 h -7.9942 -7.99421 v 16.97883 16.97883 h 7.99421 7.9942 v 7.49066 7.49066 h -7.9942 -7.99421 v 16.97882 16.97883 h 7.99421 7.9942 v 7.49066 7.49066 h -7.9942 -7.99421 v 16.93682 16.93682 l 7.74439,0.2917 7.74438,0.2917 v 7.49066 7.49066 l -7.74438,0.29169 -7.74439,0.29171 v 19.93308 19.93308 h 7.99421 7.9942 v 7.49066 7.49066 h -7.9942 -7.99421 v 14.48194 14.48195 h -4.99637 -4.99638 v 6.4919 6.49191 h -7.9942 -7.9942 v -6.49191 -6.4919 h -6.49528 -6.49529 v 6.4919 6.49191 h -8.07947 -8.07946 l 0.33508,-6.49401 0.33508,-6.494 -6.24547,0.002 -6.24546,0.002 v 6.4919 6.49191 h -7.99421 -7.9942 v -6.49191 -6.4919 h -4.49673 -4.49674 v 6.4919 6.49191 h -7.9942 -7.9942 v -6.49191 z M 766.44397,434.9263 c 0,-4.8771 0.37826,-6.66832 1.49892,-7.09813 1.32396,-0.50779 1.49891,-19.73938 1.49891,-164.76318 V 98.876709 h 95.85354 95.85353 l -2.99782,-2.996264 -2.99783,-2.996264 H 917.75728 880.36133 V 69.413447 45.942713 H 867.87039 855.37945 V 64.919052 83.89539 h -42.4177 -42.41771 l -2.69559,2.496886 c -3.08283,2.855588 -6.22802,3.153991 -10.41796,0.988418 -5.74348,-2.968529 -6.65171,-8.955764 -2.05541,-13.549678 3.81751,-3.815524 9.06897,-4.010352 12.61322,-0.467948 1.34902,1.348318 2.45277,2.921357 2.45277,3.495641 0,0.672821 4.61984,1.044153 12.99058,1.044153 h 12.99057 v -3.307818 c 0,-2.517241 -0.71649,-3.837262 -2.99782,-5.52305 -4.09923,-3.029111 -4.26746,-9.064799 -0.35372,-12.690046 5.92565,-5.488846 15.34285,-1.695575 15.34285,6.180136 0,3.850359 -3.0554,8.349495 -5.6702,8.349495 -0.8478,0 -1.32473,1.258526 -1.32473,3.495642 v 3.495641 h 23.9826 23.9826 V 61.922788 45.942713 H 799.42005 749.4563 V 236.70485 c 0,190.0963 0.007,190.76214 1.99855,190.76214 1.80821,0 1.99855,0.66584 1.99855,6.99128 v 6.99128 h 6.49529 6.49528 z m 591.07123,433.37482 c -12.6393,-1.2496 -30.8465,-3.695 -36.4736,-4.89873 -27.5214,-5.88731 -42.8375,-10.37531 -65.2638,-19.12398 -7.5907,-2.96116 -14.5607,-5.7886 -15.4888,-6.28322 -0.9281,-0.4946 -7.7582,-3.89168 -15.1778,-7.54904 -36.8149,-18.14725 -68.6709,-41.21404 -99.9749,-72.39138 -34.2807,-34.14185 -60.0092,-69.82411 -81.6195,-113.19609 -15.8718,-31.85476 -24.6813,-55.92885 -34.3344,-93.82662 -5.2795,-20.72696 -6.595,-27.82986 -10.58483,-57.14789 -2.53457,-18.625 -2.72084,-22.43901 -2.75596,-56.42964 -0.0394,-38.07138 0.29243,-42.48373 6.04539,-80.39975 4.3049,-28.37374 18.4153,-77.17687 28.9592,-100.16046 1.44,-3.13914 3.4226,-7.73001 4.4056,-10.20192 3.6676,-9.22234 20.8542,-41.70153 27.4821,-51.93525 15.249,-23.54521 19.3379,-29.30674 31.7982,-44.80523 39.3179,-48.90497 91.2752,-89.331351 146.0679,-113.651046 35.5891,-15.796187 79.4337,-27.151781 117.2474,-30.3666613 17.9324,-1.5245908 62.594,-0.685418 76.1123,1.4301193 16.6157,2.6002437 37.2901,6.508633 42.9688,8.123007 6.8544,1.948568 31.4297,8.593352 47.9652,12.969002 6.8701,1.817956 20.3603,5.429379 29.9783,8.025387 9.618,2.596008 21.7592,5.808933 26.9804,7.139834 17.6182,4.490928 16.9877,4.253976 16.9877,6.383812 0,1.093487 -3.6447,12.649233 -8.0993,25.679436 -4.4547,13.030202 -9.8237,28.85983 -11.9313,35.17695 -2.1075,6.31713 -7.709,22.72167 -12.4476,36.45455 -4.7386,13.73288 -9.7835,28.67674 -11.2109,33.20859 -3.0488,9.6798 -2.6495,9.53857 -15.9058,5.62621 -4.8705,-1.43744 -14.7012,-4.13151 -21.846,-5.98682 -7.1448,-1.85532 -19.7357,-5.1764 -27.9797,-7.38021 -8.244,-2.20381 -21.2846,-5.58943 -28.979,-7.52361 -7.6944,-1.93417 -14.8892,-3.93511 -15.9884,-4.44652 -10.4056,-4.84132 -46.025,-8.3916 -69.4496,-6.92224 -23.3317,1.46353 -47.6108,6.94596 -67.4511,15.23105 -28.254,11.7986 -55.5225,30.40082 -78.4431,53.51289 -65.619,66.16736 -95.2952,162.86814 -80.9441,263.75786 9.3349,65.624 39.3165,125.11941 85.5619,169.78829 24.5326,23.6964 50.8448,40.39021 82.034,52.04658 12.3591,4.61901 36.2207,10.39131 49.0102,11.85596 10.8199,1.23907 42.209,1.33658 42.209,0.13111 0,-0.48697 1.2366,-1.12397 2.748,-1.41557 1.5114,-0.29159 9.7179,-2.39932 18.2368,-4.68382 8.5188,-2.28451 22.2338,-5.87799 30.4779,-7.9855 8.244,-2.10752 22.8584,-5.94182 32.4764,-8.5207 25.0445,-6.71517 21.9734,-6.98064 25.7391,2.22487 1.7678,4.32148 4.3131,10.9866 5.6561,14.81137 1.343,3.82477 4.981,13.69572 8.0845,21.93545 3.1033,8.23972 6.7307,18.12739 8.0606,21.9726 1.3299,3.8452 2.8645,7.89016 3.4101,8.98879 0.5457,1.09863 2.6289,6.49191 4.6293,11.98506 4.6014,12.63592 11.0364,30.08052 15.8421,42.94645 2.0518,5.49315 3.7964,10.61729 3.877,11.38698 0.093,0.89067 -1.67,1.85773 -4.8499,2.66006 -2.748,0.69335 -12.8657,3.36472 -22.4837,5.93641 -9.618,2.57167 -23.3331,6.15407 -30.4779,7.96088 -7.1448,1.8068 -20.635,5.30291 -29.9782,7.76912 -31.0484,8.19546 -44.5226,9.81379 -84.9384,10.20158 -17.5873,0.16876 -33.7755,0.129 -35.9739,-0.0884 z m 126.9571,-25.91818 c 46.093,-11.77806 62.4455,-16.11986 63.0726,-16.74672 0.2359,-0.23583 -1.4162,-5.31338 -3.6714,-11.28345 -2.2553,-5.97006 -5.3941,-14.45018 -6.9752,-18.8447 -1.581,-4.39452 -5.1762,-14.05747 -7.9892,-21.47322 -2.8129,-7.41576 -6.4131,-17.07871 -8.0003,-21.47323 -1.5871,-4.39452 -5.1957,-14.05747 -8.0189,-21.47322 -2.8234,-7.41576 -5.8643,-15.63153 -6.7578,-18.2573 -1.219,-3.58206 -2.0112,-4.62192 -3.1729,-4.16463 -1.4605,0.57487 -12.593,3.48549 -47.5151,12.42294 -8.244,2.10985 -16.563,4.2951 -18.4866,4.8561 -1.9236,0.561 -5.4009,1.51347 -7.7274,2.11661 l -4.2299,1.09662 2.0542,5.20954 c 1.1298,2.86524 3.1109,8.13089 4.4023,11.70144 1.2915,3.57054 4.8815,13.23349 7.9776,21.47322 3.0963,8.23973 7.4669,19.92516 9.7127,25.96762 2.2457,6.04247 5.8438,15.70542 7.9958,21.47323 2.152,5.7678 5.5732,15.09041 7.6024,20.7169 2.0292,5.62649 4.1613,10.23324 4.7379,10.23724 0.5766,0.004 7.3217,-1.59576 14.9892,-3.55499 z m 59.3942,-677.33874 c 1.9952,-6.51257 9.8859,-29.6951 25.7503,-75.653519 4.1712,-12.083754 8.1552,-23.867519 8.8533,-26.186145 l 1.2695,-4.215682 -3.6902,-1.077047 c -2.0296,-0.592376 -11.3345,-3.126005 -20.6778,-5.630288 -9.3432,-2.504282 -23.7327,-6.368357 -31.9768,-8.586833 -28.6905,-7.720635 -39.9748,-10.459524 -40.5845,-9.850499 -1.1266,1.125146 -7.8824,23.548025 -7.858,26.081091 0.013,1.373288 -1.7464,8.114882 -3.9102,14.98132 -2.1637,6.866438 -4.3812,14.731631 -4.9277,17.478206 -0.5465,2.746575 -2.3482,9.038726 -4.0039,13.982566 -1.6556,4.94383 -3.4467,11.23599 -3.98,13.98256 -0.5334,2.74658 -2.168,8.36457 -3.6325,12.48444 -1.4644,4.11986 -2.75,9.02439 -2.8568,10.89895 l -0.1942,3.4083 12.491,3.26822 c 6.87,1.79752 19.3484,5.09527 27.7298,7.32831 8.3815,2.23306 21.8717,5.804 29.9783,7.93542 8.1066,2.13143 15.8635,4.35015 17.2375,4.93047 1.374,0.58033 2.5925,1.08363 2.7078,1.11845 0.1153,0.0349 1.1391,-2.97041 2.2751,-6.67829 z"/>
</svg>