<?xml version="1.0" encoding="UTF-8" standalone="no"?>
<!-- Created with Inkscape (http://www.inkscape.org/) -->

<svg
   xmlns:dc="http://purl.org/dc/elements/1.1/"
   xmlns:cc="http://creativecommons.org/ns#"
   xmlns:rdf="http://www.w3.org/1999/02/22-rdf-syntax-ns#"
   xmlns:svg="http://www.w3.org/2000/svg"
   xmlns="http://www.w3.org/2000/svg"
   xmlns:sodipodi="http://sodipodi.sourceforge.net/DTD/sodipodi-0.dtd"
   xmlns:inkscape="http://www.inkscape.org/namespaces/inkscape"
   version="1.1"
   id="svg22"
   width="1600"
   height="1600"
   viewBox="0 0 1600 1600"
   sodipodi:docname="facebook.svg"
   inkscape:version="0.92.1 r15371">
  <metadata
     id="metadata28">
    <rdf:RDF>
      <cc:Work
         rdf:about="">
        <dc:format>image/svg+xml</dc:format>
        <dc:type
           rdf:resource="http://purl.org/dc/dcmitype/StillImage" />
        <dc:title></dc:title>
      </cc:Work>
    </rdf:RDF>
  </metadata>
  <defs
     id="defs26" />
  <sodipodi:namedview
     pagecolor="#ffffff"
     bordercolor="#666666"
     borderopacity="1"
     objecttolerance="10"
     gridtolerance="10"
     guidetolerance="10"
     inkscape:pageopacity="0"
     inkscape:pageshadow="2"
     inkscape:window-width="1920"
     inkscape:window-height="1001"
     id="namedview24"
     showgrid="false"
     inkscape:zoom="0.417193"
     inkscape:cx="570.44746"
     inkscape:cy="762.45824"
     inkscape:window-x="-9"
     inkscape:window-y="-9"
     inkscape:window-maximized="1"
     inkscape:current-layer="svg22" />
  <path
     style="fill:#000000"
     d="M 127.49999,1596.15 C 78.848886,1589.4428 35.454026,1557.6056 14.409056,1513.1792 9.3397664,1502.4778 4.6207364,1488.4935 2.2607764,1477.1791 0.69295642,1469.6625 0.55543642,1422.9649 0.27572642,803.10303 -0.05505358,70.054051 -0.51402358,125.85423 6.0298664,103.52211 9.8990864,90.317761 18.961466,71.699861 27.149896,60.132801 c 7.85929,-11.10211 23.77052,-27.12804 34.59213,-34.8415 16.81545,-11.98575 38.07509,-21.1475704 58.911964,-25.38804002 8.46678,-1.72305998 37.58959,-1.80022998 679.34598,-1.80022998 641.75643,0 670.87923,0.0772 679.34603,1.80022998 64.6295,13.15261002 112.5101,64.86340002 119.63,129.19976902 0.801,7.23819 1.018,193.66035 0.7854,675 l -0.3213,664.99997 -2.1233,9.5355 c -13.3016,59.7357 -56.6548,103.0833 -116.2813,116.2662 -9.4976,2.0998 -10.3395,2.1095 -211.7855,2.4244 L 1067,1597.6453 V 1264.1242 930.60302 h 116.4809 116.481 l 0.5198,-2.25 c 1.6533,-7.1564 32.7626,-196.83898 32.3506,-197.25103 -0.2744,-0.27443 -60.2157,-0.49896 -133.2028,-0.49896 h -132.7038 l 0.3076,-85.25 c 0.3056,-84.67608 0.3226,-85.30324 2.5368,-93.15843 6.0717,-21.54081 16.4595,-38.95554 32.862,-55.09157 17.6556,-17.36874 41.5234,-29.12131 64.3679,-31.69489 4.675,-0.52667 28.975,-1.03577 54,-1.13134 l 45.5,-0.17377 0.2548,-99.80107 0.2549,-99.80106 -122.2549,0.43722 c -132.4898,0.47382 -128.727,0.32787 -160.29223,6.21738 -37.0261,6.90839 -70.9619,20.09395 -95.2554,37.01087 -45.2901,31.53814 -73.3749,81.37143 -83.965,148.98616 -4.4747,28.56999 -4.7288,36.54089 -5.0278,157.7005 l -0.2856,115.75 h -99.9644 -99.96438 v 100 99.99999 h 100 99.99998 v 333.49998 333.5 l -331.74998,-0.1061 c -258.09536,-0.083 -333.74817,-0.3816 -340.75,-1.3469 z"
     id="path32"
     inkscape:connector-curvature="0" />
</svg>
