<?xml version="1.0" encoding="UTF-8" standalone="no"?>
<!-- Created with Inkscape (http://www.inkscape.org/) -->

<svg
   xmlns:dc="http://purl.org/dc/elements/1.1/"
   xmlns:cc="http://creativecommons.org/ns#"
   xmlns:rdf="http://www.w3.org/1999/02/22-rdf-syntax-ns#"
   xmlns:svg="http://www.w3.org/2000/svg"
   xmlns="http://www.w3.org/2000/svg"
   xmlns:sodipodi="http://sodipodi.sourceforge.net/DTD/sodipodi-0.dtd"
   xmlns:inkscape="http://www.inkscape.org/namespaces/inkscape"
   version="1.1"
   id="svg42"
   width="1437.3333"
   height="1466.6667"
   viewBox="0 0 1437.3333 1466.6667"
   sodipodi:docname="google.svg"
   inkscape:version="0.92.1 r15371">
  <metadata
     id="metadata48">
    <rdf:RDF>
      <cc:Work
         rdf:about="">
        <dc:format>image/svg+xml</dc:format>
        <dc:type
           rdf:resource="http://purl.org/dc/dcmitype/StillImage" />
        <dc:title></dc:title>
      </cc:Work>
    </rdf:RDF>
  </metadata>
  <defs
     id="defs46" />
  <sodipodi:namedview
     pagecolor="#ffffff"
     bordercolor="#666666"
     borderopacity="1"
     objecttolerance="10"
     gridtolerance="10"
     guidetolerance="10"
     inkscape:pageopacity="0"
     inkscape:pageshadow="2"
     inkscape:window-width="1920"
     inkscape:window-height="1001"
     id="namedview44"
     showgrid="false"
     inkscape:zoom="0.55090906"
     inkscape:cx="718.66663"
     inkscape:cy="733.33337"
     inkscape:window-x="-9"
     inkscape:window-y="-9"
     inkscape:window-maximized="1"
     inkscape:current-layer="svg42" />
  <path
     style="fill:#000000;stroke-width:1.33333337"
     d="m 703.33332,1464.0618 c -42.45483,-2.5959 -66.36032,-5.3022 -99.53209,-11.2675 C 421.67388,1420.0415 258.83173,1319.5072 147.11972,1170.8515 78.959963,1080.151 32.515643,973.76323 12.645163,862.81701 4.4371829,816.98805 1.3597029,781.1836 1.3597029,731.51817 c 0,-54.54611 4.08809,-95.85568 14.6588201,-148.12546 C 54.194283,394.62263 168.93238,226.18245 332.35277,119.00126 431.8007,53.777156 537.85027,16.271133 661.37502,2.6375969 688.67368,-0.37538014 771.89448,-0.81769214 799.33331,1.9043599 923.5693,14.229107 1034.4464,52.902344 1135.0534,119.00147 c 32.2232,21.17071 74.4331,53.73506 86.9021,67.04375 l 3.9556,4.22194 -101.9523,101.95884 c -56.0738,56.07735 -102.4123,101.95883 -102.9747,101.95883 -0.5622,0 -6.4538,-4.23796 -13.0922,-9.41768 -54.916,-42.84878 -114.9471,-71.24772 -181.22525,-85.73234 -120.62927,-26.36266 -248.70078,0.0344 -349.50719,72.03749 -109.89987,78.4983 -178.72173,203.16928 -185.07811,335.2694 -2.07648,43.15431 0.85674,82.70034 8.79015,118.50981 18.91757,85.38936 59.01982,158.65512 120.42834,220.01959 69.65184,69.6018 155.29827,111.8163 256.03348,126.1972 23.76516,3.3926 92.11012,3.4222 115.99999,0.05 68.47512,-9.6654 125.12459,-30.0173 174.38159,-62.6484 20.5948,-13.6434 28.3111,-19.6358 47.851,-37.1604 33.2984,-29.8641 62.81,-67.8252 84.8357,-109.12472 11.1044,-20.82127 26.6037,-57.69844 30.9618,-73.66667 l 1.7285,-6.33333 H 933.2065 733.32104 l 0.33946,-139.53923 0.33948,-139.53923 181.33332,0.20496 c 99.7333,0.1128 255.2199,0.59717 345.5257,1.07655 l 164.1923,0.87157 2.8157,18.12936 c 10.1651,65.45122 11.6516,127.70352 4.7628,199.46269 -7.2272,75.28405 -30.0725,165.69488 -59.4841,235.41025 -8.0761,19.1432 -29.2788,62.007 -41.0638,83.0157 -24.9211,44.4258 -60.8899,92.1656 -97.9939,130.0631 -71.0991,72.6194 -151.0751,122.4069 -248.7547,154.8569 -57.5156,19.1072 -112.00207,29.8423 -179.07959,35.2825 -23.96234,1.9435 -87.35349,3.5336 -102.92039,2.5818 z"
     id="path52"
     inkscape:connector-curvature="0" />
</svg>
