<?xml version="1.0" encoding="UTF-8" standalone="no"?>
<!-- Created with Inkscape (http://www.inkscape.org/) -->

<svg
   xmlns:dc="http://purl.org/dc/elements/1.1/"
   xmlns:cc="http://creativecommons.org/ns#"
   xmlns:rdf="http://www.w3.org/1999/02/22-rdf-syntax-ns#"
   xmlns:svg="http://www.w3.org/2000/svg"
   xmlns="http://www.w3.org/2000/svg"
   xmlns:sodipodi="http://sodipodi.sourceforge.net/DTD/sodipodi-0.dtd"
   xmlns:inkscape="http://www.inkscape.org/namespaces/inkscape"
   version="1.1"
   id="svg10"
   width="320"
   height="320"
   viewBox="0 0 320 320"
   sodipodi:docname="logo.svg"
   inkscape:version="0.92.1 r15371">
  <metadata
     id="metadata16">
    <rdf:RDF>
      <cc:Work
         rdf:about="">
        <dc:format>image/svg+xml</dc:format>
        <dc:type
           rdf:resource="http://purl.org/dc/dcmitype/StillImage" />
        <dc:title></dc:title>
      </cc:Work>
    </rdf:RDF>
  </metadata>
  <defs
     id="defs14" />
  <sodipodi:namedview
     pagecolor="#ffffff"
     bordercolor="#666666"
     borderopacity="1"
     objecttolerance="10"
     gridtolerance="10"
     guidetolerance="10"
     inkscape:pageopacity="0"
     inkscape:pageshadow="2"
     inkscape:window-width="1920"
     inkscape:window-height="1001"
     id="namedview12"
     showgrid="false"
     inkscape:zoom="2.525"
     inkscape:cx="160"
     inkscape:cy="160"
     inkscape:window-x="-9"
     inkscape:window-y="-9"
     inkscape:window-maximized="1"
     inkscape:current-layer="svg10" />
  <g
     id="g68"
     transform="translate(-2.3762368,-0.79208169)">
    <path
       style="fill:#fce59f;stroke-width:0.31999999"
       d="m 158.23526,239.00574 c -0.70139,-0.37084 -1.99526,-1.21815 -2.87526,-1.8829 -0.88,-0.66476 -1.96,-1.31599 -2.4,-1.44719 -3.22977,-0.96302 -4.98348,-2.71999 -6.34546,-6.35723 -0.38752,-1.03487 -1.29279,-2.58414 -2.01173,-3.44283 -1.426,-1.70321 -2.20281,-3.78047 -2.20281,-5.89054 0,-1.03055 -0.27503,-1.75306 -1.15338,-3.02996 -1.55112,-2.25492 -2.04662,-3.53342 -2.04662,-5.2807 0,-1.76586 0.6913,-3.22553 1.67649,-3.53991 1.15484,-0.36851 2.9417,-0.18894 4.4484,0.44704 1.46337,0.6177 4.56378,1.4911 9.39511,2.64667 2.52859,0.60479 3.52426,0.67031 8.16,0.53696 3.71399,-0.10684 5.65964,-0.3 6.56,-0.65125 0.704,-0.27465 1.712,-0.5927 2.24,-0.70679 0.528,-0.11409 2.23778,-0.70977 3.79951,-1.32374 4.4508,-1.74976 6.30291,-1.24511 6.80589,1.85444 0.24012,1.47964 -0.90198,3.99547 -2.73385,6.02219 -1.26207,1.39632 -1.3017,1.50866 -1.30655,3.70367 -0.005,2.06977 -0.10094,2.39862 -1.125,3.83898 -0.99491,1.39937 -1.12,1.80056 -1.12,3.59222 0,3.1642 -0.77401,4.21633 -4.7573,6.46674 -1.29651,0.73248 -3.16254,1.98767 -4.14673,2.7893 -0.98419,0.80163 -2.25878,1.65361 -2.83242,1.8933 -1.60636,0.67118 -4.52629,0.55567 -6.02829,-0.23847 z M 153.76,204.96996 c -2.70186,-0.46976 -6.55766,-1.75649 -9.08207,-3.03081 -2.79254,-1.40967 -4.92611,-3.94456 -7.0189,-8.33915 -7.08669,-14.88113 -10.46679,-21.38155 -14.30989,-27.52 -1.7003,-2.71583 -4.52844,-7.18688 -5.17486,-8.18102 -0.38815,-0.59693 -1.37117,-2.4204 -2.18449,-4.05215 -0.81331,-1.63176 -1.7685,-3.52153 -2.12263,-4.1995 -2.38663,-4.5691 -4.67233,-15.18957 -4.34153,-20.17285 0.22753,-3.42769 1.45867,-11.65248 1.85508,-12.39319 0.1918,-0.35837 0.56603,-1.39626 0.83163,-2.30643 1.1485,-3.93575 5.15477,-11.57039 7.43486,-14.1684 0.63404,-0.722441 1.6568,-1.946441 2.2728,-2.719996 3.31351,-4.161011 9.81323,-9.262784 15.2,-11.930819 3.4904,-1.728771 6.64361,-3.072343 7.24002,-3.084935 0.24199,-0.0051 1.95198,-0.450441 3.79998,-0.989625 3.17736,-0.927047 3.74663,-0.989658 10.47274,-1.151837 6.57074,-0.158429 7.35104,-0.117069 10.24,0.5428 8.42031,1.923283 13.07467,3.80305 18.48726,7.466477 4.99673,3.381961 9.04541,7.072557 12.34307,11.251379 2.2378,2.835776 2.78204,3.723446 5.01651,8.182126 1.86811,3.72763 2.09878,4.3463 3.99256,10.70797 l 1.04786,3.52 -0.006,8.32 c -0.005,7.27644 -0.0786,8.50061 -0.58515,9.76 -0.31858,0.792 -0.9125,2.47017 -1.31983,3.72926 -1.18504,3.66309 -2.37058,6.44011 -4.00169,9.37355 -1.96701,3.53755 -6.55086,11.02842 -7.55076,12.33935 -0.42716,0.56004 -0.77666,1.12227 -0.77666,1.2494 0,0.12712 -0.32942,0.68953 -0.73206,1.24979 -1.51058,2.10195 -3.58159,7.10451 -5.78701,13.97865 -2.85652,8.90353 -4.79317,12.58494 -8.66993,16.48084 -2.02768,2.03768 -4.58643,3.59603 -7.371,4.48914 -0.88,0.28224 -2.032,0.70786 -2.56,0.94581 -2.41789,1.08964 -11.97452,1.46535 -16.64,0.65417 z"
       id="path82"
       inkscape:connector-curvature="0" />
    <path
       style="fill:#b2cacf;stroke-width:0.31999999"
       d="m 158.23526,239.00574 c -0.70139,-0.37084 -1.99526,-1.21815 -2.87526,-1.8829 -0.88,-0.66476 -1.96,-1.31599 -2.4,-1.44719 -3.22977,-0.96302 -4.98348,-2.71999 -6.34546,-6.35723 -0.38752,-1.03487 -1.29279,-2.58414 -2.01173,-3.44283 -1.426,-1.70321 -2.20281,-3.78047 -2.20281,-5.89054 0,-1.03055 -0.27503,-1.75306 -1.15338,-3.02996 -1.55112,-2.25492 -2.04662,-3.53342 -2.04662,-5.2807 0,-1.76586 0.6913,-3.22553 1.67649,-3.53991 1.15484,-0.36851 2.9417,-0.18894 4.4484,0.44704 1.46337,0.6177 4.56378,1.4911 9.39511,2.64667 2.52859,0.60479 3.52426,0.67031 8.16,0.53696 3.71399,-0.10684 5.65964,-0.3 6.56,-0.65125 0.704,-0.27465 1.712,-0.5927 2.24,-0.70679 0.528,-0.11409 2.23778,-0.70977 3.79951,-1.32374 4.4508,-1.74976 6.30291,-1.24511 6.80589,1.85444 0.24012,1.47964 -0.90198,3.99547 -2.73385,6.02219 -1.26207,1.39632 -1.3017,1.50866 -1.30655,3.70367 -0.005,2.06977 -0.10094,2.39862 -1.125,3.83898 -0.99491,1.39937 -1.12,1.80056 -1.12,3.59222 0,3.1642 -0.77401,4.21633 -4.7573,6.46674 -1.29651,0.73248 -3.16254,1.98767 -4.14673,2.7893 -0.98419,0.80163 -2.25878,1.65361 -2.83242,1.8933 -1.60636,0.67118 -4.52629,0.55567 -6.02829,-0.23847 z m -1.81082,-34.23965 c -2.70558,-0.1536 -4.17673,-0.43996 -7.0773,-1.37756 -6.43718,-2.0808 -8.87953,-4.33319 -11.82853,-10.90853 -5.66533,-12.63192 -11.639,-23.55574 -18.98655,-34.72 -0.87255,-1.3258 -3.64711,-6.7613 -3.65003,-7.1506 -9.6e-4,-0.14883 -0.26843,-0.65283 -0.59403,-1.12 -0.32559,-0.46717 -1.1877,-2.6494 -1.9158,-4.8494 -1.75036,-5.28891 -2.75671,-12.35289 -2.30218,-16.16 0.90438,-7.5751 1.33946,-10.53454 1.62799,-11.07364 0.17627,-0.32938 0.6096,-1.53486 0.96294,-2.67885 1.25455,-4.06178 4.89524,-11.014 7.14702,-13.64788 0.54561,-0.63821 1.76404,-2.110756 2.70761,-3.27234 3.28786,-4.047517 9.70613,-8.984864 15.08442,-11.603904 4.91934,-2.395552 5.43901,-2.598592 8.96,-3.500756 1.848,-0.473504 3.936,-1.013091 4.64,-1.199084 0.704,-0.185994 4.52,-0.348381 8.48,-0.360858 6.02364,-0.01898 7.59212,0.07526 9.6,0.576806 6.00178,1.499181 9.78878,2.82793 13.68011,4.799959 1.98285,1.004861 7.24225,4.530073 8.43507,5.653766 0.45935,0.43273 1.74234,1.578781 2.85108,2.546781 1.10874,0.968 2.2643,2.028614 2.5679,2.356922 1.80311,1.949865 4.78584,5.794308 4.78584,6.168468 0,0.12332 0.20011,0.45155 0.44468,0.72941 1.19357,1.35602 5.31532,10.49367 5.31532,11.78373 0,0.33515 0.36496,1.67859 0.81103,2.98542 1.0942,3.20564 1.54016,8.00368 1.33619,14.37605 -0.16383,5.118 -0.20963,5.40273 -1.49278,9.28 -0.72807,2.2 -1.68624,4.91125 -2.12927,6.025 -0.88315,2.22016 -4.13256,8.30779 -5.69571,10.67067 -0.54421,0.82262 -1.34946,2.10383 -1.78946,2.84715 -0.44,0.74331 -1.664,2.66617 -2.72,4.273 -2.85142,4.3388 -4.63806,8.4211 -7.22316,16.50418 -2.65521,8.30235 -4.37138,11.61482 -8.06103,15.55907 -1.85264,1.98047 -4.85278,3.92506 -7.00296,4.53907 -0.59007,0.1685 -1.86485,0.62562 -2.83285,1.01582 -2.06548,0.83259 -8.46075,1.25431 -14.13556,0.93213 z"
       id="path80"
       inkscape:connector-curvature="0" />
    <path
       style="fill:#fbd45d;stroke-width:0.31999999"
       d="m 159.53736,239.12735 c -0.75316,-0.19161 -2.80889,-1.46501 -4.33736,-2.68674 -0.616,-0.49237 -1.7522,-1.11768 -2.52489,-1.38956 -3.12201,-1.09853 -4.1745,-2.20402 -5.62698,-5.91031 -0.4138,-1.05588 -1.3145,-2.60849 -2.00158,-3.45026 -1.61915,-1.9837 -1.96027,-2.84061 -2.21291,-5.55889 -0.16903,-1.81868 -0.38695,-2.4669 -1.15221,-3.42724 -1.85726,-2.33073 -2.49836,-4.63383 -1.84281,-6.62017 0.71059,-2.15311 1.74225,-2.22762 7.11892,-0.51414 7.67162,2.44486 9.12875,2.67608 15.85453,2.51591 4.65599,-0.11088 6.25257,-0.26087 7.17765,-0.67428 0.65435,-0.29242 1.49025,-0.53167 1.85756,-0.53167 0.36731,0 1.27193,-0.26953 2.01028,-0.59896 2.41872,-1.07918 5.03199,-1.96104 5.81122,-1.96104 1.11709,0 2.09272,1.40581 2.08419,3.00316 -0.009,1.72049 -0.85559,3.50392 -2.58986,5.45692 -1.37587,1.5494 -1.40311,1.62395 -1.40311,3.84 0,2.10229 -0.0857,2.3825 -1.22852,4.0173 -1.06814,1.52794 -1.20301,1.91698 -1.03304,2.97993 0.42654,2.66738 -1.03498,4.9217 -4.12218,6.35825 -1.40442,0.65352 -2.32686,1.27304 -5.08635,3.41612 -2.22443,1.72752 -4.49278,2.31058 -6.75255,1.73567 z m -3.11292,-34.36126 c -2.70558,-0.1536 -4.17673,-0.43996 -7.0773,-1.37756 -6.43718,-2.0808 -8.87953,-4.33319 -11.82853,-10.90853 -5.66533,-12.63192 -11.639,-23.55574 -18.98655,-34.72 -0.87255,-1.3258 -3.64711,-6.7613 -3.65003,-7.1506 -9.6e-4,-0.14883 -0.26843,-0.65283 -0.59403,-1.12 -0.32559,-0.46717 -1.1877,-2.6494 -1.9158,-4.8494 -1.75036,-5.28891 -2.75671,-12.35289 -2.30218,-16.16 0.90438,-7.5751 1.33946,-10.53454 1.62799,-11.07364 0.17627,-0.32938 0.6096,-1.53486 0.96294,-2.67885 1.25455,-4.06178 4.89524,-11.014 7.14702,-13.64788 0.54561,-0.63821 1.76404,-2.110756 2.70761,-3.27234 3.28786,-4.047517 9.70613,-8.984864 15.08442,-11.603904 4.91934,-2.395552 5.43901,-2.598592 8.96,-3.500756 1.848,-0.473504 3.936,-1.013091 4.64,-1.199084 0.704,-0.185994 4.52,-0.348381 8.48,-0.360858 6.02364,-0.01898 7.59212,0.07526 9.6,0.576806 6.00178,1.499181 9.78878,2.82793 13.68011,4.799959 1.98285,1.004861 7.24225,4.530073 8.43507,5.653766 0.45935,0.43273 1.74234,1.578781 2.85108,2.546781 1.10874,0.968 2.2643,2.028614 2.5679,2.356922 1.80311,1.949865 4.78584,5.794308 4.78584,6.168468 0,0.12332 0.20011,0.45155 0.44468,0.72941 1.19357,1.35602 5.31532,10.49367 5.31532,11.78373 0,0.33515 0.36496,1.67859 0.81103,2.98542 1.0942,3.20564 1.54016,8.00368 1.33619,14.37605 -0.16383,5.118 -0.20963,5.40273 -1.49278,9.28 -0.72807,2.2 -1.68624,4.91125 -2.12927,6.025 -0.88315,2.22016 -4.13256,8.30779 -5.69571,10.67067 -0.54421,0.82262 -1.34946,2.10383 -1.78946,2.84715 -0.44,0.74331 -1.664,2.66617 -2.72,4.273 -2.85142,4.3388 -4.63806,8.4211 -7.22316,16.50418 -2.65521,8.30235 -4.37138,11.61482 -8.06103,15.55907 -1.85264,1.98047 -4.85278,3.92506 -7.00296,4.53907 -0.59007,0.1685 -1.86485,0.62562 -2.83285,1.01582 -2.06548,0.83259 -8.46075,1.25431 -14.13556,0.93213 z"
       id="path78"
       inkscape:connector-curvature="0" />
    <path
       style="fill:#8bafb7;stroke-width:0.31999999"
       d="m 159.53736,239.12735 c -0.75316,-0.19161 -2.80889,-1.46501 -4.33736,-2.68674 -0.616,-0.49237 -1.7522,-1.11768 -2.52489,-1.38956 -3.12201,-1.09853 -4.1745,-2.20402 -5.62698,-5.91031 -0.4138,-1.05588 -1.3145,-2.60849 -2.00158,-3.45026 -1.61915,-1.9837 -1.96027,-2.84061 -2.21291,-5.55889 -0.16903,-1.81868 -0.38695,-2.4669 -1.15221,-3.42724 -1.85726,-2.33073 -2.49836,-4.63383 -1.84281,-6.62017 0.71059,-2.15311 1.74225,-2.22762 7.11892,-0.51414 7.67162,2.44486 9.12875,2.67608 15.85453,2.51591 4.65599,-0.11088 6.25257,-0.26087 7.17765,-0.67428 0.65435,-0.29242 1.49025,-0.53167 1.85756,-0.53167 0.36731,0 1.27193,-0.26953 2.01028,-0.59896 2.41872,-1.07918 5.03199,-1.96104 5.81122,-1.96104 1.11709,0 2.09272,1.40581 2.08419,3.00316 -0.009,1.72049 -0.85559,3.50392 -2.58986,5.45692 -1.37587,1.5494 -1.40311,1.62395 -1.40311,3.84 0,2.10229 -0.0857,2.3825 -1.22852,4.0173 -1.06814,1.52794 -1.20301,1.91698 -1.03304,2.97993 0.42654,2.66738 -1.03498,4.9217 -4.12218,6.35825 -1.40442,0.65352 -2.32686,1.27304 -5.08635,3.41612 -2.22443,1.72752 -4.49278,2.31058 -6.75255,1.73567 z m -4.12343,-34.68593 c -3.17435,-0.30561 -8.15871,-1.80309 -10.64698,-3.19872 -1.80774,-1.01393 -4.22616,-3.43121 -5.1148,-5.1124 -0.31698,-0.59966 -1.53554,-3.1063 -2.70791,-5.5703 -4.83424,-10.16024 -5.89964,-12.32058 -7.73276,-15.68 -2.45317,-4.49571 -4.15994,-7.42743 -5.96147,-10.24 -4.35667,-6.80168 -4.43201,-6.92625 -6.35789,-10.51171 -0.74202,-1.38145 -1.44519,-2.82145 -1.5626,-3.2 -0.11742,-0.37856 -0.46025,-1.04829 -0.76185,-1.48829 -1.23124,-1.79623 -3.15006,-8.47286 -3.86959,-13.46448 -0.64097,-4.44655 -0.67271,-5.2367 -0.32039,-7.97552 0.21508,-1.672 0.58796,-4.57943 0.82862,-6.46095 0.24065,-1.88152 0.64434,-3.82552 0.89708,-4.32 0.25274,-0.49448 0.56759,-1.40018 0.69966,-2.01266 0.27459,-1.27338 2.63856,-6.96475 3.19262,-7.68639 0.2027,-0.264 0.99293,-1.56 1.75607,-2.88 0.76315,-1.32 1.9052,-3.00709 2.5379,-3.74909 0.6327,-0.742 1.58236,-1.88772 2.11036,-2.54604 1.5451,-1.92646 4.94068,-5.184883 6.56,-6.29502 0.44,-0.301648 1.88,-1.332989 3.2,-2.291869 2.08903,-1.517527 5.07558,-3.141347 9.76,-5.306627 0.704,-0.325408 1.856,-0.727456 2.56,-0.893437 0.704,-0.165978 2.72,-0.703616 4.48,-1.194749 3.07598,-0.858362 3.49145,-0.893555 10.72,-0.90807 8.01613,-0.0161 7.57461,-0.07479 14.56,1.935638 7.56238,2.17649 14.02433,5.991722 20.54362,12.129264 1.92207,1.809517 1.87937,1.764131 3.21082,3.412557 0.66306,0.820909 1.67356,2.071223 2.24556,2.778483 0.572,0.70725 1.04,1.38137 1.04,1.49804 0,0.11667 0.2685,0.59435 0.59666,1.06152 1.49931,2.1344 5.16334,10.07061 5.16334,11.18368 0,0.34485 0.45418,2.04872 1.00928,3.78636 l 1.00929,3.15936 0.026,7.84 c 0.0175,5.28015 -0.10027,8.25794 -0.36072,9.12 -0.68672,2.27294 -2.32799,6.98506 -3.15995,9.07227 -0.86837,2.17857 -4.25411,8.54657 -5.38471,10.12773 -0.37754,0.528 -1.32189,2.04 -2.09856,3.36 -0.77667,1.32 -1.67678,2.76 -2.00025,3.2 -3.0242,4.11373 -5.02504,8.52338 -7.76805,17.12 -2.78535,8.72933 -4.78306,12.53493 -8.51562,16.22206 -1.66644,1.64617 -5.56118,4.09794 -6.50974,4.09794 -0.20714,0 -1.22944,0.34553 -2.27178,0.76785 -3.28733,1.33189 -9.0565,1.74368 -15.60124,1.11357 z"
       id="path76"
       inkscape:connector-curvature="0" />
    <path
       style="fill:#fbc72d;stroke-width:0.31999999"
       d="m 159.66503,238.75114 c -0.97982,-0.31381 -2.89062,-1.51004 -4.58903,-2.8729 -0.6842,-0.54903 -1.44499,-0.99824 -1.69064,-0.99824 -0.91737,0 -3.61402,-1.62783 -4.39683,-2.65414 -0.44613,-0.58492 -1.18502,-2.06302 -1.64197,-3.28467 -0.47568,-1.27174 -1.29343,-2.69994 -1.91307,-3.34119 -1.39303,-1.44163 -1.99411,-2.91921 -2.26563,-5.56935 -0.18233,-1.77964 -0.42588,-2.42264 -1.4698,-3.88046 -2.27271,-3.17381 -2.35531,-6.55856 -0.17872,-7.32403 0.70505,-0.24795 1.58679,-0.0743 4.47926,0.88225 6.63879,2.19543 9.94999,2.77159 15.92833,2.77159 3.88106,0 5.80885,-0.13845 7.20584,-0.51752 1.04898,-0.28463 2.41123,-0.63319 3.02723,-0.77458 0.616,-0.14139 2.37738,-0.7725 3.91417,-1.40248 3.25896,-1.33595 3.8329,-1.39015 4.71336,-0.44508 1.33097,1.42863 0.67956,4.31304 -1.5177,6.72034 -1.80139,1.97358 -2.02824,2.53881 -1.80051,4.48635 0.18501,1.58215 0.11924,1.80818 -1.00482,3.45297 -1.08342,1.58534 -1.21057,1.98908 -1.28129,4.0684 -0.10617,3.12162 -0.5942,3.76144 -4.46321,5.85134 -1.056,0.57042 -2.568,1.55983 -3.36,2.19869 -0.792,0.63886 -1.88412,1.47223 -2.42693,1.85191 -1.09756,0.76773 -3.9765,1.19443 -5.26804,0.7808 z m -4.2511,-34.30972 c -3.17435,-0.30561 -8.15871,-1.80309 -10.64698,-3.19872 -1.80774,-1.01393 -4.22616,-3.43121 -5.1148,-5.1124 -0.31698,-0.59966 -1.53554,-3.1063 -2.70791,-5.5703 -4.83424,-10.16024 -5.89964,-12.32058 -7.73276,-15.68 -2.45317,-4.49571 -4.15994,-7.42743 -5.96147,-10.24 -4.35667,-6.80168 -4.43201,-6.92625 -6.35789,-10.51171 -0.74202,-1.38145 -1.44519,-2.82145 -1.5626,-3.2 -0.11742,-0.37856 -0.46025,-1.04829 -0.76185,-1.48829 -1.23124,-1.79623 -3.15006,-8.47286 -3.86959,-13.46448 -0.64097,-4.44655 -0.67271,-5.2367 -0.32039,-7.97552 0.21508,-1.672 0.58796,-4.57943 0.82862,-6.46095 0.24065,-1.88152 0.64434,-3.82552 0.89708,-4.32 0.25274,-0.49448 0.56759,-1.40018 0.69966,-2.01266 0.27459,-1.27338 2.63856,-6.96475 3.19262,-7.68639 0.2027,-0.264 0.99293,-1.56 1.75607,-2.88 0.76315,-1.32 1.9052,-3.00709 2.5379,-3.74909 0.6327,-0.742 1.58236,-1.88772 2.11036,-2.54604 1.5451,-1.92646 4.94068,-5.184883 6.56,-6.29502 0.44,-0.301648 1.88,-1.332989 3.2,-2.291869 2.08903,-1.517527 5.07558,-3.141347 9.76,-5.306627 0.704,-0.325408 1.856,-0.727456 2.56,-0.893437 0.704,-0.165978 2.72,-0.703616 4.48,-1.194749 3.07598,-0.858362 3.49145,-0.893555 10.72,-0.90807 8.01613,-0.0161 7.57461,-0.07479 14.56,1.935638 7.56238,2.17649 14.02433,5.991722 20.54362,12.129264 1.92207,1.809517 1.87937,1.764131 3.21082,3.412557 0.66306,0.820909 1.67356,2.071223 2.24556,2.778483 0.572,0.70725 1.04,1.38137 1.04,1.49804 0,0.11667 0.2685,0.59435 0.59666,1.06152 1.49931,2.1344 5.16334,10.07061 5.16334,11.18368 0,0.34485 0.45418,2.04872 1.00928,3.78636 l 1.00929,3.15936 0.026,7.84 c 0.0175,5.28015 -0.10027,8.25794 -0.36072,9.12 -0.68672,2.27294 -2.32799,6.98506 -3.15995,9.07227 -0.86837,2.17857 -4.25411,8.54657 -5.38471,10.12773 -0.37754,0.528 -1.32189,2.04 -2.09856,3.36 -0.77667,1.32 -1.67678,2.76 -2.00025,3.2 -3.0242,4.11373 -5.02504,8.52338 -7.76805,17.12 -2.78535,8.72933 -4.78306,12.53493 -8.51562,16.22206 -1.66644,1.64617 -5.56118,4.09794 -6.50974,4.09794 -0.20714,0 -1.22944,0.34553 -2.27178,0.76785 -3.28733,1.33189 -9.0565,1.74368 -15.60124,1.11357 z"
       id="path74"
       inkscape:connector-curvature="0" />
    <path
       style="fill:#fac215;stroke-width:0.31999999"
       d="m 159.66503,238.75114 c -0.97982,-0.31381 -2.89062,-1.51004 -4.58903,-2.8729 -0.6842,-0.54903 -1.44499,-0.99824 -1.69064,-0.99824 -0.91737,0 -3.61402,-1.62783 -4.39683,-2.65414 -0.44613,-0.58492 -1.18502,-2.06302 -1.64197,-3.28467 -0.47568,-1.27174 -1.29343,-2.69994 -1.91307,-3.34119 -1.39303,-1.44163 -1.99411,-2.91921 -2.26563,-5.56935 -0.18233,-1.77964 -0.42588,-2.42264 -1.4698,-3.88046 -2.27271,-3.17381 -2.35531,-6.55856 -0.17872,-7.32403 0.70505,-0.24795 1.58679,-0.0743 4.47926,0.88225 6.63879,2.19543 9.94999,2.77159 15.92833,2.77159 3.88106,0 5.80885,-0.13845 7.20584,-0.51752 1.04898,-0.28463 2.41123,-0.63319 3.02723,-0.77458 0.616,-0.14139 2.37738,-0.7725 3.91417,-1.40248 3.25896,-1.33595 3.8329,-1.39015 4.71336,-0.44508 1.33097,1.42863 0.67956,4.31304 -1.5177,6.72034 -1.80139,1.97358 -2.02824,2.53881 -1.80051,4.48635 0.18501,1.58215 0.11924,1.80818 -1.00482,3.45297 -1.08342,1.58534 -1.21057,1.98908 -1.28129,4.0684 -0.10617,3.12162 -0.5942,3.76144 -4.46321,5.85134 -1.056,0.57042 -2.568,1.55983 -3.36,2.19869 -0.792,0.63886 -1.88412,1.47223 -2.42693,1.85191 -1.09756,0.76773 -3.9765,1.19443 -5.26804,0.7808 z M 154.88,204.14304 c -2.24365,-0.27959 -4.87334,-0.97237 -6.15566,-1.62168 -0.30561,-0.15475 -0.73761,-0.28167 -0.96,-0.28204 -0.83302,-0.001 -4.29434,-2.04034 -5.62919,-3.31594 -1.36644,-1.30579 -2.93794,-4.25649 -8.37406,-15.72338 -0.9178,-1.936 -2.98551,-5.92948 -4.59491,-8.87441 -1.6094,-2.94492 -3.32092,-6.10019 -3.80337,-7.0117 -0.48246,-0.91151 -1.09543,-1.89844 -1.36215,-2.19317 -0.26673,-0.29473 -1.40976,-2.03546 -2.54007,-3.86829 -1.13031,-1.83284 -2.29573,-3.66659 -2.58983,-4.07502 -0.29409,-0.40841 -1.17586,-2.06441 -1.9595,-3.68 -0.78364,-1.61557 -1.71801,-3.49211 -2.07638,-4.17008 -2.32452,-4.39749 -4.71581,-15.33648 -4.34165,-19.86094 0.33802,-4.08748 1.52057,-11.44485 1.98336,-12.3398 0.26588,-0.51415 0.48341,-1.17478 0.48341,-1.46808 0,-0.64458 2.8165,-7.46159 3.36249,-8.13851 0.21294,-0.264 1.00839,-1.56 1.76768,-2.88 0.75929,-1.32 1.67962,-2.7037 2.04518,-3.07488 0.36556,-0.37119 1.45665,-1.664138 2.42465,-2.873219 0.968,-1.209085 2.12,-2.524746 2.56,-2.923693 2.25796,-2.047293 6.12904,-5.208208 6.37834,-5.208208 0.1563,0 0.99814,-0.564346 1.87075,-1.254102 3.00374,-2.374317 7.98366,-4.554282 14.47091,-6.334653 l 4.32,-1.185587 7.68,-0.01283 c 6.91321,-0.01155 7.91962,0.05562 10.08,0.672688 1.32,0.377033 3.264,0.924329 4.32,1.216214 5.79211,1.600979 12.43496,5.271248 17.95867,9.922419 2.32996,1.961911 6.51513,6.297562 6.51869,6.753071 0.002,0.18548 0.50664,0.82573 1.12264,1.42278 0.616,0.59705 1.12,1.25388 1.12,1.45962 0,0.20573 0.26748,0.71749 0.5944,1.13722 1.34529,1.72722 5.1656,9.93453 5.1656,11.09744 0,0.34485 0.45804,2.04872 1.01786,3.78636 l 1.01786,3.15936 0.0126,8.16 c 0.011,7.16495 -0.0584,8.33559 -0.56916,9.6 -0.31996,0.792 -0.92984,2.57988 -1.35531,3.97308 -0.42546,1.3932 -0.89661,2.6892 -1.04699,2.88 -0.15039,0.1908 -0.45903,0.92292 -0.68587,1.62692 -0.45667,1.4172 -3.51271,7.13741 -5.36196,10.03634 -0.65395,1.02514 -1.549,2.47508 -1.989,3.22208 -0.44,0.747 -1.268,1.9947 -1.84,2.77265 -0.572,0.77796 -1.04,1.54617 -1.04,1.70714 0,0.16098 -0.33341,0.69973 -0.74092,1.19723 -1.4671,1.79114 -3.86586,7.5269 -6.26672,14.98456 -2.03976,6.336 -3.19869,9.05373 -4.97251,11.66064 -1.79328,2.63553 -4.77725,5.65644 -6.35569,6.43439 -0.56329,0.27762 -1.31216,0.67376 -1.66416,0.88031 -0.7029,0.41244 -4.78834,1.87266 -6.56,2.34467 -1.63318,0.43512 -10.64394,0.61147 -13.44,0.26303 z"
       id="path72"
       inkscape:connector-curvature="0" />
    <path
       style="fill:#77a2ab;stroke-width:0.31999999"
       d="m 159.66503,238.75114 c -0.97982,-0.31381 -2.89062,-1.51004 -4.58903,-2.8729 -0.6842,-0.54903 -1.44499,-0.99824 -1.69064,-0.99824 -0.91737,0 -3.61402,-1.62783 -4.39683,-2.65414 -0.44613,-0.58492 -1.18502,-2.06302 -1.64197,-3.28467 -0.47568,-1.27174 -1.29343,-2.69994 -1.91307,-3.34119 -1.39303,-1.44163 -1.99411,-2.91921 -2.26563,-5.56935 -0.18233,-1.77964 -0.42588,-2.42264 -1.4698,-3.88046 -2.27271,-3.17381 -2.35531,-6.55856 -0.17872,-7.32403 0.70505,-0.24795 1.58679,-0.0743 4.47926,0.88225 6.63879,2.19543 9.94999,2.77159 15.92833,2.77159 3.88106,0 5.80885,-0.13845 7.20584,-0.51752 1.04898,-0.28463 2.41123,-0.63319 3.02723,-0.77458 0.616,-0.14139 2.37738,-0.7725 3.91417,-1.40248 3.25896,-1.33595 3.8329,-1.39015 4.71336,-0.44508 1.33097,1.42863 0.67956,4.31304 -1.5177,6.72034 -1.80139,1.97358 -2.02824,2.53881 -1.80051,4.48635 0.18501,1.58215 0.11924,1.80818 -1.00482,3.45297 -1.08342,1.58534 -1.21057,1.98908 -1.28129,4.0684 -0.10617,3.12162 -0.5942,3.76144 -4.46321,5.85134 -1.056,0.57042 -2.568,1.55983 -3.36,2.19869 -0.792,0.63886 -1.88412,1.47223 -2.42693,1.85191 -1.09756,0.76773 -3.9765,1.19443 -5.26804,0.7808 z"
       id="path70"
       inkscape:connector-curvature="0" />
  </g>
</svg>
