<?xml version="1.0" encoding="UTF-8" standalone="no"?>
<!-- Created with Inkscape (http://www.inkscape.org/) -->

<svg
   xmlns:dc="http://purl.org/dc/elements/1.1/"
   xmlns:cc="http://creativecommons.org/ns#"
   xmlns:rdf="http://www.w3.org/1999/02/22-rdf-syntax-ns#"
   xmlns:svg="http://www.w3.org/2000/svg"
   xmlns="http://www.w3.org/2000/svg"
   xmlns:sodipodi="http://sodipodi.sourceforge.net/DTD/sodipodi-0.dtd"
   xmlns:inkscape="http://www.inkscape.org/namespaces/inkscape"
   version="1.1"
   id="svg10"
   width="682.66669"
   height="682.66669"
   viewBox="0 0 682.66669 682.66669"
   sodipodi:docname="logout.svg"
   inkscape:version="0.92.1 r15371">
  <metadata
     id="metadata16">
    <rdf:RDF>
      <cc:Work
         rdf:about="">
        <dc:format>image/svg+xml</dc:format>
        <dc:type
           rdf:resource="http://purl.org/dc/dcmitype/StillImage" />
        <dc:title></dc:title>
      </cc:Work>
    </rdf:RDF>
  </metadata>
  <defs
     id="defs14" />
  <sodipodi:namedview
     pagecolor="#ffffff"
     bordercolor="#666666"
     borderopacity="1"
     objecttolerance="10"
     gridtolerance="10"
     guidetolerance="10"
     inkscape:pageopacity="0"
     inkscape:pageshadow="2"
     inkscape:window-width="1920"
     inkscape:window-height="1001"
     id="namedview12"
     showgrid="false"
     inkscape:zoom="1.1835937"
     inkscape:cx="341.33334"
     inkscape:cy="341.33334"
     inkscape:window-x="-9"
     inkscape:window-y="-9"
     inkscape:window-maximized="1"
     inkscape:current-layer="svg10" />
  <path
     style="fill:#000000;stroke-width:1.33333337"
     d="m 319.8218,618.78807 c -41.39951,-4.71916 -68.24755,-12.24365 -99.33334,-27.83938 -27.04512,-13.56852 -49.35024,-30.07703 -71.37332,-52.82495 -21.58607,-22.29654 -35.4051,-42.02146 -48.64241,-69.43087 -35.818485,-74.16644 -35.302036,-160.22945 1.40506,-234.14368 18.45941,-37.17028 46.03886,-71.23577 64.61067,-79.80561 11.24112,-5.18715 25.95247,-5.25967 36.9002,-0.18191 10.0904,4.68012 18.89499,13.0411 23.40584,22.22656 3.28899,6.69736 3.69385,8.98378 3.69293,20.85535 -9.2e-4,12.00533 -0.37049,14.03475 -3.71056,20.37564 -2.04025,3.87327 -7.66462,11.35208 -12.49861,16.61959 -22.54132,24.56285 -36.43569,51.69691 -43.88916,85.71027 -3.22955,14.73782 -3.24021,50.41872 -0.0195,65.29451 15.30366,70.68451 66.32228,122.09736 135.80733,136.85669 19.23184,4.08504 49.39128,4.08504 68.62312,0 69.06335,-14.66976 120.51648,-66.12104 135.21667,-135.2118 3.79329,-17.82845 4.08179,-50.7999 0.58605,-66.97823 -7.18149,-33.23605 -21.59505,-61.36171 -43.90408,-85.67144 -12.40928,-13.52211 -15.8772,-20.84431 -16.57436,-34.99523 -0.45741,-9.28441 -0.0401,-12.70771 2.30788,-18.93551 3.96348,-10.51242 12.82872,-19.96489 23.78176,-25.35706 7.84856,-3.86383 10.13267,-4.36832 19.57976,-4.32459 15.71591,0.0727 24.03782,4.22083 38.36071,19.12107 36.91986,38.40804 60.29836,85.96475 69.88614,142.16276 3.16932,18.57667 3.15909,62.88107 -0.0188,81.27607 -8.51119,49.26715 -26.90448,90.71839 -56.5841,127.5182 -11.51517,14.2777 -36.23941,37.64782 -50.64624,47.87241 -39.33107,27.91342 -83.25847,44.46286 -130.77766,49.26986 -12.87552,1.30248 -37.03124,1.58554 -46.19207,0.54128 z m 8.66666,-210.51247 c -9.7115,-2.67157 -20.75704,-10.4402 -26.24241,-18.45701 -8.87465,-12.9702 -8.51099,-5.9079 -8.11544,-157.60058 l 0.35785,-137.241107 3.51356,-7.49335 c 4.9416,-10.53896 11.99396,-17.76891 22.26431,-22.82499 7.87065,-3.87471 10.05503,-4.34438 20.21359,-4.34624 10.16341,-0.002 12.34011,0.46574 20.22213,4.34416 10.27943,5.05808 17.32878,12.28283 22.27286,22.82707 l 3.51356,7.49335 0.35785,137.241107 c 0.39409,151.13695 0.73683,144.28331 -7.86456,157.26903 -10.52157,15.88469 -31.99865,23.87631 -50.4933,18.78856 z"
     id="path20"
     inkscape:connector-curvature="0" />
</svg>
