<?xml version="1.0" encoding="UTF-8" standalone="no"?>
<!-- Created with Inkscape (http://www.inkscape.org/) -->

<svg
   xmlns:dc="http://purl.org/dc/elements/1.1/"
   xmlns:cc="http://creativecommons.org/ns#"
   xmlns:rdf="http://www.w3.org/1999/02/22-rdf-syntax-ns#"
   xmlns:svg="http://www.w3.org/2000/svg"
   xmlns="http://www.w3.org/2000/svg"
   xmlns:sodipodi="http://sodipodi.sourceforge.net/DTD/sodipodi-0.dtd"
   xmlns:inkscape="http://www.inkscape.org/namespaces/inkscape"
   version="1.1"
   id="svg30"
   width="682.66669"
   height="682.66669"
   viewBox="0 0 682.66669 682.66669"
   sodipodi:docname="premium.svg"
   inkscape:version="0.92.1 r15371">
  <metadata
     id="metadata36">
    <rdf:RDF>
      <cc:Work
         rdf:about="">
        <dc:format>image/svg+xml</dc:format>
        <dc:type
           rdf:resource="http://purl.org/dc/dcmitype/StillImage" />
        <dc:title></dc:title>
      </cc:Work>
    </rdf:RDF>
  </metadata>
  <defs
     id="defs34" />
  <sodipodi:namedview
     pagecolor="#ffffff"
     bordercolor="#666666"
     borderopacity="1"
     objecttolerance="10"
     gridtolerance="10"
     guidetolerance="10"
     inkscape:pageopacity="0"
     inkscape:pageshadow="2"
     inkscape:window-width="1920"
     inkscape:window-height="1001"
     id="namedview32"
     showgrid="false"
     inkscape:zoom="1.1835937"
     inkscape:cx="341.33334"
     inkscape:cy="341.33334"
     inkscape:window-x="-9"
     inkscape:window-y="-9"
     inkscape:window-maximized="1"
     inkscape:current-layer="svg30" />
  <path
     style="fill:#000000;stroke-width:1.33333337"
     d="m 138.66667,627.85423 c -6.5443,-2.06273 -17.70515,-13.61976 -19.71184,-20.41155 -3.69074,-12.49153 -1.09073,-22.44956 8.33888,-31.93781 4.94163,-4.97236 8.37003,-7.17532 12.96895,-8.33333 8.98583,-2.26267 393.15554,-2.26267 402.14137,0 12.0224,3.02726 22.92932,17.5001 22.92932,30.42584 0,12.32657 -10.696,26.99293 -22.15469,30.3785 -7.49508,2.2145 -397.47235,2.09722 -404.51199,-0.1216 z M 124.60715,519.88439 C 121.44063,517.16067 116.78424,502.21845 83.3648,387.53902 L 45.69199,258.26403 38.23047,257.44551 C 23.29246,255.80685 10.65757,246.62807 3.7060303,232.36479 -0.54094974,223.65076 -0.52323974,207.57626 3.7436303,198.26403 12.0257,180.18875 31.6264,169.84415 50.40204,173.63927 c 31.28361,6.32335 45.04435,42.21423 25.83354,67.37928 l -5.15636,6.75452 66.12707,40.52956 c 37.82094,23.18062 67.83946,40.73914 70.12746,41.01915 2.89385,0.35417 4.79638,-0.36983 6.87809,-2.61741 4.66876,-5.04078 111.80707,-201.54516 110.18198,-202.08686 -4.81412,-1.6047 -14.1566,-9.38127 -17.70359,-14.73624 -9.35216,-14.119187 -10.23168,-29.932807 -2.47427,-44.487195 4.7359,-8.885459 9.00575,-12.969808 18.97415,-18.14984 5.78673,-3.007054 8.51275,-3.543114 18.14325,-3.567812 10.37847,-0.02661 12.04122,0.35265 19.73519,4.501556 9.32482,5.028325 13.48452,9.319255 18.35859,18.937772 6.69681,13.21552 5.38935,29.419572 -3.45064,42.765519 -3.54947,5.35872 -12.89015,13.13176 -17.71125,14.7388 -1.63812,0.54604 105.49748,197.04816 110.17908,202.0843 2.09445,2.25308 3.98773,2.96925 6.88865,2.6058 2.26702,-0.28403 32.67227,-18.05754 70.17102,-41.01874 l 66.17063,-40.51753 -5.16678,-6.53645 c -17.00924,-21.51831 -8.4909,-53.85203 17.20255,-65.29705 8.70189,-3.87621 23.87739,-3.87621 32.57928,0 8.77022,3.90666 18.81248,13.7247 22.54191,22.03862 4.31467,9.61857 4.31804,25.55384 0.007,34.4665 -6.89928,14.26462 -18.72635,22.88797 -34.05376,24.82926 l -7.8106,0.98925 -37.67566,129.15138 c -28.06044,96.19063 -38.40261,129.87838 -40.52417,132 l -2.84852,2.84863 -213.87474,0.34536 -213.87473,0.34537 -3.56954,-3.07038 z"
     id="path40"
     inkscape:connector-curvature="0" />
</svg>
