<?xml version="1.0" encoding="utf-8"?>
<!-- Generator: Adobe Illustrator 19.2.1, SVG Export Plug-In . SVG Version: 6.00 Build 0)  -->
<svg version="1.1" id="Stone_Island" xmlns="http://www.w3.org/2000/svg" xmlns:xlink="http://www.w3.org/1999/xlink" x="0px" y="0px"
	 width="400px" height="220px" viewBox="0 0 400 220" enable-background="new 0 0 400 220" xml:space="preserve">
<title>Stone Island</title>
<g>
	<g>
		<path d="M3.4,184v-12.1H6c0.5,3.3,1.5,6,3,7.8c1.5,1.8,3.4,2.7,5.7,2.7c1.7,0,3-0.6,4.1-1.9c1.1-1.3,1.6-2.9,1.6-4.9
			c0-2.7-2.2-5.8-6.5-9.2c-1.2-0.9-2.1-1.7-2.7-2.2c-3.1-2.5-5.1-4.9-6.2-6.9c-1.1-2.1-1.6-4.6-1.6-7.5c0-4.2,1.1-7.6,3.3-10
			c2.2-2.4,5.2-3.6,9-3.6c1.8,0,3.5,0.4,5.2,1.1c1.7,0.7,3.3,1.8,4.9,3.3v9.6h-2.5c-0.5-3-1.5-5.4-2.9-7.2c-1.5-1.8-3.2-2.7-5.1-2.7
			c-1.5,0-2.8,0.6-3.8,1.7c-1,1.1-1.4,2.5-1.4,4.3c0,2.7,2.2,5.7,6.6,8.9c0.1,0,0.1,0.1,0.2,0.1c0.2,0.2,0.6,0.4,1,0.7
			c2.5,1.8,4.3,3.4,5.5,4.8c1.3,1.5,2.2,3.1,2.9,4.9c0.7,1.8,1,3.7,1,5.7c0,4.7-1.1,8.4-3.3,11.2c-2.2,2.8-5.1,4.2-8.9,4.2
			c-1.6,0-3.4-0.2-5.3-0.7C7.8,185.7,5.7,185,3.4,184L3.4,184z"/>
		<path d="M50,173.7v2.3c0,1.3,0,2.2,0.1,2.8c0.1,0.6,0.2,1.1,0.3,1.4c0.3,0.8,0.9,1.4,1.6,1.7c0.8,0.4,1.7,0.6,2.9,0.6h0.3v3.7
			H36.3v-3.7h0.3c1.2,0,2.1-0.2,2.9-0.6c0.8-0.4,1.3-1,1.6-1.7c0.2-0.3,0.3-0.8,0.3-1.4c0.1-0.6,0.1-1.5,0.1-2.8v-2.3v-31.8h-3.3
			c-1.9,0-3.4,0.7-4.5,2c-1.1,1.3-2,3.6-2.7,6.8h-2.7l1-13.2h33.1l0.8,13.2h-2.6c-0.5-3.2-1.4-5.4-2.5-6.8c-1.1-1.3-2.8-2-5-2H50
			L50,173.7L50,173.7z"/>
		<path d="M72,160.5c0,7.1,0.7,12.6,2.1,16.5c1.4,3.8,3.5,5.8,6.2,5.8c2.7,0,4.7-1.6,6.1-4.9c1.4-3.3,2-8.2,2-14.8
			c0-7.1-0.7-12.6-2.1-16.4c-1.4-3.8-3.4-5.7-6.1-5.7c-2.7,0-4.7,1.7-6.1,5C72.7,149.2,72,154.1,72,160.5L72,160.5L72,160.5z
			 M79.9,187.1c-2.5,0-4.8-0.6-6.9-1.9c-2.1-1.3-4-3.2-5.7-5.8c-1.4-2.2-2.5-4.8-3.3-7.6c-0.7-2.9-1.1-6.1-1.1-9.5
			c0-3.4,0.4-6.5,1.1-9.5c0.8-2.9,1.9-5.6,3.3-7.9c1.7-2.7,3.6-4.7,5.8-6.1c2.2-1.4,4.7-2.1,7.3-2.1c2.3,0,4.5,0.6,6.5,1.7
			c2,1.1,3.8,2.8,5.4,5c1.7,2.3,2.9,5,3.8,8c0.9,3,1.3,6.3,1.3,10c0,3.3-0.3,6.4-1,9.3c-0.7,2.9-1.7,5.4-2.9,7.6
			c-1.7,3-3.8,5.2-6,6.8C85.2,186.3,82.7,187.1,79.9,187.1L79.9,187.1z"/>
		<path d="M97.6,186.1v-4c1.6-0.2,2.8-0.8,3.4-1.9c0.6-1,0.9-3.3,0.9-6.7v-28.2c-0.8-1.4-1.5-2.3-2.1-2.9c-0.6-0.6-1.3-0.9-2-0.9
			h-0.1v-4h9.5c0.5,0,0.8,0.1,1,0.2c0.2,0.2,0.4,0.5,0.8,1.1l17.6,29.6v-20c0-2.1-0.3-3.7-1-4.8c-0.7-1.1-1.8-1.8-3.3-2.1v-4h11.7v4
			c-1.6,0.4-2.6,1-3.3,2c-0.6,1-0.9,2.6-0.9,4.9v30.6c0,1.2,0,2.5,0,3.8c0,1.3,0.1,2.7,0.2,4.2h-3.5L105,151.4v22.2
			c0,3.2,0.3,5.4,1,6.5c0.7,1.1,2.1,1.8,4.1,2.1v4L97.6,186.1L97.6,186.1z"/>
		<path d="M136.7,186.1v-4c1.5-0.2,2.5-0.7,3-1.4c0.5-0.7,0.8-2.1,0.8-4.3v-29.3c0-2.1-0.3-3.5-0.8-4.2c-0.5-0.7-1.5-1.2-3-1.4v-4
			h26.8v10H161c-0.7-2.2-1.6-3.7-2.9-4.7c-1.2-1-2.8-1.5-4.8-1.5c-1.9,0-3,0.2-3.6,0.5c-0.5,0.3-0.8,1.3-0.8,2.9v13.4h3.6
			c1.6,0,2.8-0.4,3.6-1.3c0.8-0.9,1.3-2.3,1.5-4.4h2.8v16.1h-2.8c-0.2-2-0.7-3.6-1.6-4.7c-0.9-1.1-2.1-1.6-3.6-1.6h-3.6v13.3
			c0,2.1,0.3,3.6,0.9,4.5c0.6,0.9,1.8,1.3,3.4,1.3c2.2,0,4.1-0.7,5.9-2.1c1.7-1.4,3.2-3.5,4.3-6.2h2.7l-2,13H136.7L136.7,186.1z"/>
		<path d="M205.4,186.1v-4c1.5-0.2,2.5-0.7,3-1.4c0.5-0.7,0.8-2.1,0.8-4.3v-29.3c0-2.1-0.3-3.5-0.8-4.2c-0.5-0.7-1.5-1.2-3-1.4v-4
			h15.9v4c-1.5,0.2-2.5,0.7-3.1,1.4c-0.5,0.7-0.8,2.1-0.8,4.2v29.3c0,2.1,0.2,3.5,0.8,4.3c0.5,0.7,1.5,1.1,3.1,1.4v4L205.4,186.1
			L205.4,186.1z"/>
		<path d="M226,184v-12.1h2.7c0.5,3.3,1.5,6,3,7.8c1.5,1.8,3.4,2.7,5.7,2.7c1.7,0,3-0.6,4.1-1.9c1.1-1.3,1.6-2.9,1.6-4.9
			c0-2.7-2.2-5.8-6.5-9.2c-1.2-0.9-2.1-1.7-2.7-2.2c-3.1-2.5-5.1-4.9-6.2-6.9c-1.1-2.1-1.6-4.6-1.6-7.5c0-4.2,1.1-7.6,3.3-10
			c2.2-2.4,5.2-3.6,9-3.6c1.8,0,3.5,0.4,5.2,1.1c1.6,0.7,3.3,1.8,4.9,3.3v9.6h-2.5c-0.5-3-1.5-5.4-2.9-7.2c-1.5-1.8-3.2-2.7-5.1-2.7
			c-1.5,0-2.8,0.6-3.8,1.7c-1,1.1-1.4,2.5-1.4,4.3c0,2.7,2.2,5.7,6.6,8.9c0.1,0,0.1,0.1,0.2,0.1c0.2,0.2,0.6,0.4,1,0.7
			c2.5,1.8,4.3,3.4,5.5,4.8c1.3,1.5,2.2,3.1,2.9,4.9c0.7,1.8,1,3.7,1,5.7c0,4.7-1.1,8.4-3.3,11.2c-2.2,2.8-5.1,4.2-8.9,4.2
			c-1.6,0-3.4-0.2-5.3-0.7C230.4,185.7,228.3,185,226,184L226,184z"/>
		<path d="M267,137.6v3.9c-1.5,0.2-2.5,0.7-3,1.4c-0.5,0.7-0.8,2.1-0.8,4.3V174c0,3.6,0.4,5.8,1.1,6.8c0.7,1,2.2,1.4,4.5,1.4
			c2.8,0,5.1-0.7,6.8-2.2c1.7-1.5,3.3-4.1,5-8h2.7l-2.1,14h-30.1v-4c1.5-0.2,2.5-0.7,3-1.4c0.5-0.7,0.8-2.1,0.8-4.3v-29.3
			c0-2.1-0.2-3.6-0.8-4.3c-0.5-0.7-1.5-1.2-3-1.4v-3.9L267,137.6L267,137.6z"/>
		<path d="M285.5,186.1v-4c0.8-0.3,1.5-0.8,2-1.7c0.5-0.8,1-2.3,1.6-4.4l8.3-34.2c0.1-0.4,0.1-0.7,0.1-0.9c0-0.2,0-0.4,0-0.5
			c0-0.5-0.1-0.9-0.3-1.4c-0.2-0.5-0.4-1-0.8-1.5h8.7l9.6,39.2c0.4,1.7,0.9,3,1.5,3.9c0.5,0.9,1.2,1.4,1.9,1.5v4h-15v-4
			c1-0.1,1.8-0.3,2.3-0.8c0.5-0.5,0.8-1.2,0.8-2.2c0-0.3,0-0.6-0.1-1.1c-0.1-0.4-0.2-1-0.3-1.7l-1.4-7.3h-10.5l-1.3,6.7
			c-0.1,0.7-0.2,1.2-0.3,1.6c0,0.4-0.1,0.8-0.1,1.1c0,1.2,0.2,2.1,0.7,2.7c0.5,0.6,1.2,0.9,2.2,0.9h0.1v4L285.5,186.1L285.5,186.1
			L285.5,186.1z M295,164.9h8.2l-4.1-17.5L295,164.9L295,164.9z"/>
		<path d="M321,186.1v-4c1.6-0.2,2.8-0.8,3.4-1.9c0.6-1,0.9-3.3,0.9-6.7v-28.2c-0.8-1.4-1.5-2.3-2.1-2.9c-0.6-0.6-1.3-0.9-2-0.9H321
			v-4h9.5c0.5,0,0.8,0.1,1,0.2c0.2,0.2,0.4,0.5,0.8,1.1l17.6,29.6v-20c0-2.1-0.3-3.7-1-4.8c-0.7-1.1-1.8-1.8-3.3-2.1v-4h11.7v4
			c-1.6,0.4-2.6,1-3.3,2c-0.6,1-0.9,2.6-0.9,4.9v30.6c0,1.2,0,2.5,0,3.8c0,1.3,0.1,2.7,0.2,4.2h-3.5l-21.4-35.7v22.2
			c0,3.2,0.3,5.4,1,6.5c0.7,1.1,2.1,1.8,4.1,2.1v4L321,186.1L321,186.1z"/>
		<path d="M372.2,174c0,3.2,0.3,5.4,1,6.4c0.7,1,2,1.5,3.9,1.5c3.3,0,5.9-1.7,7.7-5c1.9-3.3,2.8-7.9,2.8-13.9
			c0-6.8-1.1-12.1-3.4-15.8c-2.3-3.8-5.5-5.6-9.6-5.6c-0.9,0-1.5,0.3-1.8,0.8c-0.3,0.5-0.5,1.3-0.5,2.5L372.2,174L372.2,174
			L372.2,174z M360.1,186.1v-4c1.5-0.2,2.5-0.7,3-1.4c0.5-0.7,0.8-2.1,0.8-4.3v-29.3c0-2.1-0.3-3.5-0.8-4.2c-0.5-0.7-1.5-1.2-3-1.4
			v-4h15.6c6.5,0,11.6,2.2,15.3,6.5c3.7,4.3,5.6,10.2,5.6,17.6c0,3.8-0.6,7.3-1.6,10.6c-1.1,3.3-2.7,6.1-4.7,8.4
			c-1.7,1.9-3.6,3.3-5.8,4.2c-2.2,0.8-4.9,1.3-8.1,1.3L360.1,186.1L360.1,186.1z"/>
		<path d="M179.5,89.3l-13.9-13.9l0.1-0.3l13.7-62.1l1.2,0.1v75.8L179.5,89.3z M166.9,75l12.4,12.4V18.5L166.9,75z"/>
		<g>
			<polygon points="193.6,75.2 179.9,88.8 179.9,13 			"/>
			<path d="M180.4,89.3l-1-0.4V13l1.2-0.1l13.7,62.4L180.4,89.3z M180.5,18.5v68.9L193,75L180.5,18.5z"/>
		</g>
		<path d="M255.7,89.4h-77.2l14.9-14.9l0.3,0.1l62.1,13.7L255.7,89.4z M181.4,88.2h68.8l-56.4-12.4L181.4,88.2z"/>
		<g>
			<polygon points="255.7,88.8 193.6,102.5 179.9,88.8 			"/>
			<path d="M193.4,103.2l-14.9-14.9h77.2l0.1,1.2L193.4,103.2z M181.4,89.4l12.4,12.4l56.4-12.4H181.4z"/>
		</g>
		<path d="M180.5,164.8l-1.2-0.1V88.8l1-0.4l13.9,13.9l-0.1,0.3L180.5,164.8z M180.5,90.3v68.9l12.4-56.4L180.5,90.3z"/>
		<g>
			<polygon points="166.3,102.5 179.9,88.8 179.9,164.6 			"/>
			<path d="M179.4,164.8l-13.7-62.4l13.9-13.9l1,0.4v75.8L179.4,164.8z M166.9,102.7l12.4,56.4V90.3L166.9,102.7z"/>
		</g>
		<path d="M166.5,103.2l-0.3-0.1l-62.1-13.7l0.1-1.2h77.2L166.5,103.2z M109.7,89.4l56.4,12.4l12.4-12.4H109.7z"/>
		<g>
			<polygon points="104.2,88.8 166.3,75.2 179.9,88.8 			"/>
			<path d="M181.4,89.4h-77.2l-0.1-1.2l62.4-13.7L181.4,89.4z M109.7,88.2h68.8l-12.4-12.4L109.7,88.2z"/>
		</g>
		<polygon points="180.5,164.6 179.4,164.6 179.4,89.4 104.2,89.4 104.2,88.2 179.4,88.2 179.4,13 180.5,13 180.5,88.2 255.7,88.2 
			255.7,89.4 180.5,89.4 		"/>
	</g>
</g>
</svg>
