<?xml version="1.0" encoding="UTF-8" standalone="no"?>
<!-- Created with Inkscape (http://www.inkscape.org/) -->

<svg
   xmlns:dc="http://purl.org/dc/elements/1.1/"
   xmlns:cc="http://creativecommons.org/ns#"
   xmlns:rdf="http://www.w3.org/1999/02/22-rdf-syntax-ns#"
   xmlns:svg="http://www.w3.org/2000/svg"
   xmlns="http://www.w3.org/2000/svg"
   xmlns:sodipodi="http://sodipodi.sourceforge.net/DTD/sodipodi-0.dtd"
   xmlns:inkscape="http://www.inkscape.org/namespaces/inkscape"
   version="1.1"
   id="svg7924"
   width="471.04001"
   height="104.96"
   viewBox="0 0 471.04001 104.96"
   sodipodi:docname="logo.svg"
   inkscape:version="0.92.1 r15371">
  <metadata
     id="metadata7930">
    <rdf:RDF>
      <cc:Work
         rdf:about="">
        <dc:format>image/svg+xml</dc:format>
        <dc:type
           rdf:resource="http://purl.org/dc/dcmitype/StillImage" />
        <dc:title></dc:title>
      </cc:Work>
    </rdf:RDF>
  </metadata>
  <defs
     id="defs7928" />
  <sodipodi:namedview
     pagecolor="#ffffff"
     bordercolor="#666666"
     borderopacity="1"
     objecttolerance="10"
     gridtolerance="10"
     guidetolerance="10"
     inkscape:pageopacity="0"
     inkscape:pageshadow="2"
     inkscape:window-width="1920"
     inkscape:window-height="1001"
     id="namedview7926"
     showgrid="false"
     inkscape:zoom="3.736413"
     inkscape:cx="235.52"
     inkscape:cy="52.48"
     inkscape:window-x="-9"
     inkscape:window-y="-9"
     inkscape:window-maximized="1"
     inkscape:current-layer="svg7924" />
  <g
     id="g8156"
     transform="matrix(0.99851446,0,0,0.99809451,0.15976231,0.19999931)">
    <path
       style="fill:#fec6b1;stroke-width:0.31999999"
       d="m 74.240002,101.63918 v -0.12082 l 0.56,-0.43918 0.56,-0.43918 -0.439181,0.56 -0.439184,0.56 h -0.120816 -0.120819 z m 2.4,-2.75918 0.197769,-0.32 h 0.16 0.16 l -0.197769,0.32 -0.19777,0.32 h -0.16 -0.16 z m 1.92,-2.24 0.197769,-0.32 h 0.16 0.16 l -0.197769,0.32 -0.19777,0.32 h -0.16 -0.16 z m 1.92,-2.24 0.197769,-0.32 h 0.16 0.16 l -0.197769,0.32 -0.19777,0.32 h -0.16 -0.16 z m 1.76,-2.040819 v -0.120816 l 0.56,-0.439184 0.56,-0.439181 -0.439181,0.56 -0.439184,0.56 h -0.120816 -0.120819 z m 2.4,-2.759181 0.197769,-0.32 h 0.16 0.16 l -0.197769,0.32 -0.19777,0.32 h -0.16 -0.16 z m 1.92,-2.24 0.197769,-0.32 h 0.16 0.16 l -0.197769,0.32 -0.19777,0.32 h -0.16 -0.16 z m 1.92,-2.24 0.197769,-0.32 h 0.16 0.16 l -0.197769,0.32 -0.19777,0.32 h -0.16 -0.16 z m 1.76,-2.040819 v -0.120816 l 0.56,-0.439184 0.56,-0.439181 -0.439181,0.56 -0.439184,0.56 h -0.120816 -0.120819 z m 296.426658,-0.732515 0.21335,-0.213332 0.21334,0.213332 0.21331,0.213334 h -0.42665 -0.42666 z m 8.64,0 0.21335,-0.213332 0.21334,0.213332 0.21331,0.213334 h -0.42665 -0.42666 z M 92.160002,80.839181 v -0.120816 l 0.56,-0.439184 0.56,-0.439181 -0.439181,0.56 -0.439184,0.56 H 92.280821 92.160002 Z M 403.52001,78.88 l 0.75155,-0.8 h 0.16 0.16 l -0.75155,0.8 -0.75155,0.8 h -0.16 -0.16 z m -25.15056,0.110557 -0.22832,-0.369443 0.36944,0.228329 0.36944,0.228327 V 79.218886 79.36 h -0.14112 -0.14112 z M 94.560002,78.08 l 0.19777,-0.32 h 0.16 0.16 l -0.19777,0.32 -0.19777,0.32 h -0.16 -0.16 z m 294.986658,-2.453334 0.21335,-0.213332 0.21334,0.213332 0.21331,0.213334 h -0.42665 -0.42666 z m 2.88,0 0.21335,-0.213332 0.21334,0.213332 0.21331,0.213334 h -0.42665 -0.42666 z m -5.73721,-1.116109 -0.22832,-0.369443 0.36944,0.228329 0.36944,0.228327 V 74.738886 74.88 h -0.14112 -0.14112 z M 375.75425,72.32 V 71.2 l 0.14633,0.56 0.14634,0.56 -0.14634,0.56 -0.14633,0.56 z m 4.51241,-0.533334 0.21335,-0.213332 0.21334,0.213332 L 380.90666,72 h -0.42665 -0.42666 z M 406.72001,71.68 v -0.426666 l 0.21334,0.213332 0.21331,0.213334 -0.21331,0.213334 -0.21334,0.213332 z m -29.01335,-0.213334 0.21335,-0.213332 0.21334,0.213332 0.21331,0.213334 h -0.42665 -0.42666 z M 398.14238,69.92 l 0.0118,-0.96 0.14752,0.56609 0.14752,0.566089 -0.1594,0.393911 -0.15936,0.39391 0.0118,-0.96 z m -78.31066,-23.68 5e-5,-23.04 0.0881,11.623542 0.0881,11.623543 -0.0882,11.416457 -0.0882,11.416458 z m 87.28253,21.6 v -1.12 l 0.14633,0.56 0.14634,0.56 -0.14634,0.56 -0.14633,0.56 z m -27.93847,-2.48 -0.77577,-0.88 0.88,0.775779 0.88,0.775783 V 66.135779 66.24 h -0.10423 -0.10422 z m 17.78423,0.24 0.19776,-0.32 h 0.16 0.16 l -0.19776,0.32 -0.19776,0.32 h -0.16 -0.16 z m 73.44,0 v -0.426666 l 0.21334,0.213332 0.21332,0.213334 -0.21332,0.213334 -0.21334,0.213332 z m -0.32,-2.88 v -0.426666 l 0.21334,0.213332 0.21332,0.213334 -0.21332,0.213334 -0.21334,0.213332 z m -3.09334,-0.533334 0.21334,-0.213332 0.21334,0.213332 0.21332,0.213334 h -0.42666 -0.42666 z M 395.04001,60.8 l 0.19776,-0.32 h 0.16 0.16 l -0.19776,0.32 -0.19776,0.32 h -0.16 -0.16 z m 60.07424,-0.64 v -1.12 l 0.14634,0.56 0.14633,0.56 -0.14633,0.56 -0.14634,0.56 z m 9.02582,-9.12 3.2e-4,-8.64 0.099,4.419133 0.0989,4.419129 -0.0993,4.220871 -0.0993,4.220867 z m -89.42006,4.32 v -0.426666 l 0.21334,0.213332 0.21331,0.213334 -0.21331,0.213334 -0.21334,0.213332 z M 114.72,53.12 114.91777,52.8 h 0.16 0.16 l -0.19777,0.32 -0.19777,0.32 h -0.16 -0.16 z m 1.28,-1.6 0.19777,-0.32 h 0.16 0.16 l -0.19777,0.32 -0.19777,0.32 h -0.16 -0.16 z m 308.64001,-2.24 v -0.426666 l 0.21334,0.213332 0.21332,0.213334 -0.21332,0.213334 -0.21334,0.213332 z m -49.92,-0.32 v -0.426666 l 0.21334,0.213332 0.21331,0.213334 -0.21331,0.213334 -0.21334,0.213332 z M 118.88,48 l 0.19777,-0.32 h 0.16 0.16 L 119.2,48 l -0.19777,0.32 h -0.16 -0.16 z m 317.94526,-0.826666 0.0253,-0.613334 0.16806,0.42 0.16807,0.42 -0.19332,0.193334 -0.19334,0.193332 0.0253,-0.613332 z M 445.76001,45.44 v -0.426666 l 0.21334,0.213332 0.21332,0.213334 -0.21332,0.213334 -0.21334,0.213332 z M 121.76,44.48 l 0.19777,-0.32 h 0.16 0.16 l -0.19777,0.32 -0.19777,0.32 h -0.16 -0.16 z m 304.96001,-0.64 0.19776,-0.32 h 0.16 0.16 l -0.19776,0.32 -0.19776,0.32 h -0.16 -0.16 z M 123.04,42.88 l 0.19777,-0.32 h 0.16 0.16 l -0.19777,0.32 -0.19777,0.32 h -0.16 -0.16 z m 266.82666,-0.853334 0.21335,-0.213332 0.21334,0.213332 0.21331,0.213334 h -0.42665 -0.42666 z m 1.92,0 0.21335,-0.213332 0.21334,0.213332 0.21331,0.213334 h -0.42665 -0.42666 z m 38.72001,0 0.21334,-0.213332 0.21334,0.213332 0.21332,0.213334 h -0.42666 -0.42666 z m 1.92,0 0.21334,-0.213332 0.21334,0.213332 0.21332,0.213334 h -0.42666 -0.42666 z M 125.92,39.36 l 0.19777,-0.32 h 0.16 0.16 l -0.19777,0.32 -0.19777,0.32 h -0.16 -0.16 z m 253.12001,-0.32 0.5792,-0.64 h 0.16 0.16 l -0.5792,0.64 -0.5792,0.64 h -0.16 -0.16 z m 18.2096,-0.4 -0.6096,-0.72 0.72,0.609597 0.72,0.609597 V 39.249597 39.36 h -0.1104 -0.1104 z m 29.1504,-0.56 0.19776,-0.32 h 0.16 0.16 l -0.19776,0.32 -0.19776,0.32 h -0.16 -0.16 z M 128.8,35.84 l 0.19777,-0.32 h 0.16 0.16 l -0.19777,0.32 -0.19777,0.32 h -0.16 -0.16 z m 335.33284,-5.76 v -5.92 l 0.1056,2.96 0.1056,2.96 -0.1056,2.96 -0.1056,2.96 z M 130.08,34.24 l 0.19777,-0.32 h 0.16 0.16 l -0.19777,0.32 -0.19777,0.32 h -0.16 -0.16 z m 11.04,-13.560818 v -0.120818 l 0.56,-0.439182 0.56,-0.439182 -0.43918,0.56 -0.43918,0.56 H 141.24082 141.12 Z m 3.04,-3.399182 0.5792,-0.64 h 0.16 0.16 l -0.5792,0.64 -0.57919,0.64 h -0.16 -0.16 z m 2.4,-2.680818 v -0.120818 l 0.56,-0.439182 0.56,-0.439182 -0.43918,0.56 -0.43918,0.56 H 146.68082 146.56 Z m 2.56,-2.88 v -0.120818 l 0.56,-0.439182 0.56,-0.439182 -0.43918,0.56 -0.43918,0.56 H 149.24082 149.12 Z M 152,8.5191824 V 8.3983645 L 152.56,7.9591824 153.12,7.52 152.68082,8.08 152.24164,8.64 H 152.12082 152 Z m 2.88,-3.2 V 5.1983645 L 155.44,4.7591824 156,4.32 155.56082,4.88 155.12164,5.44 H 155.00082 154.88 Z m 2.56,-2.8800001 V 2.3183646 L 158,1.8791823 158.56,1.44 158.12082,2 157.68164,2.56 H 157.56082 157.44 Z"
       id="path8174"
       inkscape:connector-curvature="0" />
    <path
       style="fill:#cccccc;stroke-width:0.31999999"
       d="m 53.249444,104.59056 -0.228329,-0.36945 0.368243,0.22759 0.368243,0.22759 0.0812,-41.538146 0.0812,-41.538144 9.28,-0.0076 9.280001,-0.0076 -9.200001,0.09253 -9.2,0.09253 V 63.364911 104.96 h -0.301113 -0.301117 z m -1.92,-2.24 -0.228329,-0.36945 0.369443,0.22833 0.369443,0.22833 v 0.14112 0.14111 h -0.141114 -0.141116 z m -1.92,-2.24 -0.228329,-0.369446 0.369443,0.228329 0.369443,0.228327 v 0.14112 0.14111 h -0.141114 -0.141116 z m -1.92,-2.240003 -0.228329,-0.369443 0.369443,0.228329 0.369443,0.228327 V 98.098886 98.24 H 47.858887 47.717771 Z M 45.440001,95.52 45.041636,95.04 h 0.16 0.16 l 0.398365,0.48 0.398365,0.48 h -0.16 -0.16 z m -2.110557,-2.449443 -0.228329,-0.369443 0.369443,0.228329 0.369443,0.228327 V 93.298886 93.44 H 43.698887 43.557771 Z M 41.280001,90.72 40.881636,90.24 h 0.16 0.16 l 0.398365,0.48 0.398365,0.48 h -0.16 -0.16 z m -1.92,-2.24 L 38.961636,88 h 0.16 0.16 l 0.398365,0.48 0.398365,0.48 h -0.16 -0.16 z m -2.110557,-2.449443 -0.22833,-0.369443 0.369444,0.228329 0.369443,0.228327 V 86.258886 86.4 H 37.618887 37.47777 Z m -1.92,-2.24 -0.22833,-0.369443 0.369444,0.228329 0.369443,0.228327 V 84.018886 84.16 H 35.698887 35.55777 Z m -1.92,-2.24 -0.22833,-0.369443 0.369444,0.228329 0.369443,0.228327 V 81.778886 81.92 H 33.778887 33.63777 Z M 31.360001,79.2 30.961636,78.72 h 0.16 0.16 l 0.398365,0.48 0.398364,0.48 h -0.16 -0.16 z M 208.42667,69.546666 208.64,69.333334 208.85334,69.546666 209.06667,69.76 H 208.64 208.21334 Z M 167.83011,50.24 V 31.2 l 0.0897,9.52 0.0897,9.52 -0.0897,9.52 -0.0897,9.52 z M 193.6,65.76 193.20164,65.28 h 0.16 0.16 l 0.39836,0.48 0.39837,0.48 h -0.16 -0.16 z m 45.54667,-2.293334 0.21334,-0.213332 0.21333,0.213332 0.21333,0.213334 h -0.42666 -0.42667 z M 209.12,61.44 209.6992,60.8 h 0.16 0.16 l -0.5792,0.64 -0.57919,0.64 h -0.16 -0.16 z m 5.70667,-2.453334 0.21333,-0.213332 0.21334,0.213332 L 215.46667,59.2 H 215.04 214.61334 Z M 189.12,55.68 v -0.426666 l 0.21334,0.213332 0.21333,0.213334 -0.21333,0.213334 -0.21334,0.213332 z m 31.13153,-2.08 0.004,-1.6 0.13373,0.8844 0.13374,0.8844 -0.1381,0.7156 -0.13811,0.7156 0.004,-1.6 z m 50.81374,-4.186666 0.0253,-0.613334 0.16807,0.42 0.16807,0.42 -0.19333,0.193334 -0.19334,0.193332 0.0253,-0.613332 z M 281.99425,48.96 v -1.12 l 0.14634,0.56 0.14634,0.56 -0.14634,0.56 -0.14634,0.56 z m -70.79425,0 v -0.426666 l 0.21334,0.213332 0.21333,0.213334 -0.21333,0.213334 -0.21334,0.213332 z m 80.00001,-0.32 v -0.426666 l 0.21333,0.213332 0.21333,0.213334 -0.21333,0.213334 -0.21333,0.213332 z M 198.4,48.32 v -0.426666 l 0.21334,0.213332 0.21333,0.213334 -0.21333,0.213334 L 198.4,48.746666 Z M 254.10527,44.613334 254.13052,44 l 0.16807,0.42 0.16807,0.42 -0.19333,0.193334 -0.19334,0.193332 0.0252,-0.613332 z M 310.72001,43.84 v -0.426666 l 0.21333,0.213332 0.21333,0.213334 -0.21333,0.213334 -0.21333,0.213332 z m -66.43056,-0.689443 -0.22833,-0.369443 0.36944,0.228329 0.36945,0.228327 V 43.378886 43.52 h -0.14112 -0.14112 z m -40.34278,-1.123891 0.21333,-0.213332 0.21334,0.213332 0.21333,0.213334 H 204.16 203.73334 Z m 1.6,0 0.21333,-0.213332 0.21334,0.213332 0.21333,0.213334 H 205.76 205.33334 Z m 32.96,0 0.21334,-0.213332 0.21333,0.213332 0.21333,0.213334 h -0.42666 -0.42667 z m 2.24,0 0.21334,-0.213332 0.21333,0.213332 0.21333,0.213334 h -0.42666 -0.42667 z m 35.84,0 0.21334,-0.213332 0.21333,0.213332 0.21333,0.213334 h -0.42666 -0.42667 z m 1.6,0 0.21334,-0.213332 0.21333,0.213332 0.21333,0.213334 h -0.42666 -0.42667 z m 19.84,0 0.21334,-0.213332 0.21333,0.213332 0.21333,0.213334 h -0.42666 -0.42667 z M 192.96,40.279738 v -0.16 L 193.92,39.2 l 0.96,-0.919738 v 0.16 0.16 l -0.96,0.919738 -0.96,0.919738 z m 96.96001,-0.08056 v -0.120816 l 0.56,-0.439184 0.56,-0.439181 -0.43918,0.56 -0.43919,0.56 h -0.12081 -0.12082 z m -18.88,-0.999181 0.75156,-0.8 h 0.16 0.16 l -0.75156,0.8 -0.75157,0.8 h -0.16 -0.16 z m -42.72001,0.16 0.19777,-0.32 h 0.16 0.16 l -0.19777,0.32 -0.19776,0.32 h -0.16 -0.16 z m 23.96945,-0.369443 -0.22833,-0.369443 0.36944,0.228329 0.36945,0.228327 V 39.218886 39.36 h -0.14112 -0.14112 z m 38.91056,-0.07138 v -0.120816 l 0.56,-0.439184 0.56,-0.439181 -0.43918,0.56 -0.43919,0.56 h -0.12081 -0.12082 z M 288.1296,38 l -0.60959,-0.72 0.72,0.609597 0.72,0.609597 V 38.609597 38.72 h -0.11041 -0.1104 z m -36.80015,0.03056 -0.22833,-0.369443 0.36944,0.228329 0.36945,0.228327 v 0.141117 0.141113 h -0.14112 -0.14112 z m -6.74278,-2.723894 0.21334,-0.213332 0.21333,0.213332 0.21333,0.213334 h -0.42666 -0.42667 z M 190.84332,27.2 v -4 l 0.11361,2 0.11361,2 -0.11361,2 -0.11361,2 z M 7.7822072,21.520213 l 7.9422068,-0.09149 7.737794,0.0916 7.737793,0.0916 L 15.52,21.611813 -0.16,21.611704 Z M 5.1200001,15.979966 v -0.16 l 1.92,-1.899966 1.9200001,-1.899966 v 0.16 0.16 L 7.0400001,14.24 l -1.92,1.899966 z M 17.6,3.04 19.338138,1.28 h 0.16 0.16 L 17.92,3.04 16.181863,4.8 h -0.16 -0.16 z"
       id="path8172"
       inkscape:connector-curvature="0" />
    <path
       style="fill:#feb092;stroke-width:0.31999999"
       d="m 76.000002,99.52 0.197769,-0.32 h 0.16 0.16 l -0.197769,0.32 -0.19777,0.32 h -0.16 -0.16 z m 3.84,-4.48 0.197769,-0.32 h 0.16 0.16 l -0.197769,0.32 -0.19777,0.32 h -0.16 -0.16 z m 4.16,-4.8 0.197769,-0.32 h 0.16 0.16 l -0.197769,0.32 -0.19777,0.32 h -0.16 -0.16 z m 1.92,-2.24 0.197769,-0.32 h 0.16 0.16 l -0.197769,0.32 -0.19777,0.32 h -0.16 -0.16 z m 1.92,-2.24 0.197769,-0.32 h 0.16 0.16 l -0.197769,0.32 -0.19777,0.32 h -0.16 -0.16 z m 299.466658,-3.413334 0.21335,-0.213332 0.21334,0.213332 0.21331,0.213334 h -0.42665 -0.42666 z M 93.920002,78.72 94.117772,78.4 h 0.16 0.16 l -0.19777,0.32 -0.19777,0.32 h -0.16 -0.16 z m 0.944445,-12.32 1.92e-4,-11.52 0.09498,5.86079 0.09498,5.860788 -0.09517,5.659212 -0.09517,5.65921 z m 298.202213,9.226666 0.21335,-0.213332 0.21334,0.213332 0.21331,0.213334 h -0.42665 -0.42666 z m -8.32,-3.2 0.21335,-0.213332 0.21334,0.213332 0.21331,0.213334 h -0.42665 -0.42666 z m -2.56,-0.32 0.21335,-0.213332 0.21334,0.213332 0.21331,0.213334 h -0.42665 -0.42666 z M 398.08001,71.04 v -0.426666 l 0.21334,0.213332 0.21331,0.213334 -0.21331,0.213334 -0.21334,0.213332 z m 59.00944,-3.569443 -0.22832,-0.369443 0.36944,0.228329 0.36944,0.228327 V 67.698886 67.84 h -0.14112 -0.14112 z M 407.1882,51.36 l -1.3e-4,-15.68 0.0916,7.737792 0.0916,7.737795 -0.0915,7.942205 -0.0915,7.942208 z m 63.21181,14.88 v -0.426666 l 0.21334,0.213332 0.21332,0.213334 -0.21332,0.213334 -0.21334,0.213332 z m -0.32,-2.88 v -0.426666 l 0.21334,0.213332 0.21332,0.213334 -0.21332,0.213334 -0.21334,0.213332 z m -6.05475,-3.386666 0.0253,-0.613334 0.16806,0.42 0.16807,0.42 -0.19332,0.193334 -0.19334,0.193332 0.0253,-0.613332 z M 455.17975,50.88 V 42.4 l 0.0994,4.24 0.0994,4.24 -0.0994,4.24 -0.0994,4.24 z m -57.09974,4.48 v -0.426666 l 0.21334,0.213332 0.21331,0.213334 -0.21331,0.213334 -0.21334,0.213332 z m -14.3041,-3.2 V 50.4 l 0.13331,0.88 0.13328,0.88 -0.13328,0.88 -0.13331,0.88 z m -9.0559,-2.56 v -0.426666 l 0.21334,0.213332 0.21331,0.213334 -0.21331,0.213334 -0.21334,0.213332 z m -26.43667,-3.84 v -4 l 0.1136,2 0.1136,2 -0.1136,2 -0.1136,2 z m 49.79667,3.2 v -0.426666 l 0.21334,0.213332 0.21331,0.213334 -0.21331,0.213334 -0.21334,0.213332 z m 26.56,-0.32 v -0.426666 l 0.21334,0.213332 0.21332,0.213334 -0.21332,0.213334 -0.21334,0.213332 z m 21.17053,-2.24 v -0.8 l 0.16141,0.4 0.1614,0.4 -0.1614,0.4 -0.16141,0.4 z m -46.98295,-8.32 v -2.4 l 0.12554,1.2 0.1255,1.2 -0.1255,1.2 -0.12554,1.2 z m 25.97242,1.6 0.19776,-0.32 h 0.16 0.16 l -0.19776,0.32 -0.19776,0.32 h -0.16 -0.16 z m 0.96,-0.96 0.19776,-0.32 h 0.16 0.16 l -0.19776,0.32 -0.19776,0.32 h -0.16 -0.16 z m 17.12,-0.48 -0.39837,-0.48 h 0.16 0.16 l 0.39837,0.48 0.39837,0.48 h -0.16 -0.16 z M 126.88,38.08 l 0.19777,-0.32 h 0.16 0.16 L 127.2,38.08 127.00223,38.4 h -0.16 -0.16 z m 328.27841,-5.44 v -3.36 l 0.1175,1.68 0.11754,1.68 -0.11754,1.68 -0.1175,1.68 z m -360.296498,-0.09175 -0.158003,-0.411751 0.09633,-5.428249 0.09633,-5.42825 0.07172,5.677358 0.07172,5.677359 18.160001,0.08534 18.16,0.08534 -18.17004,0.0773 L 95.019916,32.96 Z M 140.64,21.12 140.83777,20.8 h 0.16 0.16 l -0.19777,0.32 -0.19777,0.32 h -0.16 -0.16 z m 2.56,-2.88 0.19777,-0.32 h 0.16 0.16 l -0.19777,0.32 -0.19777,0.32 h -0.16 -0.16 z m 2.88,-3.2 0.19777,-0.32 h 0.16 0.16 l -0.19777,0.32 -0.19777,0.32 h -0.16 -0.16 z m 2.56,-2.88 0.19777,-0.32 h 0.16 0.16 l -0.19777,0.32 -0.19777,0.32 h -0.16 -0.16 z m 2.88,-3.2 0.19777,-0.32 h 0.16 0.16 L 151.84,8.96 151.64223,9.28 h -0.16 -0.16 z m 2.4,-2.6808176 V 6.1583645 L 154.48,5.7191824 155.04,5.28 154.60082,5.84 154.16164,6.4 H 154.04082 153.92 Z M 156.96,2.88 157.15777,2.56 h 0.16 0.16 L 157.28,2.88 157.08223,3.2 h -0.16 -0.16 z"
       id="path8170"
       inkscape:connector-curvature="0" />
    <path
       style="fill:#a7a5a5;stroke-width:0.31999999"
       d="m 52.160001,103.2 -0.398365,-0.48 h 0.16 0.16 l 0.398365,0.48 0.398365,0.48 h -0.16 -0.16 z m -2.110557,-2.44944 -0.228329,-0.36945 0.369443,0.22833 0.369443,0.22833 v 0.14112 0.14111 h -0.141114 -0.141116 z m -1.92,-2.240003 -0.228329,-0.369443 0.369443,0.228329 0.369443,0.228327 V 98.738886 98.88 h -0.141114 -0.141116 z m -1.92,-2.24 -0.228329,-0.369443 0.369443,0.228329 0.369443,0.228327 V 96.498886 96.64 H 46.578887 46.437771 Z M 44.160001,93.92 43.761636,93.44 h 0.16 0.16 l 0.398365,0.48 0.398365,0.48 h -0.16 -0.16 z m -2.110557,-2.449443 -0.22833,-0.369443 0.369444,0.228329 0.369443,0.228327 V 91.698886 91.84 H 42.418887 42.27777 Z m -1.92,-2.24 -0.22833,-0.369443 0.369444,0.228329 0.369443,0.228327 V 89.458886 89.6 H 40.498887 40.35777 Z M 38.080001,86.88 37.681636,86.4 h 0.16 0.16 l 0.398365,0.48 0.398365,0.48 h -0.16 -0.16 z m -2.110557,-2.449443 -0.22833,-0.369443 0.369444,0.228329 0.369443,0.228327 V 84.658886 84.8 H 36.338887 36.19777 Z m -1.92,-2.24 -0.22833,-0.369443 0.369444,0.228329 0.369443,0.228327 V 82.418886 82.56 H 34.418887 34.27777 Z m -1.92,-2.24 -0.228329,-0.369443 0.369442,0.228329 0.369444,0.228327 V 80.178886 80.32 H 32.498887 32.35777 Z M 202.02667,69.546666 202.24,69.333334 202.45334,69.546666 202.66667,69.76 H 202.24 201.81334 Z M 291.01943,60.96 l -3.2e-4,-8.32 0.0999,4.06111 0.0999,4.061114 -0.0995,4.258886 -0.0995,4.25889 -3.2e-4,-8.32 z m -75.81943,5.6 0.19777,-0.32 h 0.16 0.16 l -0.19777,0.32 -0.19777,0.32 h -0.16 -0.16 z m 11.80945,-0.369443 -0.22833,-0.369443 0.36944,0.228329 0.36944,0.228327 V 66.418886 66.56 h -0.14111 -0.14112 z m -23.06278,-3.363891 0.21333,-0.213332 0.21334,0.213332 0.21333,0.213334 H 204.16 203.73334 Z M 243.68001,61.44 244.2592,60.8 h 0.16 0.16 l -0.57919,0.64 -0.5792,0.64 h -0.16 -0.16 z M 200.32,60.96 199.92164,60.48 h 0.16 0.16 l 0.39836,0.48 0.39837,0.48 h -0.16 -0.16 z m 53.88799,-4.48 9.6e-4,-4.8 0.10932,2.494627 0.10933,2.494624 -0.11015,2.305376 -0.11014,2.305373 9.6e-4,-4.8 z m -41.94132,2.186666 0.21333,-0.213332 0.21334,0.213332 0.21333,0.213334 H 212.48 212.05334 Z M 189.44,57.28 v -0.426666 l 0.21334,0.213332 0.21333,0.213334 -0.21333,0.213334 -0.21334,0.213332 z m 45.12,-0.440819 v -0.120816 l 0.56,-0.439184 0.56001,-0.439181 -0.43919,0.56 -0.43918,0.56 H 234.68082 234.56 Z m -45.41473,-1.985847 0.0252,-0.613334 0.16807,0.42 0.16807,0.42 -0.19333,0.193334 -0.19334,0.193332 0.0252,-0.613332 z m 56.25671,-0.703388 -0.17408,-1.050055 0.29315,0.293149 0.29314,0.293146 -0.11906,0.756905 L 245.57606,55.2 Z m -56.25671,-3.776612 0.0252,-0.613334 0.16807,0.42 0.16807,0.42 -0.19333,0.193334 -0.19334,0.193332 0.0252,-0.613332 z M 219.84,49.6 v -0.426666 l 0.21334,0.213332 0.21333,0.213334 -0.21333,0.213334 -0.21334,0.213332 z m 51.20001,-0.96 v -0.426666 l 0.21333,0.213332 0.21333,0.213334 -0.21333,0.213334 -0.21333,0.213332 z M 211.2,48.32 v -0.426666 l 0.21334,0.213332 0.21333,0.213334 -0.21333,0.213334 L 211.2,48.746666 Z M 189.44,48 v -0.426666 l 0.21334,0.213332 L 189.86667,48 189.65334,48.213334 189.44,48.426666 Z m 30.08,-0.32 v -0.426666 l 0.21334,0.213332 0.21333,0.213334 -0.21333,0.213334 -0.21334,0.213332 z m 62.45053,-0.32 v -0.8 l 0.16141,0.4 0.1614,0.4 -0.1614,0.4 -0.16141,0.4 z m -36.50526,-0.506666 0.0252,-0.613334 0.16807,0.42 0.16807,0.42 -0.19333,0.193334 -0.19334,0.193332 0.0252,-0.613332 z M 301.76001,46.08 v -0.426666 l 0.21333,0.213332 0.21333,0.213334 -0.21333,0.213334 -0.21333,0.213332 z m -69.33334,-0.213334 0.21333,-0.213332 0.21334,0.213332 0.21333,0.213334 H 232.64 232.21334 Z m 21.6786,-0.293332 0.0252,-0.613334 0.16807,0.42 0.16807,0.42 -0.19333,0.193334 -0.19334,0.193332 0.0252,-0.613332 z m -27.7586,-0.666668 0.21333,-0.213332 0.21334,0.213332 0.21333,0.213334 H 226.56 226.13334 Z M 310.72001,44.48 v -0.426666 l 0.21333,0.213332 0.21333,0.213334 -0.21333,0.213334 -0.21333,0.213332 z m -69.33334,-2.453334 0.21334,-0.213332 0.21333,0.213332 0.21333,0.213334 h -0.42666 -0.42667 z M 228.8,38.919181 v -0.120816 l 0.56,-0.439184 0.56,-0.439181 -0.43918,0.56 -0.43918,0.56 H 228.92082 228.8 Z M 307.9696,38 l -0.60959,-0.72 0.72,0.609597 0.72,0.609597 V 38.609597 38.72 h -0.11041 -0.1104 z M 207.14667,35.306666 207.36,35.093334 207.57334,35.306666 207.78667,35.52 H 207.36 206.93334 Z m 29.44,0 0.21334,-0.213332 0.21333,0.213332 0.21333,0.213334 h -0.42666 -0.42667 z M 0.48000001,20.8 1.0591921,20.16 h 0.16 0.16 L 0.80000002,20.8 0.22080797,21.44 h -0.16000001 -0.16 z M 10.56,10.4 12.298138,8.64 h 0.16 0.16 L 10.88,10.4 9.1418626,12.16 h -0.16 -0.16 z M 20,0.64 20.579192,0 h 0.16 0.16 L 20.32,0.64 19.740808,1.28 h -0.16 -0.16 z"
       id="path8168"
       inkscape:connector-curvature="0" />
    <path
       style="fill:#ef8961;stroke-width:0.31999999"
       d="m 72.475234,62.56 -2e-5,-41.28 0.08474,20.535126 0.08474,20.535127 L 72.55997,83.095126 72.47525,103.84 Z m 0.964768,39.84 0.197769,-0.32 h 0.16 0.16 l -0.197769,0.32 -0.19777,0.32 h -0.16 -0.16 z m 4.16,-4.8 0.197769,-0.32 h 0.16 0.16 l -0.197769,0.32 -0.19777,0.32 h -0.16 -0.16 z m 3.84,-4.48 0.197769,-0.32 h 0.16 0.16 l -0.197769,0.32 -0.19777,0.32 h -0.16 -0.16 z m 1.92,-2.24 0.197769,-0.32 h 0.16 0.16 l -0.197769,0.32 -0.19777,0.32 h -0.16 -0.16 z m 6.08,-7.04 0.19777,-0.32 h 0.16 0.16 l -0.19777,0.32 -0.19777,0.32 h -0.16 -0.16 z m 298.506658,-1.493334 0.21335,-0.213332 0.21334,0.213332 0.21331,0.213334 h -0.42665 -0.42666 z m 6.4,0 0.21335,-0.213332 0.21334,0.213332 0.21331,0.213334 h -0.42665 -0.42666 z M 91.360002,81.6 l 0.19777,-0.32 h 0.16 0.16 l -0.19777,0.32 -0.19777,0.32 h -0.16 -0.16 z m 1.92,-2.24 0.19777,-0.32 h 0.16 0.16 l -0.19777,0.32 -0.19777,0.32 h -0.16 -0.16 z m 286.026658,-7.573334 0.21335,-0.213332 0.21334,0.213332 L 379.94666,72 h -0.42665 -0.42666 z m -2.56,-0.32 0.21335,-0.213332 0.21334,0.213332 0.21331,0.213334 h -0.42665 -0.42666 z m 85.12001,-1.92 0.21334,-0.213332 0.21334,0.213332 0.21332,0.213334 h -0.42666 -0.42666 z m 4.16,0 0.21334,-0.213332 0.21334,0.213332 0.21332,0.213334 h -0.42666 -0.42666 z M 329.10205,59.52 v -9.76 l 0.0973,4.88 0.0973,4.88 -0.0973,4.88 -0.0973,4.88 z m 29.76685,-7.04 v -16.8 l 0.0909,8.4 0.0908,8.4 -0.0908,8.4 -0.0909,8.4 z m 15.87636,1.733334 0.0253,-0.613334 0.16806,0.42 0.16806,0.42 -0.19331,0.193334 -0.19334,0.193332 0.0253,-0.613332 z M 383.68001,54.08 v -0.426666 l 0.21334,0.213332 0.21331,0.213334 -0.21331,0.213334 -0.21334,0.213332 z m 14.79424,-1.92 v -1.12 l 0.14633,0.56 0.14634,0.56 -0.14634,0.56 -0.14633,0.56 z m -23.75424,-1.92 v -0.426666 l 0.21334,0.213332 0.21331,0.213334 -0.21331,0.213334 -0.21334,0.213332 z m 8.96,0 v -0.426666 l 0.21334,0.213332 0.21331,0.213334 -0.21331,0.213334 -0.21334,0.213332 z m 62.16717,-1.92 v -1.44 l 0.13865,0.72 0.13869,0.72 -0.13869,0.72 -0.13865,0.72 z M 119.52,47.04 l 0.19777,-0.32 h 0.16 0.16 l -0.19777,0.32 -0.19777,0.32 h -0.16 -0.16 z m 317.28001,-0.96 v -0.426666 l 0.21334,0.213332 0.21332,0.213334 -0.21332,0.213334 -0.21334,0.213332 z m -40.96,-2.08 -0.39837,-0.48 h 0.16 0.16 l 0.39837,0.48 0.39837,0.48 h -0.16 -0.16 z m 39.68,-0.64 -0.39837,-0.48 h 0.16 0.16 l 0.39837,0.48 0.39837,0.48 h -0.16 -0.16 z M 329.09095,36.64 V 31.2 l 0.10688,2.815712 0.10688,2.815712 -0.10755,2.624288 L 329.08961,42.08 V 36.64 Z M 130.72,33.28 l 0.19777,-0.32 h 0.16 0.16 l -0.19777,0.32 -0.19777,0.32 h -0.16 -0.16 z M 358.84334,27.2 v -4 l 0.1136,2 0.1136,2 -0.1136,2 -0.1136,2 z M 142.56,18.88 l 0.19777,-0.32 h 0.16 0.16 l -0.19777,0.32 -0.19777,0.32 h -0.16 -0.16 z m 2.88,-3.2 0.19777,-0.32 h 0.16 0.16 L 145.76,15.68 145.56223,16 h -0.16 -0.16 z m 2.56,-2.88 0.19777,-0.32 h 0.16 0.16 l -0.19777,0.32 -0.19777,0.32 h -0.16 -0.16 z m 2.88,-3.2 0.19777,-0.32 h 0.16 0.16 L 151.2,9.6 151.00223,9.92 h -0.16 -0.16 z m 2.56,-2.88 0.19777,-0.32 h 0.16 0.16 L 153.76,6.72 153.56223,7.04 h -0.16 -0.16 z m 2.88,-3.2 0.19777,-0.32 h 0.16 0.16 L 156.64,3.52 156.44223,3.84 h -0.16 -0.16 z m 2.56,-2.88 0.19777,-0.32 h 0.16 0.16 L 159.2,0.64 159.00223,0.96 h -0.16 -0.16 z"
       id="path8166"
       inkscape:connector-curvature="0" />
    <path
       style="fill:#fe6d34;stroke-width:0.31999999"
       d="m 74.560002,100.99918 v -0.12082 l 0.56,-0.43918 0.56,-0.43918 -0.439181,0.56 -0.439184,0.56 h -0.120816 -0.120819 z m 1.92,-2.239999 v -0.120816 l 0.56,-0.439184 0.56,-0.439181 -0.439181,0.56 -0.439184,0.56 h -0.120816 -0.120819 z m 2.4,-2.759181 0.197769,-0.32 h 0.16 0.16 l -0.197769,0.32 -0.19777,0.32 h -0.16 -0.16 z m 1.92,-2.24 0.197769,-0.32 h 0.16 0.16 l -0.197769,0.32 -0.19777,0.32 h -0.16 -0.16 z m 1.92,-2.24 0.197769,-0.32 h 0.16 0.16 l -0.197769,0.32 -0.19777,0.32 h -0.16 -0.16 z m 1.76,-2.040819 v -0.120816 l 0.56,-0.439184 0.56,-0.439181 -0.439181,0.56 -0.439184,0.56 h -0.120816 -0.120819 z m 1.92,-2.24 v -0.120816 l 0.56,-0.439184 0.56,-0.439181 -0.439181,0.56 -0.439184,0.56 h -0.120816 -0.120819 z m 1.92,-2.24 v -0.120816 l 0.56,-0.439184 0.56,-0.439181 -0.439181,0.56 -0.439184,0.56 h -0.120816 -0.120819 z m 2.4,-2.759181 0.19777,-0.32 h 0.16 0.16 l -0.19777,0.32 -0.19777,0.32 h -0.16 -0.16 z m 298.020008,0.101405 0.42,-0.168071 0.19334,0.193332 0.19331,0.193334 -0.61331,-0.02528 -0.61334,-0.02525 0.42,-0.16807 z m 4.8,0 0.42,-0.168071 0.19334,0.193332 0.19331,0.193334 -0.61331,-0.02528 -0.61334,-0.02525 0.42,-0.16807 z M 92.640002,80 l 0.19777,-0.32 h 0.16 0.16 l -0.19777,0.32 -0.19777,0.32 h -0.16 -0.16 z m 309.760008,-0.32 0.19776,-0.32 h 0.16 0.16 l -0.19776,0.32 -0.19776,0.32 h -0.16 -0.16 z m -23.39056,-0.369443 -0.22832,-0.369443 0.36944,0.228329 0.36944,0.228327 V 79.538886 79.68 h -0.14112 -0.14112 z M 406.40001,72.64 v -0.426666 l 0.21334,0.213332 0.21331,0.213334 -0.21331,0.213334 -0.21334,0.213332 z m -22.61335,-0.213334 0.21335,-0.213332 0.21334,0.213332 0.21331,0.213334 h -0.42665 -0.42666 z M 406.72001,70.4 v -0.426666 l 0.21334,0.213332 0.21331,0.213334 -0.21331,0.213334 -0.21334,0.213332 z m 58.66666,-0.853334 0.21334,-0.213332 0.21334,0.213332 0.21332,0.213334 h -0.42666 -0.42666 z M 367.5089,52.48 v -16.8 l 0.0909,8.4 0.0908,8.4 -0.0908,8.4 -0.0909,8.4 z m 19.15776,16.426666 0.21335,-0.213332 0.21334,0.213332 0.21331,0.213334 h -0.42665 -0.42666 z m 2.88,0 0.21335,-0.213332 0.21334,0.213332 0.21331,0.213334 h -0.42665 -0.42666 z M 415.83172,46.24 l 6e-5,-23.04 0.0881,11.623542 0.0881,11.623543 -0.0882,11.416457 -0.0882,11.416458 z m 8.62979,13.6 V 50.4 l 0.0978,4.72 0.0978,4.72 -0.0978,4.72 -0.0978,4.72 z M 437.26254,59.2 V 49.12 l 0.0969,5.04 0.0969,5.04 -0.0969,5.04 -0.0969,5.04 z m 8.63974,0.16 -2.2e-4,-9.92 0.0972,4.860029 0.0972,4.860029 -0.097,5.059971 -0.097,5.059971 z m 24.49773,7.84 v -0.426666 l 0.21334,0.213332 0.21332,0.213334 -0.21332,0.213334 -0.21334,0.213332 z m -74.4,-0.96 0.19776,-0.32 h 0.16 0.16 l -0.19776,0.32 -0.19776,0.32 h -0.16 -0.16 z m 1.6,-1.6 0.19776,-0.32 h 0.16 0.16 l -0.19776,0.32 -0.19776,0.32 h -0.16 -0.16 z m -19.23056,-0.369443 -0.22832,-0.369443 0.36944,0.228329 0.36944,0.228327 V 64.498886 64.64 h -0.14112 -0.14112 z M 470.08001,64.32 v -0.426666 l 0.21334,0.213332 0.21332,0.213334 -0.21332,0.213334 -0.21334,0.213332 z m -14.72,-1.6 v -0.426666 l 0.21334,0.213332 0.21332,0.213334 -0.21332,0.213334 -0.21334,0.213332 z m -69.12,-2.08 -0.39837,-0.48 h 0.16 0.16 l 0.39837,0.48 0.39837,0.48 h -0.16 -0.16 z m -282.26668,-5.839888 9.09333,-0.09026 0.50667,-0.394928 L 114.08,53.92 l -0.43918,0.56 -0.43918,0.56 -9.16082,-0.07481 -9.160818,-0.07481 z m 294.45193,-1.226778 0.0253,-0.613334 0.16806,0.42 0.16806,0.42 -0.19331,0.193334 -0.19334,0.193332 0.0253,-0.613332 z M 374.81591,52.16 V 50.4 l 0.13331,0.88 0.13328,0.88 -0.13328,0.88 -0.13331,0.88 z M 114.72,52.8 l 0.19777,-0.32 h 0.16 0.16 l -0.19777,0.32 -0.19777,0.32 h -0.16 -0.16 z m 1.6,-1.92 0.19777,-0.32 h 0.16 0.16 l -0.19777,0.32 -0.19777,0.32 h -0.16 -0.16 z m 282.10526,-0.186666 0.0253,-0.613334 0.16806,0.42 0.16806,0.42 -0.19331,0.193334 -0.19334,0.193332 0.0253,-0.613332 z M 383.68001,49.6 v -0.426666 l 0.21334,0.213332 0.21331,0.213334 -0.21331,0.213334 -0.21334,0.213332 z M 117.6,49.28 l 0.19777,-0.32 h 0.16 0.16 l -0.19777,0.32 -0.19777,0.32 h -0.16 -0.16 z m 2.88,-3.52 0.19777,-0.32 h 0.16 0.16 l -0.19777,0.32 -0.19777,0.32 h -0.16 -0.16 z m 1.28,-1.6 0.19777,-0.32 h 0.16 0.16 l -0.19777,0.32 -0.19777,0.32 h -0.16 -0.16 z m 264.16001,-0.120819 v -0.120816 l 0.56,-0.439184 0.56,-0.439181 -0.43917,0.56 -0.4392,0.56 h -0.1208 -0.12083 z M 123.36,42.24 l 0.19777,-0.32 h 0.16 0.16 l -0.19777,0.32 -0.19777,0.32 h -0.16 -0.16 z m 1.28,-1.6 0.19777,-0.32 h 0.16 0.16 l -0.19777,0.32 -0.19777,0.32 h -0.16 -0.16 z M 378.40001,40 l 0.19776,-0.32 h 0.16 0.16 l -0.19776,0.32 -0.19776,0.32 h -0.16 -0.16 z m 19.48944,-0.369443 -0.22832,-0.369443 0.36944,0.228329 0.36944,0.228327 V 39.858886 40 h -0.14112 -0.14112 z M 424.45975,31.68 V 23.2 l 0.0994,4.24 0.0994,4.24 -0.0994,4.24 -0.0994,4.24 z m -44.45974,6.72 0.19776,-0.32 h 0.16 0.16 l -0.19776,0.32 -0.19776,0.32 h -0.16 -0.16 z m 16.28944,-0.369443 -0.22832,-0.369443 0.36944,0.228329 0.36944,0.228327 V 38.258886 38.4 h -0.14112 -0.14112 z M 127.52,37.12 127.71777,36.8 h 0.16 0.16 l -0.19777,0.32 -0.19777,0.32 h -0.16 -0.16 z m 1.28,-1.6 0.19777,-0.32 h 0.16 0.16 l -0.19777,0.32 -0.19777,0.32 h -0.16 -0.16 z m 258.18666,-0.213334 0.21335,-0.213332 0.21334,0.213332 0.21331,0.213334 h -0.42665 -0.42666 z m 2.88,0 0.21335,-0.213332 0.21334,0.213332 0.21331,0.213334 h -0.42665 -0.42666 z m 43.20001,0 0.21334,-0.213332 0.21334,0.213332 0.21332,0.213334 h -0.42666 -0.42666 z m 2.88,0 0.21334,-0.213332 0.21334,0.213332 0.21332,0.213334 h -0.42666 -0.42666 z M 367.48334,27.2 v -4 l 0.1136,2 0.1136,2 -0.1136,2 -0.1136,2 z M 106.32,21.20013 l 11.44,-0.08821 11.44,0.08821 11.44,0.08821 H 117.76 94.880002 Z m 35.12,-1.160948 V 19.918364 L 142,19.479182 142.56,19.04 l -0.43918,0.56 -0.43918,0.56 H 141.56082 141.44 Z M 144.48,16.64 145.0592,16 h 0.16 0.16 l -0.5792,0.64 -0.57919,0.64 h -0.16 -0.16 z m 2.4,-2.680818 V 13.838364 L 147.44,13.399182 148,12.96 l -0.43918,0.56 -0.43918,0.56 H 147.00082 146.88 Z M 149.92,10.56 150.4992,9.92 h 0.16 0.16 l -0.5792,0.64 -0.57919,0.64 h -0.16 -0.16 z m 2.4,-2.6808176 V 7.7583645 L 152.88,7.3191824 153.44,6.88 153.00082,7.44 152.56164,8 H 152.44082 152.32 Z m 2.88,-3.2 V 4.5583645 L 155.76,4.1191824 156.32,3.68 155.88082,4.24 155.44164,4.8 H 155.32082 155.2 Z M 158.24,1.28 158.43777,0.96 h 0.16 0.16 L 158.56,1.28 158.36223,1.6 h -0.16 -0.16 z"
       id="path8164"
       inkscape:connector-curvature="0" />
    <path
       style="fill:#fd4700;stroke-width:0.31999999"
       d="M 72.640002,62.300493 V 21.24644 l 11.12,-10.615872 11.12,-10.61587136 L 127.17578,0.00734832 159.47156,0 l -0.64954,0.72 -0.64955,0.72 -8.73704,9.76 -8.73704,9.76 -22.90919,0.16 -22.909198,0.16 -0.08721,5.837355 -0.08721,5.837355 18.089198,0.08264 18.0892,0.08265 -8.74167,10.72 -8.74167,10.72 -9.26032,0.16 -9.260322,0.16 -0.16,11.525027 -0.16,11.525027 -5.934493,6.874973 -5.934493,6.874973 -5.025507,5.83727 -5.025507,5.83727 z m 314.720008,19.952966 -2.24,-0.259725 -1.43821,-0.390259 -1.43821,-0.390259 -1.12179,-0.573984 -1.12179,-0.573987 -1.20269,-1.170634 -1.20269,-1.170637 -0.64179,-1.258048 -0.64182,-1.258051 -0.1962,-1.877024 -0.19619,-1.877024 4.28071,0.578186 4.28067,0.578182 0.72,0.01491 0.72,0.01491 v 0.474951 0.474953 l 0.93376,1.045047 0.93373,1.045049 h 3.46627 3.46624 l 1.18585,-0.58975 1.18586,-0.589747 0.65414,-1.351284 0.65415,-1.351283 v -3.92423 -3.924231 l -1.48029,1.480285 -1.48029,1.480288 -1.51533,0.767885 -1.51536,0.767882 -2.07155,0.360748 -2.07158,0.360749 -2.03264,-0.368589 -2.03264,-0.368588 -1.59155,-0.8065 -1.59156,-0.806502 -1.52931,-1.570067 -1.52928,-1.570071 -0.97238,-1.998496 -0.97242,-1.998499 -0.48691,-1.907232 -0.48691,-1.907232 0.005,-3.692768 0.005,-3.692768 0.47232,-2.003286 0.47232,-2.003287 0.9543,-1.890508 0.95434,-1.890509 1.64681,-1.621024 1.64679,-1.621027 1.64182,-0.776647 1.64183,-0.776643 2.0528,-0.372189 2.0528,-0.372192 2.07158,0.360749 2.07155,0.360749 1.53088,0.77575 1.53085,0.775747 1.62477,1.650596 1.62477,1.650595 v -2.443437 -2.443437 h 4 4 l -0.0112,16.88 -0.0112,16.88 -0.42887,2.4 -0.42886,2.4 -0.74647,1.586499 -0.74646,1.5865 -1.20022,1.200224 -1.20023,1.200224 -1.23248,0.628758 -1.23248,0.628762 -1.9008,0.488326 -1.9008,0.48833 -3.2,0.15278 -3.2,0.152781 -2.24,-0.259725 z m 6.49693,-20.461289 1.19145,-0.607831 0.90797,-0.907974 0.908,-0.907978 0.59024,-1.156963 0.59024,-1.156963 0.3784,-2.172935 0.3784,-2.172937 -0.20042,-1.954295 L 398.40084,48.8 397.88666,47.151965 397.37252,45.50393 396.44663,44.380698 395.52078,43.257466 394.13937,42.588733 392.75796,41.92 h -1.76864 -1.76864 l -1.36285,0.720685 -1.36285,0.720685 -0.919,1.279315 -0.91901,1.279315 -0.52909,2.08 -0.52909,2.08 0.17703,3.04 0.17702,3.04 0.39434,1.12 0.39433,1.12 0.89767,1.320832 0.89769,1.320832 1.37155,0.678915 1.37159,0.678915 1.69273,2.53e-4 1.69277,2.53e-4 z m 67.64393,7.644166 -1.37913,-0.289498 -1.32848,-0.733417 -1.32848,-0.733421 -0.6992,-1.03808 -0.6992,-1.038083 -0.35319,-2.028131 -0.35318,-2.028132 V 52.053789 42.56 h -2.08 -2.08 V 39.2 35.84 h 2.08 2.08 v -3.175382 -3.175384 l 4.17981,-2.424617 4.17984,-2.424617 h 0.14016 0.14019 v 5.6 5.6 h 3.04 3.04 v 3.36 3.36 h -3.04 -3.04 v 9.219661 9.219661 l 0.68966,0.740278 0.6897,0.740278 1.7903,-0.170265 1.79034,-0.170266 0.50304,-0.202051 0.50304,-0.202054 0.33632,3.29238 0.33632,3.292378 -0.35936,0.229645 -0.35936,0.229645 -1.47059,0.31638 -1.47059,0.316381 -2.04941,0.15689 -2.04941,0.156889 z M 320.00001,46.24 V 23.36 h 15.68 15.68 v 3.84 3.84 h -11.2 -11.2 v 5.44 5.44 h 9.6 9.6 v 3.84 3.84 h -9.6 -9.6 v 9.76 9.76 h -4.48 -4.48 z m 39.04,6.24 V 35.84 h 4.16 4.16 v 16.64 16.64 h -4.16 -4.16 z m 56.96,-6.24 V 23.36 h 4.16 4.16 V 31.68 40 h 0.19091 0.19088 l 1.48912,-1.313331 1.48909,-1.313328 1.46016,-0.741738 1.46016,-0.741737 1.99651,-0.362039 1.99655,-0.362038 1.50329,0.202675 1.50333,0.202675 1.4969,0.472474 1.49689,0.472473 1.29805,0.940298 1.29805,0.940298 0.80915,1.281798 0.80915,1.281802 0.47591,1.827091 0.4759,1.827091 V 56.867232 69.12 h -4.12256 -4.12256 l -0.128,-11.6 -0.12803,-11.6 -0.62941,-1.25935 -0.62944,-1.259348 -0.87571,-0.63992 -0.87568,-0.639923 -1.8904,-0.136736 -1.8904,-0.136739 -1.16202,0.383507 -1.16205,0.383507 -0.96592,0.812756 -0.96588,0.812752 -0.63549,1.245651 -0.63549,1.245651 -0.30061,2.314096 -0.30057,2.314096 -0.01,8.88 -0.01,8.88 h -4.16001 -4.16 V 46.24 Z m -56.96,-19.04 v -3.84 h 4.16 4.16 v 3.84 3.84 h -4.16 -4.16 z"
       id="path8162"
       inkscape:connector-curvature="0" />
    <path
       style="fill:#5b5a5a;stroke-width:0.31999999"
       d="m 53.120001,104.16 -0.398365,-0.48 h 0.16 0.16 l 0.398365,0.48 0.398365,0.48 h -0.16 -0.16 z m -2.110403,-2.48 -0.609597,-0.72 0.72,0.6096 0.72,0.60959 v 0.11041 0.1104 h -0.110403 -0.110403 z m -2.049597,-2.32 -0.398365,-0.48 h 0.16 0.16 l 0.398365,0.48 0.398365,0.48 h -0.16 -0.16 z m -1.92,-2.24 -0.398365,-0.48 h 0.16 0.16 l 0.398365,0.48 0.398365,0.48 h -0.16 -0.16 z m -1.92,-2.24 -0.398365,-0.48 h 0.16 0.16 l 0.398365,0.48 0.398365,0.48 h -0.16 -0.16 z m -2.110403,-2.48 -0.609597,-0.72 0.72,0.609597 0.72,0.609597 V 93.009597 93.12 H 43.729598 43.619195 Z M 40.960001,90.08 40.561636,89.6 h 0.16 0.16 l 0.398365,0.48 0.398365,0.48 h -0.16 -0.16 z m -1.92,-2.24 -0.398365,-0.48 h 0.16 0.16 l 0.398365,0.48 0.398365,0.48 h -0.16 -0.16 z m -2.110403,-2.48 -0.609597,-0.72 0.72,0.609597 0.72,0.609597 V 85.969597 86.08 h -0.110403 -0.110404 z m -2.049597,-2.32 -0.398365,-0.48 h 0.16 0.16 l 0.398365,0.48 0.398365,0.48 h -0.16 -0.16 z m -1.92,-2.24 -0.398365,-0.48 h 0.16 0.16 l 0.398365,0.48 0.398365,0.48 h -0.16 -0.16 z m -1.772623,-2.16 -0.152536,-0.4 0.08263,-28.48 0.08263,-28.48 0.159951,28.880026 0.159951,28.880025 -0.09004,-2.5e-5 -0.09004,-2.6e-5 z M 202.82,69.541405 l 0.42,-0.168071 0.19334,0.193332 0.19333,0.193334 -0.61333,-0.02525 -0.61334,-0.02525 0.42,-0.16807 z m 4.48,0 0.42,-0.168071 0.19334,0.193332 0.19333,0.193334 -0.61333,-0.02525 -0.61334,-0.02525 0.42,-0.16807 z m 26.56,0 0.42,-0.168071 0.19334,0.193332 0.19333,0.193334 -0.61333,-0.02525 -0.61334,-0.02525 0.42,-0.16807 z m 3.84001,0 0.42,-0.168071 0.19333,0.193332 0.19333,0.193334 -0.61333,-0.02525 -0.61333,-0.02525 0.42,-0.16807 z m -5.59334,-0.314739 0.21333,-0.213332 0.21334,0.213332 0.21333,0.213334 H 232.32 231.89334 Z M 177.11019,50.08 l -8e-5,-19.2 0.0897,9.497037 0.0897,9.497037 -0.0896,9.702963 -0.0896,9.702963 z m 85.11872,2.4 v -16.8 l 0.0909,8.4 0.0909,8.4 -0.0909,8.4 -0.0909,8.4 z m 8.63148,8 v -8.8 l 0.0988,4.4 0.0988,4.4 -0.0988,4.4 -0.0988,4.4 z m 31.36306,-1.92 V 47.84 l 0.096,5.36 0.096,5.36 -0.096,5.36 -0.096,5.36 z M 214.24,67.2 l 0.19777,-0.32 h 0.16 0.16 l -0.19777,0.32 -0.19777,0.32 h -0.16 -0.16 z m 29.76001,0 0.19776,-0.32 h 0.16 0.16 l -0.19776,0.32 -0.19777,0.32 h -0.16 -0.16 z m -16.35056,-0.369443 -0.22833,-0.369443 0.36944,0.228329 0.36944,0.228327 V 67.058886 67.2 h -0.14111 -0.14112 z m -32.96,-0.32 -0.22833,-0.369443 0.36944,0.228329 L 195.2,66.59777 V 66.738886 66.88 h -0.14111 -0.14112 z m 50.43056,-0.07138 v -0.120816 l 0.56,-0.439184 0.56,-0.439181 -0.43919,0.56 -0.43918,0.56 h -0.12082 -0.12081 z M 216.16,65.6 l 0.5792,-0.64 h 0.16 0.16 l -0.5792,0.64 -0.57919,0.64 h -0.16 -0.16 z m -23.39055,-1.009443 -0.22833,-0.369443 0.36944,0.228329 0.36944,0.228327 V 64.818886 64.96 h -0.14111 -0.14112 z M 254.40001,64.64 v -0.426666 l 0.21333,0.213332 0.21333,0.213334 -0.21333,0.213334 -0.21333,0.213332 z m -14.29334,-1.173334 0.21334,-0.213332 0.21333,0.213332 0.21333,0.213334 h -0.42666 -0.42667 z m -33.28,-0.64 0.21333,-0.213332 0.21334,0.213332 0.21333,0.213334 H 207.04 206.61334 Z M 234.88,62.24 234.48164,61.76 h 0.16 0.16 l 0.39836,0.48 0.39837,0.48 h -0.16 -0.16 z m 19.26239,-0.32 0.0119,-0.96 0.14752,0.56609 0.14752,0.566089 -0.15938,0.393911 -0.15937,0.39391 0.0119,-0.96 z m -53.05294,-0.209443 -0.22833,-0.369443 0.36944,0.228329 L 201.6,61.79777 V 61.938886 62.08 h -0.14111 -0.14112 z M 225.01053,61.12 v -0.8 l 0.1614,0.4 0.16141,0.4 -0.16141,0.4 -0.1614,0.4 z m -6.83053,-1.498595 0.42,-0.168071 0.19334,0.193332 0.19333,0.193334 -0.61333,-0.02525 -0.61334,-0.02525 0.42,-0.16807 z M 233.65053,59.2 v -0.8 l 0.1614,0.4 0.16141,0.4 -0.16141,0.4 -0.1614,0.4 z m -17.54386,0.106666 0.21333,-0.213332 0.21334,0.213332 0.21333,0.213334 H 216.32 215.89334 Z m -2.24,-0.32 0.21333,-0.213332 0.21334,0.213332 L 214.50667,59.2 H 214.08 213.65334 Z m 11.1186,-0.293332 0.0252,-0.613334 0.16807,0.42 0.16807,0.42 -0.19333,0.193334 -0.19334,0.193332 0.0252,-0.613332 z m -13.3586,-0.02666 0.21333,-0.213331 0.21334,0.213331 0.21333,0.213322 H 211.84 211.41334 l 0.21333,-0.213334 z M 245.53153,56.48 l 0.004,-1.6 0.13373,0.8844 0.13374,0.8844 -0.1381,0.7156 -0.13811,0.7156 0.004,-1.6 z M 189.44,56.64 v -0.426666 l 0.21334,0.213332 0.21333,0.213334 -0.21333,0.213334 -0.21334,0.213332 z m 8.69053,-0.96 v -0.8 l 0.1614,0.4 0.16141,0.4 -0.16141,0.4 -0.1614,0.4 z m 40.05614,-0.853334 0.21334,-0.213332 0.21333,0.213332 0.21333,0.213334 h -0.42666 -0.42667 z m 1.28,-0.32 0.21334,-0.213332 0.21333,0.213332 0.21333,0.213334 h -0.42666 -0.42667 z M 189.21916,52.64 l 0.003,-1.92 0.12949,1.045731 0.12949,1.045731 -0.13276,0.874269 -0.13275,0.874269 0.003,-1.92 z m 53.12751,1.226666 0.21334,-0.213332 0.21333,0.213332 0.21333,0.213334 h -0.42666 -0.42667 z M 227.2,53.639181 v -0.120816 l 0.56,-0.439184 0.56,-0.439181 -0.43918,0.56 -0.43918,0.56 H 227.32082 227.2 Z m 16.42667,-0.09251 0.21334,-0.213332 0.21333,0.213332 0.21333,0.213334 h -0.42666 -0.42667 z M 290.97153,51.36 l 0.004,-1.6 0.13374,0.8844 0.13373,0.8844 -0.1381,0.7156 -0.1381,0.7156 0.004,-1.6 z m -36.77616,-2.4 v -3.04 l 0.11985,1.52 0.11985,1.52 -0.11985,1.52 -0.11985,1.52 z m -34.3301,1.413334 0.0252,-0.613334 0.16807,0.42 0.16807,0.42 -0.19333,0.193334 -0.19334,0.193332 0.0252,-0.613332 z m 16.0814,-0.666668 0.21334,-0.213332 0.21333,0.213332 0.21333,0.213334 h -0.42666 -0.42667 z M 271.04001,48 v -0.426666 l 0.21333,0.213332 0.21333,0.213334 -0.21333,0.213334 -0.21333,0.213332 z M 211.2,47.68 v -0.426666 l 0.21334,0.213332 0.21333,0.213334 -0.21333,0.213334 -0.21334,0.213332 z m 80.00001,0 v -0.426666 l 0.21333,0.213332 0.21333,0.213334 -0.21333,0.213334 -0.21333,0.213332 z M 198.4,47.36 v -0.426666 l 0.21334,0.213332 0.21333,0.213334 -0.21333,0.213334 -0.21334,0.213332 z m 112.4007,-1.44 -0.006,-1.28 0.14563,0.556269 0.14562,0.556269 -0.13917,0.723731 -0.13916,0.723731 -0.006,-1.28 z m -28.85543,0.293334 0.0253,-0.613334 0.16807,0.42 0.16807,0.42 -0.19333,0.193334 -0.19334,0.193332 0.0253,-0.613332 z M 245.49053,45.76 v -0.8 l 0.1614,0.4 0.16141,0.4 -0.16141,0.4 -0.1614,0.4 z m -12.42386,0.106666 0.21333,-0.213332 0.21334,0.213332 0.21333,0.213334 H 233.28 232.85334 Z m -2.24,-0.32 0.21333,-0.213332 0.21334,0.213332 0.21333,0.213334 H 231.04 230.61334 Z M 301.76001,45.44 v -0.426666 l 0.21333,0.213332 0.21333,0.213334 -0.21333,0.213334 -0.21333,0.213332 z m -72.85334,-0.213334 0.21333,-0.213332 0.21334,0.213332 0.21333,0.213334 H 229.12 228.69334 Z m -1.92,-0.32 0.21333,-0.213332 0.21334,0.213332 0.21333,0.213334 H 227.2 226.77334 Z M 200,44.039181 v -0.120816 l 0.56,-0.439184 0.56,-0.439181 -0.43918,0.56 -0.43918,0.56 H 200.12082 200 Z m 72.64001,0 v -0.120816 l 0.56,-0.439184 0.56,-0.439181 -0.43918,0.56 -0.43919,0.56 h -0.12082 -0.12081 z m 20.16,0 v -0.120816 l 0.56,-0.439184 0.56,-0.439181 -0.43918,0.56 -0.43919,0.56 h -0.12081 -0.12082 z m -57.92001,-0.32 v -0.120816 l 0.56,-0.439184 0.56001,-0.439181 -0.43919,0.56 -0.43918,0.56 H 235.00082 234.88 Z m 66.04945,-0.248624 -0.22833,-0.369443 0.36944,0.228329 0.36945,0.228327 V 43.698886 43.84 h -0.14112 -0.14111 z M 253.76001,43.2 v -0.426666 l 0.21333,0.213332 0.21333,0.213334 -0.21333,0.213334 -0.21333,0.213332 z m 26.88,-0.16 -0.39837,-0.48 h 0.16 0.16 l 0.39837,0.48 0.39836,0.48 h -0.16 -0.16 z m 29.76,-0.16 v -0.426666 l 0.21333,0.213332 0.21333,0.213334 -0.21333,0.213334 -0.21333,0.213332 z m -72.85334,-0.853334 0.21334,-0.213332 0.21333,0.213332 0.21333,0.213334 h -0.42666 -0.42667 z m 4.48,0 0.21334,-0.213332 0.21333,0.213332 0.21333,0.213334 h -0.42666 -0.42667 z M 253.44001,41.6 v -0.426666 l 0.21333,0.213332 0.21333,0.213334 -0.21333,0.213334 -0.21333,0.213332 z m -38.09723,-2.16 -1.10278,-1.2 1.2,1.102774 1.2,1.102772 v 0.09723 0.09723 h -0.0972 -0.0972 z M 228,40 l 0.19777,-0.32 h 0.16 0.16 L 228.32,40 l -0.19776,0.32 h -0.16 -0.16 z m 42.12358,-2 0.0436,-2.32 0.10402,0.64 0.10402,0.64 0.0924,1.680198 0.0924,1.680199 -0.24,-1.99e-4 -0.24,-1.98e-4 z m 38.80587,1.310557 -0.22833,-0.369443 0.36944,0.228329 0.36945,0.228327 V 39.538886 39.68 h -0.14112 -0.14111 z M 272.48001,38.08 l 0.19777,-0.32 h 0.16 0.16 l -0.19777,0.32 -0.19777,0.32 h -0.16 -0.16 z m 20.16,-0.32 0.19777,-0.32 h 0.16 0.16 l -0.19777,0.32 -0.19777,0.32 h -0.16 -0.16 z m -92.21334,-2.133334 0.21333,-0.213332 0.21334,0.213332 0.21333,0.213334 H 200.64 200.21334 Z m 8,0 0.21333,-0.213332 0.21334,0.213332 0.21333,0.213334 H 208.64 208.21334 Z m -6.24667,-0.325261 0.42,-0.168071 0.19334,0.193332 0.19333,0.193334 -0.61333,-0.02528 -0.61334,-0.02525 0.42,-0.16807 z m 4.16,0 0.42,-0.168071 0.19334,0.193332 0.19333,0.193334 -0.61333,-0.02528 -0.61334,-0.02525 0.42,-0.16807 z m 31.02001,0.0067 0.4,-0.161405 0.4,0.161405 0.4,0.161405 h -0.8 -0.8 z m 5.43391,0.0019 0.39391,-0.159373 0.56609,0.147517 0.56609,0.147517 -0.96,0.01184 -0.96,0.01187 0.39391,-0.159376 z m 35.86609,-0.0087 0.42,-0.168071 0.19333,0.193332 0.19333,0.193334 -0.61333,-0.02528 -0.61333,-0.02525 0.42,-0.16807 z m 3.52,0 0.42,-0.168071 0.19333,0.193332 0.19333,0.193334 -0.61333,-0.02528 -0.61333,-0.02525 0.42,-0.16807 z m 16,0 0.42,-0.168071 0.19333,0.193332 0.19333,0.193334 -0.61333,-0.02528 -0.61333,-0.02525 0.42,-0.16807 z m 3.52,0 0.42,-0.168071 0.19333,0.193332 0.19333,0.193334 -0.61333,-0.02528 -0.61333,-0.02525 0.42,-0.16807 z M 154.36332,27.2 v -4 l 0.11361,2 0.11361,2 -0.11361,2 -0.11361,2 z M 3.8400001,17.44 6.5458702,14.72 h 0.16 0.16 l -2.7058701,2.72 -2.7058703,2.72 h -0.16 -0.16 z M 77.120002,16.8 77.871563,16 h 0.16 0.16 l -0.751561,0.8 -0.751562,0.8 h -0.16 -0.16 z m 7.04,-6.72 0.751561,-0.8 h 0.16 0.16 l -0.751561,0.8 -0.751562,0.8 h -0.16 -0.16 z M 14.88,6.08 17.424986,3.52 h 0.16 0.16 L 15.2,6.08 12.655015,8.64 h -0.16 -0.16 z M 91.360002,3.2 91.939196,2.56 h 0.16 0.16 L 91.680002,3.2 91.100808,3.84 h -0.16 -0.16 z"
       id="path8160"
       inkscape:connector-curvature="0" />
    <path
       style="fill:#000000;stroke-width:0.31999999"
       d="m 42.480001,91.566653 -11.12,-12.883338 V 50.064701 21.446088 L 15.870451,21.363044 0.38090113,21.28 10.670451,10.644695 20.96,0.00938939 57.905339,0.00469469 94.85068,0 l -4.615411,4.4 -4.615408,4.4 -6.56993,6.307376 -6.569929,6.307375 -9.358804,0.01262 -9.3588,0.01262 -0.0812,41.504995 -0.0812,41.504994 z m 159.420089,-22.126151 -1.77992,-0.282476 -1.72653,-0.680532 -1.72652,-0.680534 -1.49271,-1.095747 -1.4927,-1.095744 -1.18556,-1.721376 -1.18555,-1.721373 -0.8172,-2.20136 -0.81719,-2.20136 -0.15056,-4.16 -0.15056,-4.16 0.50785,-2.160006 0.50785,-2.160004 0.99519,-1.97144 0.99518,-1.971443 1.67618,-1.676185 1.67619,-1.676186 1.69289,-0.85785 1.69288,-0.857852 2.28036,-0.481828 2.28034,-0.481827 2.17073,0.207744 2.17073,0.207744 1.66927,0.494487 1.66927,0.494483 1.32039,0.772269 1.32037,0.772268 1.65694,1.751968 1.65694,1.751965 0.7676,1.680848 0.7676,1.680845 0.49857,1.92 0.49857,1.92 0.20461,3.12 0.20462,3.12 h -11.11623 -11.11623 l 0.22393,1.36 0.22393,1.36 0.3957,0.96 0.39571,0.96 0.91525,1.085536 0.91526,1.085536 1.29324,0.587437 1.29323,0.587437 1.6959,0.007 1.69589,0.007 0.86411,-0.449597 0.8641,-0.449594 0.68257,-0.750406 0.68257,-0.750403 0.5024,-0.995031 0.50239,-0.99503 4.09462,0.62128 4.09462,0.62128 0.14269,0.142694 0.1427,0.142691 -0.86234,1.758276 -0.86234,1.758278 -1.30444,1.415139 -1.30442,1.415143 -1.49551,0.949398 -1.49551,0.949398 -1.74988,0.511744 -1.74988,0.511748 -2.57012,0.137987 -2.57012,0.137987 -1.77991,-0.28248 z M 211.52,48.697005 V 47.79401 l -0.49806,-1.461735 -0.49806,-1.461734 -1.1445,-1.144503 -1.14451,-1.144499 -1.11329,-0.367421 -1.1133,-0.36742 -1.70487,0.141379 -1.70488,0.141382 -1.25993,0.833783 -1.25993,0.833782 -0.83933,1.68432 L 198.4,47.165661 V 48.382829 49.6 h 6.56 6.56 z m 21.44,20.618035 -1.76,-0.391322 -1.28,-0.673817 -1.28,-0.673818 -1.0236,-1.068041 -1.02361,-1.068042 -0.69337,-1.569734 -0.69336,-1.569738 -0.0109,-2.270262 -0.0109,-2.270266 0.72405,-1.672656 0.72406,-1.672656 1.34973,-1.244141 1.34974,-1.244141 1.89402,-0.710355 1.89402,-0.710355 5.44,-1.222461 5.44,-1.222464 0.88,-0.342464 0.88,-0.342467 -6.4e-4,-1.04792 -6.4e-4,-1.04792 -0.5595,-1.12 -0.55951,-1.12 -1.12,-0.559504 -1.12,-0.559501 -2.40499,-6.4e-4 -2.40499,-6.4e-4 -1.11501,0.589955 -1.11501,0.589959 -0.8,1.43088 -0.8,1.430883 -3.90153,-0.615853 -3.90153,-0.615853 0.63122,-1.601411 0.63122,-1.601408 0.97821,-1.421776 0.9782,-1.421776 1.31289,-0.951053 1.31289,-0.951052 2.25922,-0.698474 2.25921,-0.698477 4.32,0.01894 4.32,0.01894 1.84009,0.498416 1.84009,0.498416 1.42907,0.837491 1.42907,0.837488 0.82375,1.08 0.82376,1.079997 0.35753,1.072867 0.35754,1.072868 0.20878,11.04 0.20879,11.04 0.65169,1.76 0.65169,1.76 0.24331,0.56 0.24332,0.56 h -4.31265 -4.31265 l -0.40877,-1.52 -0.40876,-1.52 -0.23533,-0.266506 -0.23533,-0.266506 -1.55749,1.190752 -1.5575,1.190756 -1.34012,0.575859 -1.34012,0.575859 -1.83865,0.339891 -1.83865,0.339895 -0.98123,-0.02682 -0.98123,-0.02682 -1.76,-0.391322 z m 8.40229,-6.103194 1.12045,-0.468153 1.01013,-0.849962 1.01012,-0.849965 0.51719,-1.000137 0.51719,-1.000135 0.15492,-2.961747 0.15492,-2.961747 h -0.20584 -0.20584 l -4.51488,1.107514 -4.51487,1.107516 -0.75843,0.496941 -0.75843,0.496941 -0.4798,0.732272 -0.47981,0.732272 -0.18045,0.94327 -0.18046,0.943274 0.7358,1.416323 0.7358,1.416323 1.11501,0.583677 1.11501,0.583677 h 1.48591 1.48592 z M 168,50.08 V 31.04 h -6.72 -6.72 V 27.2 23.36 h 18.08 18.08 v 3.84 3.84 h -6.88 -6.88 V 50.08 69.12 H 172.48 168 Z m 94.40001,2.4 V 35.84 h 3.84 3.84 v 2.24 2.24 h 0.0981 0.0981 l 1.54225,-1.436208 1.54225,-1.436211 1.63964,-0.800928 1.63965,-0.800928 1.88283,-0.346999 1.88284,-0.346998 1.63716,0.20463 1.63717,0.204631 1.98024,0.94983 1.98024,0.949831 0.8133,0.96656 0.81331,0.96656 0.29274,0.523084 0.29273,0.523085 1.71372,-1.548806 1.71372,-1.54881 2.08,-0.982233 2.08,-0.982234 2.88,0.01555 2.88,0.01555 2.00861,0.903082 2.00862,0.903078 0.94942,1.081331 0.94942,1.081331 0.65059,1.275264 0.65059,1.275264 0.30312,3.115837 0.30311,3.11584 0.008,10.48 0.008,10.480013 h -4.29014 -4.29014 l -0.1218,-11.76 -0.1218,-11.76 -0.52881,-1.192992 -0.5288,-1.192995 -1.05926,-0.664653 -1.05925,-0.66465 -1.81107,0.115972 -1.81106,0.115971 -1.27017,0.840557 -1.27017,0.84056 -0.70132,1.448742 -0.70132,1.448739 -0.29102,2.012375 -0.29101,2.012374 -0.006,9.2 -0.006,9.2 h -4.3056 -4.3056 l -0.0944,-12.08 -0.0944,-12.08 -0.56542,-1.034582 -0.56542,-1.034586 -1.00589,-0.520166 -1.00589,-0.520167 -1.83975,0.133079 -1.83976,0.133075 -1.27017,0.840557 -1.27017,0.84056 -0.7088,1.464185 -0.7088,1.464186 -0.27855,3.116931 -0.27855,3.116928 -0.0114,8.08 -0.0114,8.08 h -4.16 -4.16 z"
       id="path8158"
       inkscape:connector-curvature="0" />
  </g>
</svg>
