<?xml version="1.0" encoding="UTF-8" standalone="no"?>
<!-- Created with Inkscape (http://www.inkscape.org/) -->

<svg
   xmlns:dc="http://purl.org/dc/elements/1.1/"
   xmlns:cc="http://creativecommons.org/ns#"
   xmlns:rdf="http://www.w3.org/1999/02/22-rdf-syntax-ns#"
   xmlns:svg="http://www.w3.org/2000/svg"
   xmlns="http://www.w3.org/2000/svg"
   xmlns:sodipodi="http://sodipodi.sourceforge.net/DTD/sodipodi-0.dtd"
   xmlns:inkscape="http://www.inkscape.org/namespaces/inkscape"
   version="1.1"
   id="svg97"
   width="713"
   height="332"
   viewBox="0 0 713.33331 278.66666"
   sodipodi:docname="Facebook_connect.svg"
   inkscape:version="0.92.1 r15371">
  <metadata
     id="metadata103">
    <rdf:RDF>
      <cc:Work
         rdf:about="">
        <dc:format>image/svg+xml</dc:format>
        <dc:type
           rdf:resource="http://purl.org/dc/dcmitype/StillImage" />
        <dc:title />
      </cc:Work>
    </rdf:RDF>
  </metadata>
  <defs
     id="defs101" />
  <sodipodi:namedview
     pagecolor="#ffffff"
     bordercolor="#666666"
     borderopacity="1"
     objecttolerance="10"
     gridtolerance="10"
     guidetolerance="10"
     inkscape:pageopacity="0"
     inkscape:pageshadow="2"
     inkscape:window-width="1920"
     inkscape:window-height="1001"
     id="namedview99"
     showgrid="false"
     inkscape:zoom="1.9009346"
     inkscape:cx="225.9783"
     inkscape:cy="159.2498"
     inkscape:window-x="-9"
     inkscape:window-y="-9"
     inkscape:window-maximized="1"
     inkscape:current-layer="svg97" />
  <path
     style="fill:#ffffff;stroke-width:1.33302951"
     d="m 0.00419342,139.33333 v -112 L 305.53162,27.35085 c 293.2667,0.01681 306.01222,0.117613 317.60827,2.512008 58.79528,12.140217 97.93202,68.24814 88.44898,126.803812 -3.9153,24.17617 -13.84997,43.28063 -31.89444,61.33333 -18.04449,18.05271 -37.14024,27.99189 -61.3054,31.90899 -5.88418,0.95381 -106.44554,1.40742 -313.52378,1.41428 L 0.00419342,251.33333 Z M 627.05175,240.32548 c 12.50617,-3.66156 31.14177,-13.4514 40.74199,-21.40299 15.4367,-12.78576 28.66069,-33.78525 34.16647,-54.25582 3.20583,-11.91936 3.20583,-38.74731 0,-50.66667 C 693.95715,84.244518 674.15043,59.931107 647.04264,46.586862 623.33976,34.918741 657.86486,36.044176 311.52888,35.649914 L 4.0023713,35.299831 V 139.33333 243.36682 L 311.52888,243.01674 c 288.74617,-0.3287 308.01484,-0.49305 315.52287,-2.69126 z M 39.669544,217.24614 c -7.747738,-4.20578 -7.679928,-3.51785 -7.679928,-77.91281 0,-74.742956 -0.09475,-73.814026 7.952732,-77.977431 5.863864,-3.033704 138.157782,-3.033704 144.021642,0 8.04748,4.163405 7.95273,3.234475 7.95273,77.977431 0,74.74296 0.0948,73.81403 -7.95273,77.97743 -3.00269,1.55346 -8.71588,2.02257 -24.63287,2.02257 H 138.60769 V 186 152.66667 h 11.81339 11.81337 L 163.02953,147 c 0.4373,-3.11667 1.19351,-7.61667 1.68047,-10 l 0.88539,-4.33333 h -13.49385 -13.49385 v -9.4359 c 0,-8.65137 0.32389,-9.75994 3.89566,-13.33333 C 145.67422,106.72513 147.5339,106 152.4988,106 h 6.09978 V 95.859558 85.719118 l -15.65953,0.47414 C 117.27151,86.970428 112.92316,91.320768 112.14635,117 l -0.47393,15.66667 h -9.85507 -9.855066 v 10 10 h 9.995446 9.99544 V 186 219.33333 l -34.317691,-0.0533 c -27.752298,-0.0432 -35.015646,-0.43226 -37.965935,-2.0338 z"
     id="path107"
     inkscape:connector-curvature="0"
     sodipodi:nodetypes="ccssssssccssscsscccsscsscscsccccccccccscscccsscccccccccccc" />
</svg>
