<?xml version="1.0" encoding="UTF-8" standalone="no"?>
<!-- Created with Inkscape (http://www.inkscape.org/) -->

<svg
   xmlns:dc="http://purl.org/dc/elements/1.1/"
   xmlns:cc="http://creativecommons.org/ns#"
   xmlns:rdf="http://www.w3.org/1999/02/22-rdf-syntax-ns#"
   xmlns:svg="http://www.w3.org/2000/svg"
   xmlns="http://www.w3.org/2000/svg"
   xmlns:sodipodi="http://sodipodi.sourceforge.net/DTD/sodipodi-0.dtd"
   xmlns:inkscape="http://www.inkscape.org/namespaces/inkscape"
   version="1.1"
   id="svg82"
   width="713"
   height="332"
   viewBox="0 0 713.33331 278.66666"
   sodipodi:docname="Facebook_connected_hover.svg"
   inkscape:version="0.92.1 r15371">
  <metadata
     id="metadata88">
    <rdf:RDF>
      <cc:Work
         rdf:about="">
        <dc:format>image/svg+xml</dc:format>
        <dc:type
           rdf:resource="http://purl.org/dc/dcmitype/StillImage" />
        <dc:title />
      </cc:Work>
    </rdf:RDF>
  </metadata>
  <defs
     id="defs86" />
  <sodipodi:namedview
     pagecolor="#ffffff"
     bordercolor="#666666"
     borderopacity="1"
     objecttolerance="10"
     gridtolerance="10"
     guidetolerance="10"
     inkscape:pageopacity="0"
     inkscape:pageshadow="2"
     inkscape:window-width="1920"
     inkscape:window-height="1001"
     id="namedview84"
     showgrid="false"
     inkscape:zoom="1.3441637"
     inkscape:cx="398.63408"
     inkscape:cy="89.201416"
     inkscape:window-x="-9"
     inkscape:window-y="-9"
     inkscape:window-maximized="1"
     inkscape:current-layer="svg82" />
  <path
     style="fill:#ffffff;stroke-width:1.33253026"
     d="M -1.4899999e-6,139.60865 V 27.831588 H 243.56096 487.1219 v 7.073302 c 0,34.262252 22.47657,61.259026 55.22835,66.3352 40.7382,6.31398 75.56055,-24.177678 75.56055,-66.163427 v -6.901529 l 6.33926,1.171787 c 32.98808,6.097722 62.94684,29.069113 78.771,60.399022 8.48738,16.803977 10.31225,25.624827 10.31225,49.846227 0,19.31524 -0.37587,23.14631 -3.12827,31.88471 -11.61035,36.86083 -37.98299,63.39126 -75.61198,76.06431 L 625.251,250.6875 312.62549,251.0366 -1.49e-6,251.38569 Z M 112.10477,186.15908 V 152.89701 H 102.09542 92.086057 v -9.97862 -9.97862 h 9.868783 9.86879 l 0.4755,-15.63319 c 0.40262,-13.23697 0.92143,-16.34694 3.38484,-20.289865 5.07084,-8.11638 9.69727,-9.874585 27.4498,-10.431871 l 15.68132,-0.492262 v 10.118745 10.118763 h -6.10827 c -4.97181,0 -6.83408,0.72358 -10.00936,3.88912 -3.57674,3.56575 -3.90108,4.67195 -3.90108,13.30482 v 9.41574 h 13.49048 c 13.31889,0 13.48111,0.038 12.75313,2.99357 -0.40554,1.64648 -1.14857,6.13686 -1.65119,9.97863 l -0.91384,6.98504 h -11.83929 -11.83929 v 33.26207 33.26208 h 20.75227 c 23.0136,0 27.02846,-1.04146 30.60649,-7.93936 3.03654,-5.85399 3.03654,-137.925277 0,-143.779271 -4.1673,-8.033927 -3.2375,-7.939346 -78.05037,-7.939346 -74.812876,0 -73.883078,-0.09459 -78.050377,7.939346 -3.031715,5.844694 -3.037056,137.924301 -0.0059,143.768071 3.864221,7.44964 6.017703,7.83888 43.690736,7.89728 l 34.365551,0.0533 z M 537.15125,89.380123 c -16.18584,-5.769838 -27.32984,-15.700025 -34.46211,-30.708457 -3.81941,-8.037178 -4.2233,-10.095908 -4.2233,-21.526695 0,-11.447744 0.40081,-13.483081 4.25061,-21.584865 5.90724,-12.4315868 14.62153,-21.2820152 26.92199,-27.342568 9.49139,-4.676497 10.78265,-4.957131 22.80871,-4.957131 11.56078,0 13.58316,0.394556 21.72055,4.237562 12.46986,5.889099 21.34755,14.5766354 27.42677,26.839331 4.69657,9.473679 4.9724,10.738885 4.9724,22.807671 0,12.068784 -0.27583,13.33399 -4.9724,22.807669 -9.41678,18.995074 -26.68883,30.51751 -47.01567,31.364833 -7.86625,0.327905 -12.52611,-0.190106 -17.42755,-1.93735 z m 29.31897,-48.184587 c 23.67494,-23.629607 23.90853,-23.919176 21.46618,-26.609661 -1.35807,-1.496045 -3.15202,-2.720083 -3.98655,-2.720083 -0.83453,0 -10.68081,9.204216 -21.88062,20.453814 l -20.36328,20.453815 -7.47646,-7.814226 c -4.11205,-4.297823 -8.19282,-7.814224 -9.06834,-7.814224 -0.87554,0 -2.69975,1.220419 -4.0538,2.712043 -2.42742,2.674024 -2.30444,2.869871 8.7721,13.970073 6.17872,6.191915 11.55384,11.258028 11.9447,11.258028 0.39085,0 11.4816,-10.750311 24.64607,-23.889579 z"
     id="path92"
     inkscape:connector-curvature="0"
     sodipodi:nodetypes="ccccssscssscsccccccccccccssscccscscssccccccsccsscscccsssssssssscscsscsscsss" />
</svg>
