<?xml version="1.0" encoding="UTF-8" standalone="no"?>
<!-- Created with Inkscape (http://www.inkscape.org/) -->

<svg
   xmlns:dc="http://purl.org/dc/elements/1.1/"
   xmlns:cc="http://creativecommons.org/ns#"
   xmlns:rdf="http://www.w3.org/1999/02/22-rdf-syntax-ns#"
   xmlns:svg="http://www.w3.org/2000/svg"
   xmlns="http://www.w3.org/2000/svg"
   xmlns:sodipodi="http://sodipodi.sourceforge.net/DTD/sodipodi-0.dtd"
   xmlns:inkscape="http://www.inkscape.org/namespaces/inkscape"
   version="1.1"
   id="svg46"
   width="713"
   height="332"
   viewBox="0 0 713.33331 278.66666"
   sodipodi:docname="Facebook_connected.svg"
   inkscape:version="0.92.1 r15371">
  <metadata
     id="metadata52">
    <rdf:RDF>
      <cc:Work
         rdf:about="">
        <dc:format>image/svg+xml</dc:format>
        <dc:type
           rdf:resource="http://purl.org/dc/dcmitype/StillImage" />
        <dc:title />
      </cc:Work>
    </rdf:RDF>
  </metadata>
  <defs
     id="defs50" />
  <sodipodi:namedview
     pagecolor="#ffffff"
     bordercolor="#666666"
     borderopacity="1"
     objecttolerance="10"
     gridtolerance="10"
     guidetolerance="10"
     inkscape:pageopacity="0"
     inkscape:pageshadow="2"
     inkscape:window-width="1920"
     inkscape:window-height="1001"
     id="namedview48"
     showgrid="false"
     inkscape:zoom="1.9009346"
     inkscape:cx="262.46768"
     inkscape:cy="190.69407"
     inkscape:window-x="-9"
     inkscape:window-y="-9"
     inkscape:window-maximized="1"
     inkscape:current-layer="svg46"
     showguides="true"
     inkscape:guide-bbox="true">
    <sodipodi:guide
       position="17.367997,271.99471"
       orientation="0,1"
       id="guide4491"
       inkscape:locked="false" />
  </sodipodi:namedview>
  <rect
     id="rect7"
     width="713.33331"
     height="332.15521"
     x="-1.4941406e-006"
     y="-26.744276"
     style="stroke-width:1.00046754;fill:#f3a950;fill-opacity:0.93170732" />
  <path
     style="fill:#ffffff;stroke-width:1.3323915"
     d="M -1.0991733e-6,139.56654 V 27.747412 H 244.54593 489.09185 l 0.8183,-5.108059 c 1.45265,-9.0679 9.58174,-23.19215205 17.91378,-31.1251297 8.68537,-8.2693753 17.86286,-13.4094453 29.20955,-16.3595103 32.93133,-8.561931 68.33109,12.701974 76.92066,46.204659 l 1.76521,6.885024 11.87193,2.926701 c 22.35814,5.511789 39.25526,15.264816 54.86538,31.668334 34.30679,36.050478 40.62263,88.589999 15.94442,132.636669 -7.60419,13.57224 -27.33725,33.26943 -40.93421,40.85979 -11.5265,6.43455 -26.2273,11.61466 -38.67451,13.62772 -5.88807,0.95228 -106.51569,1.40516 -313.73039,1.412 L -1.0991733e-6,251.38569 Z M 626.12718,240.37483 c 29.77953,-7.52258 53.77453,-26.77562 67.68808,-54.31139 8.79813,-17.41204 10.67868,-25.2397 10.85081,-45.16571 0.21854,-25.29775 -5.94155,-44.578493 -20.44956,-64.005967 -14.06698,-18.836894 -40.5639,-35.49015 -62.17504,-39.076868 l -5.41932,-0.899422 -1.42991,9.221153 c -4.48287,28.909143 -27.87948,51.393313 -56.5966,54.389404 -33.43885,3.4887 -64.71411,-21.046822 -69.55144,-54.563284 L 487.56799,35.734492 H 245.78441 4.0008117 V 139.5778 243.42111 L 310.39638,243.07705 c 288.15367,-0.32358 306.95136,-0.48446 315.7308,-2.70222 z M 39.691489,217.35352 c -7.752844,-4.19899 -7.68499,-3.51217 -7.68499,-77.78698 0,-74.622253 -0.09481,-73.694824 7.957973,-77.851505 5.867729,-3.028805 138.248838,-3.028805 144.116558,0 8.05279,4.156681 7.95798,3.229252 7.95798,77.851505 0,74.62225 0.0948,73.69482 -7.95798,77.8515 -3.00467,1.55095 -8.72162,2.0193 -24.64909,2.0193 h -20.7371 v -33.2795 -33.27949 h 11.82118 11.82116 l 0.7956,-5.65752 c 0.43759,-3.11164 1.1943,-7.60437 1.68158,-9.98385 l 0.88597,-4.32633 h -13.50274 -13.50275 v -9.42067 c 0,-8.63739 0.32411,-9.74417 3.89823,-13.31179 3.17296,-3.16719 5.03387,-3.89115 10.00204,-3.89115 h 6.1038 V 96.16297 86.038917 l -15.66985,0.473374 c -25.68446,0.775905 -30.03568,5.119219 -30.81301,30.756989 l -0.47423,15.64137 h -9.86157 -9.861564 v 9.98385 9.98385 h 10.002034 10.00204 v 33.27949 33.2795 l -34.340317,-0.0532 C 49.911856,219.341 42.643721,218.95256 39.691489,217.35361 Z M 572.1162,89.176951 c 22.46518,-8.694266 37.3224,-31.694997 35.67548,-55.229834 -1.68357,-24.0584969 -17.06036,-43.363096 -40.10569,-50.350172 -22.47238,-6.813374 -47.62981,2.025893 -61.28218,21.5320091 -21.52434,30.7533259 -6.98911,73.4876989 28.98768,85.2254119 10.42392,3.400889 26.2019,2.895037 36.72471,-1.177415 z M 530.21521,53.554704 C 519.78483,42.570513 519.68461,42.398821 522.12983,39.7018 c 2.46974,-2.724072 2.49688,-2.710118 10.9062,5.609306 l 8.4303,8.340172 21.29957,-21.229717 c 20.3034,-20.236789 21.39228,-21.107165 23.28142,-18.609448 1.09002,1.441149 1.85213,3.050789 1.69359,3.57698 -0.26248,0.871139 -46.67263,47.858448 -46.87655,47.459503 -0.0483,-0.09452 -4.84043,-5.176772 -10.64915,-11.293892 z"
     id="path56"
     inkscape:connector-curvature="0"
     sodipodi:nodetypes="ccccsssscsssscsccssssscssscccccsscsscscsccccccccccscscccssccccccccccccsssssscsscssccc" />
</svg>
