<?xml version="1.0" encoding="UTF-8" standalone="no"?>
<!-- Created with Inkscape (http://www.inkscape.org/) -->

<svg
   xmlns:dc="http://purl.org/dc/elements/1.1/"
   xmlns:cc="http://creativecommons.org/ns#"
   xmlns:rdf="http://www.w3.org/1999/02/22-rdf-syntax-ns#"
   xmlns:svg="http://www.w3.org/2000/svg"
   xmlns="http://www.w3.org/2000/svg"
   xmlns:sodipodi="http://sodipodi.sourceforge.net/DTD/sodipodi-0.dtd"
   xmlns:inkscape="http://www.inkscape.org/namespaces/inkscape"
   version="1.1"
   id="svg46"
   width="713"
   height="332"
   viewBox="0 0 713.33331 332"
   sodipodi:docname="Facebook_connected.svg"
   inkscape:version="0.92.1 r15371">
  <metadata
     id="metadata52">
    <rdf:RDF>
      <cc:Work
         rdf:about="">
        <dc:format>image/svg+xml</dc:format>
        <dc:type
           rdf:resource="http://purl.org/dc/dcmitype/StillImage" />
        <dc:title></dc:title>
      </cc:Work>
    </rdf:RDF>
  </metadata>
  <defs
     id="defs50" />
  <sodipodi:namedview
     pagecolor="#ffffff"
     bordercolor="#666666"
     borderopacity="1"
     objecttolerance="10"
     gridtolerance="10"
     guidetolerance="10"
     inkscape:pageopacity="0"
     inkscape:pageshadow="2"
     inkscape:window-width="1920"
     inkscape:window-height="1001"
     id="namedview48"
     showgrid="false"
     inkscape:zoom="1.9009346"
     inkscape:cx="348.59001"
     inkscape:cy="190.69407"
     inkscape:window-x="-9"
     inkscape:window-y="-9"
     inkscape:window-maximized="1"
     inkscape:current-layer="svg46"
     showguides="true"
     inkscape:guide-bbox="true">
    <sodipodi:guide
       position="17.367997,271.99471"
       orientation="0,1"
       id="guide4491"
       inkscape:locked="false" />
  </sodipodi:namedview>
  <path
     style="fill:#f3a950;fill-opacity:0.93170734;stroke-width:1.00000012"
     d="M 0 0 L 0 54.466797 L 244.43164 54.466797 L 488.86328 54.466797 L 489.68164 49.361328 C 491.13361 40.297665 499.25779 26.179271 507.58594 18.25 C 516.26725 9.9844886 525.44181 4.8471241 536.7832 1.8984375 C 569.69915 -6.6594929 605.08241 14.595001 613.66797 48.082031 L 615.43164 54.962891 L 627.29883 57.888672 C 649.64652 63.397885 666.53585 73.145162 682.13867 89.541016 C 702.49881 110.93599 712.99476 138.14281 713 165.93164 L 713 0 L 0 0 z M 713 165.93164 C 713.00358 184.94505 708.09506 204.23159 698.07422 222.11719 C 690.47358 235.68309 670.75076 255.37022 657.16016 262.95703 C 645.63904 269.38857 630.9453 274.56601 618.50391 276.57812 C 612.61859 277.52996 512.0378 277.9834 304.91992 277.99023 L 0 278 L 0 332 L 713 332 L 713 165.93164 z M 552.44336 8.0605469 C 534.50794 7.9013076 516.8289 16.625389 506.16797 31.857422 C 484.65369 62.596378 499.18065 105.31074 535.14062 117.04297 C 545.55967 120.44227 561.33172 119.93774 571.84961 115.86719 C 594.30429 107.17698 609.15396 84.18595 607.50781 60.662109 C 605.82503 36.614854 590.45448 17.319749 567.41992 10.335938 C 562.50639 8.8462083 557.46528 8.1051339 552.44336 8.0605469 z M 584.19531 39.546875 C 584.87998 39.500341 585.30137 39.912972 585.77344 40.537109 C 586.86295 41.977585 587.62526 43.587336 587.4668 44.113281 C 587.20444 44.984013 540.81515 91.94954 540.61133 91.550781 C 540.56305 91.456305 535.7728 86.37598 529.9668 80.261719 C 519.54129 69.28266 519.44264 69.109823 521.88672 66.414062 C 524.3553 63.691263 524.38172 63.705948 532.78711 72.021484 L 541.21289 80.357422 L 562.50391 59.138672 C 577.72434 43.968172 582.14132 39.686478 584.19531 39.546875 z M 3.9980469 62.449219 L 3.9980469 166.24414 L 3.9980469 270.03906 L 310.25195 269.69531 C 598.27098 269.37188 617.05865 269.21086 625.83398 266.99414 C 655.5996 259.47508 679.58319 240.23189 693.49023 212.70898 C 702.28425 195.30508 704.16389 187.48115 704.33594 167.56445 C 704.55438 142.27852 698.39772 123.00629 683.89648 103.58789 C 669.83608 84.759798 643.35104 68.114339 621.75 64.529297 L 616.33398 63.630859 L 614.9043 72.847656 C 610.42352 101.74329 587.03769 124.21625 558.33398 127.21094 C 524.91076 130.69801 493.65148 106.17463 488.81641 72.673828 L 487.33984 62.449219 L 245.66992 62.449219 L 3.9980469 62.449219 z M 111.9707 86.146484 C 146.51676 86.146484 181.06165 86.904274 183.99414 88.417969 C 192.04317 92.572708 191.94922 91.645037 191.94922 166.23242 C 191.94922 240.8198 192.04316 239.89409 183.99414 244.04883 C 180.99087 245.59905 175.27745 246.06641 159.35742 246.06641 L 138.63086 246.06641 L 138.63086 212.80273 L 138.63086 179.53906 L 150.44531 179.53906 L 162.26172 179.53906 L 163.05664 173.88477 C 163.49403 170.77458 164.25123 166.28267 164.73828 163.9043 L 165.62305 159.58008 L 152.12695 159.58008 L 138.63086 159.58008 L 138.63086 150.16406 C 138.63086 141.53071 138.95489 140.42533 142.52734 136.85938 C 145.69882 133.69366 147.55759 132.96875 152.52344 132.96875 L 158.625 132.96875 L 158.625 122.84961 L 158.625 112.73047 L 142.96289 113.20312 C 117.29043 113.97867 112.94103 118.31952 112.16406 143.94531 L 111.68945 159.58008 L 101.83203 159.58008 L 91.976562 159.58008 L 91.976562 169.55859 L 91.976562 179.53906 L 101.97266 179.53906 L 111.9707 179.53906 L 111.9707 212.80273 L 111.9707 246.06641 L 77.646484 246.01367 C 49.888873 245.97055 42.624681 245.58258 39.673828 243.98438 C 31.924607 239.78735 31.992188 240.47253 31.992188 166.23242 C 31.992188 91.645037 31.896292 92.572708 39.945312 88.417969 C 42.877806 86.904274 77.424644 86.146484 111.9707 86.146484 z "
     transform="matrix(1.0004675,0,0,1.0004675,0,-26.744271)"
     id="rect7" />
</svg>
