<?xml version="1.0" encoding="UTF-8" standalone="no"?>
<!-- Created with Inkscape (http://www.inkscape.org/) -->

<svg
   xmlns:dc="http://purl.org/dc/elements/1.1/"
   xmlns:cc="http://creativecommons.org/ns#"
   xmlns:rdf="http://www.w3.org/1999/02/22-rdf-syntax-ns#"
   xmlns:svg="http://www.w3.org/2000/svg"
   xmlns="http://www.w3.org/2000/svg"
   xmlns:sodipodi="http://sodipodi.sourceforge.net/DTD/sodipodi-0.dtd"
   xmlns:inkscape="http://www.inkscape.org/namespaces/inkscape"
   version="1.1"
   id="svg60"
   width="726"
   height="332"
   viewBox="0 0 726.66669 278.66666"
   sodipodi:docname="Google_connected_hover.svg"
   inkscape:version="0.92.1 r15371">
  <metadata
     id="metadata66">
    <rdf:RDF>
      <cc:Work
         rdf:about="">
        <dc:format>image/svg+xml</dc:format>
        <dc:type
           rdf:resource="http://purl.org/dc/dcmitype/StillImage" />
        <dc:title />
      </cc:Work>
    </rdf:RDF>
  </metadata>
  <defs
     id="defs64" />
  <sodipodi:namedview
     pagecolor="#ffffff"
     bordercolor="#666666"
     borderopacity="1"
     objecttolerance="10"
     gridtolerance="10"
     guidetolerance="10"
     inkscape:pageopacity="0"
     inkscape:pageshadow="2"
     inkscape:window-width="1920"
     inkscape:window-height="1001"
     id="namedview62"
     showgrid="false"
     inkscape:zoom="1.3195001"
     inkscape:cx="486.65601"
     inkscape:cy="178.10049"
     inkscape:window-x="-9"
     inkscape:window-y="-9"
     inkscape:window-maximized="1"
     inkscape:current-layer="svg60" />
  <path
     style="fill:#ffffff;stroke-width:1.3296057"
     d="M 88.848431,249.99592 C 55.68955,243.53846 26.051489,220.81878 10.312075,189.79224 1.8248406,173.06166 1.85e-6,164.27932 1.85e-6,140.16372 c 0,-19.23087 0.3758684,-23.04521 3.12822155,-31.74545 C 14.738368,71.718428 41.110562,45.303888 78.738908,32.68617 l 9.341905,-3.132573 206.522817,-0.355571 206.52281,-0.35557 v 6.404475 c 0,33.445704 22.75635,60.396781 55.22739,65.407549 40.50029,6.24979 75.55926,-24.08754 75.55926,-65.383146 v -6.380073 h 47.37681 47.37679 V 140.16372 251.43618 l -315.95654,-0.14514 c -173.7761,-0.0799 -318.613875,-0.66263 -321.861719,-1.29512 z m 47.943749,-33.09991 c 9.74911,-2.2055 24.5542,-10.18651 33.04584,-17.81408 29.1298,-26.16568 34.62752,-68.57565 13.11271,-101.152689 C 172.41389,81.974661 158.12111,71.194835 140.12857,65.632102 128.55095,62.052664 106.58496,61.730041 95.914351,64.982711 70.463204,72.740862 51.218095,90.824927 42.23467,115.42395 c -3.019866,8.2692 -3.469307,11.57431 -3.454274,25.40211 0.01954,17.97001 2.110437,25.8483 10.738171,40.46025 9.563206,16.19625 27.875482,30.08654 46.067465,34.94322 8.399848,2.2425 32.515388,2.63255 41.206148,0.66648 z M 86.911723,180.3852 c -12.146027,-3.70224 -20.30885,-10.51579 -26.577202,-22.18411 -4.292376,-7.99012 -4.226735,-26.87778 0.121591,-34.98663 4.69995,-8.76457 11.771839,-15.72722 20.064113,-19.7542 10.231308,-4.968634 25.428455,-5.200945 35.877925,-0.54845 10.40893,4.63443 10.81099,5.64382 4.99763,12.54692 l -4.95011,5.87807 -4.84052,-2.83767 c -3.53595,-2.07287 -7.05752,-2.83821 -13.066554,-2.83975 -6.980124,-9.7e-4 -9.102488,0.60249 -14.012856,3.98965 -21.394208,14.75763 -11.166131,46.45118 14.943218,46.30425 4.937552,-0.0278 8.916032,-0.9294 12.006482,-2.72097 4.93723,-2.86213 11.0664,-10.70925 9.86801,-12.63391 -0.39792,-0.63909 -5.49246,-1.16197 -11.32119,-1.16197 H 99.424548 v -7.98344 -7.98346 l 19.684732,0.36659 19.68473,0.36658 -0.26222,9.52467 c -0.3458,12.5609 -4.13037,21.24486 -12.5228,28.73449 -10.31595,9.20623 -25.07543,12.19735 -39.097267,7.92334 z m 75.237047,-30.21385 v -5.88845 l -6.33915,-0.40375 c -6.27804,-0.39985 -6.34314,-0.45163 -6.75335,-5.37126 l -0.4142,-4.96752 h 6.75334 6.75336 v -5.96103 c 0,-5.92949 0.0247,-5.96102 4.67095,-5.96102 4.64624,0 4.67096,0.0315 4.67096,5.96102 v 5.96103 h 6.00551 6.00551 v 5.29868 5.29869 h -6.00551 -6.00551 v 5.96102 c 0,5.92949 -0.0247,5.96103 -4.67096,5.96103 -4.6377,0 -4.67095,-0.0418 -4.67095,-5.88844 z M 551.15492,88.846306 C 534.96937,83.101659 523.82555,73.21485 516.69341,58.271971 c -3.81935,-8.002075 -4.22324,-10.051813 -4.22324,-21.432677 0,-11.397745 0.40081,-13.424193 4.25054,-21.490592 5.90714,-12.3772904 14.62129,-21.189064 26.92153,-27.223147 9.49123,-4.656072 10.78246,-4.935481 22.80832,-4.935481 11.56059,0 13.58294,0.392833 21.72017,4.219055 12.46966,5.8633769 21.34719,14.5129711 27.42632,26.722108 4.69647,9.432303 4.97231,10.691983 4.97231,22.708057 0,12.016074 -0.27584,13.275755 -4.97231,22.708056 -9.41663,18.91211 -26.68838,30.384221 -47.01488,31.227853 -7.86611,0.326478 -12.52589,-0.189268 -17.42725,-1.928897 z m 29.31847,-47.974137 c 23.67454,-23.526404 23.90813,-23.814708 21.46582,-26.493441 -1.35805,-1.489512 -3.15198,-2.708204 -3.98648,-2.708204 -0.83452,0 -10.68063,9.164017 -21.88026,20.364481 l -20.36293,20.364482 -7.47633,-7.780097 c -4.11198,-4.279052 -8.19267,-7.780096 -9.06819,-7.780096 -0.87552,0 -2.69969,1.21509 -4.05372,2.7002 -2.42738,2.662344 -2.3044,2.857336 8.77195,13.909057 6.17861,6.164871 11.55364,11.208858 11.94449,11.208858 0.39085,0 11.4814,-10.703358 24.64565,-23.78524 z"
     id="path70"
     inkscape:connector-curvature="0"
     sodipodi:nodetypes="ssssscccssscccccsssssssssssscssscccccccccscccccsscsccccccssscccccccsssssssssscsssssssscsscsss" />
</svg>
