<?xml version="1.0" encoding="UTF-8" standalone="no"?>
<!-- Created with Inkscape (http://www.inkscape.org/) -->

<svg
   xmlns:dc="http://purl.org/dc/elements/1.1/"
   xmlns:cc="http://creativecommons.org/ns#"
   xmlns:rdf="http://www.w3.org/1999/02/22-rdf-syntax-ns#"
   xmlns:svg="http://www.w3.org/2000/svg"
   xmlns="http://www.w3.org/2000/svg"
   xmlns:sodipodi="http://sodipodi.sourceforge.net/DTD/sodipodi-0.dtd"
   xmlns:inkscape="http://www.inkscape.org/namespaces/inkscape"
   version="1.1"
   id="svg34"
   width="726"
   height="332"
   viewBox="0 0 726.66669 280"
   sodipodi:docname="Google_connected.svg"
   inkscape:version="0.92.1 r15371">
  <metadata
     id="metadata40">
    <rdf:RDF>
      <cc:Work
         rdf:about="">
        <dc:format>image/svg+xml</dc:format>
        <dc:type
           rdf:resource="http://purl.org/dc/dcmitype/StillImage" />
        <dc:title />
      </cc:Work>
    </rdf:RDF>
  </metadata>
  <defs
     id="defs38" />
  <sodipodi:namedview
     pagecolor="#ffffff"
     bordercolor="#666666"
     borderopacity="1"
     objecttolerance="10"
     gridtolerance="10"
     guidetolerance="10"
     inkscape:pageopacity="0"
     inkscape:pageshadow="2"
     inkscape:window-width="1920"
     inkscape:window-height="1001"
     id="namedview36"
     showgrid="false"
     inkscape:zoom="1.3195001"
     inkscape:cx="223.56765"
     inkscape:cy="196.63354"
     inkscape:window-x="-9"
     inkscape:window-y="-9"
     inkscape:window-maximized="1"
     inkscape:current-layer="svg34" />
  <path
     style="fill:#ffffff;stroke-width:1.32961369"
     d="M 93.516964,250.6165 C 70.608565,246.82904 50.912862,236.47475 33.295089,218.95708 19.260275,205.002 11.683991,193.17572 6.1153026,176.53048 -7.6512687,135.38116 2.0952279,93.675146 32.628387,63.078984 50.41926,45.251397 67.758125,35.996728 91.898488,31.443398 101.60999,29.611624 126.85045,29.36324 303.28173,29.36324 H 503.6366 l 0.7149,-5.29975 c 1.18282,-8.768471 8.3131,-22.0546944 16.30965,-30.3906024 25.35761,-26.4337686 66.63581,-26.4337686 91.99342,0 7.99655,8.335908 15.12683,21.6221314 16.30965,30.3906024 l 0.7149,5.29975 h 48.49379 48.49378 v 111.36981 111.3698 L 413.64942,251.94786 C 238.56459,251.86117 97.496807,251.2745 93.516964,250.6165 Z M 722.66647,140.73305 V 37.318226 h -45.76571 -45.76573 l -1.44484,9.281448 C 625.76522,71.81306 606.92718,92.455786 581.93664,98.928006 546.28379,108.16163 509.36717,83.483176 503.6217,46.575111 L 502.17304,37.2691 298.06908,37.633423 C 68.333328,38.043498 89.367903,37.05795 65.963559,48.508438 38.841917,61.777598 19.02507,85.954206 11.01793,115.54226 c -3.2074769,11.85229 -3.2074769,38.52928 0,50.38157 10.53262,38.92023 41.666206,68.2334 80.947064,76.21398 7.049013,1.43213 66.733216,1.78414 319.684306,1.88547 l 311.01717,0.12458 z M 93.960259,216.28313 c -24.471633,-7.71879 -45.762788,-29.89476 -52.805227,-54.9997 -3.00885,-10.72598 -2.297046,-33.95775 1.360853,-44.41534 11.967919,-34.215184 45.527947,-56.562628 80.743195,-53.76646 20.27316,1.609734 36.04834,9.026471 50.71045,23.841616 15.05276,15.209904 22.00121,32.330074 22.00121,54.208434 0,14.12575 -2.61842,25.03488 -8.84237,36.8402 -9.45143,17.927 -25.91762,31.69932 -45.1665,37.77725 -13.18412,4.16295 -35.66964,4.40372 -48.001611,0.514 z m 17.683011,-34.9097 c 17.48827,-4.51063 28.32437,-20.16505 28.32437,-40.91894 v -6.3506 h -20.0011 -20.00111 v 8.6179 8.61791 h 10.66726 c 12.44594,0 13.48779,1.43815 6.25315,8.63168 -10.91938,10.85734 -31.311446,7.96907 -39.797831,-5.63683 -4.809111,-7.71028 -4.426081,-19.4952 0.876213,-26.95899 2.200122,-3.09701 6.400353,-6.87729 9.333848,-8.40064 7.246364,-3.76302 18.41435,-3.69078 24.98097,0.16162 l 4.85381,2.84755 4.8764,-5.91719 c 5.73278,-6.95635 5.31899,-7.98244 -5.08486,-12.60966 -9.51511,-4.231924 -25.548185,-4.375474 -34.456459,-0.30848 -8.442139,3.85418 -16.681368,11.57069 -20.929251,19.60143 -3.081667,5.826 -3.551366,8.29042 -3.553722,18.64577 -0.0023,9.83289 0.524938,12.91747 2.996073,17.53041 10.363491,19.34578 29.615017,27.87562 50.662239,22.44706 z m 60.32615,-30.69665 v -5.96624 h 6.00033 6.00033 v -5.30332 -5.30333 h -6.00033 -6.00033 v -5.96624 -5.96624 h -5.4679 -5.4679 l 0.47723,5.96624 0.47722,5.96624 h -6.34329 -6.34329 v 5.30333 5.30332 h 6.34329 6.34329 l -0.47722,5.96624 -0.47723,5.96624 h 5.4679 5.4679 z M 586.65897,89.220116 c 22.46185,-8.65935 37.31687,-31.567645 35.67019,-55.007914 -1.68332,-23.961825 -17.05784,-43.1888534 -40.09975,-50.147854 -22.46907,-6.785998 -47.62277,2.017754 -61.27313,21.4454886 -21.52114,30.6297524 -6.98807,73.1923994 28.9834,84.8829494 10.42238,3.38722 26.19803,2.8834 36.71929,-1.17267 z m -41.8948,-35.479114 c -10.42884,-10.940055 -10.52904,-11.111056 -8.08419,-13.79724 2.46938,-2.713127 2.49651,-2.699228 10.90458,5.586766 l 8.42906,8.306659 21.29643,-21.144411 c 20.30038,-20.155473 21.38911,-21.022351 23.27798,-18.534671 1.08985,1.435358 1.85185,3.03853 1.69333,3.562607 -0.26245,0.867639 -46.66573,47.666142 -46.86963,47.268801 -0.0483,-0.09414 -4.8397,-5.155971 -10.64756,-11.248511 z"
     id="path44"
     inkscape:connector-curvature="0"
     sodipodi:nodetypes="csssssccssccccccscccccssscsssscsccsssssscsssscccccsssscccscsscsscccccccccccccccccccccccccsssssscsscssccc" />
</svg>
