<?xml version="1.0" encoding="UTF-8" standalone="no"?>
<!-- Created with Inkscape (http://www.inkscape.org/) -->

<svg
   xmlns:dc="http://purl.org/dc/elements/1.1/"
   xmlns:cc="http://creativecommons.org/ns#"
   xmlns:rdf="http://www.w3.org/1999/02/22-rdf-syntax-ns#"
   xmlns:svg="http://www.w3.org/2000/svg"
   xmlns="http://www.w3.org/2000/svg"
   xmlns:sodipodi="http://sodipodi.sourceforge.net/DTD/sodipodi-0.dtd"
   xmlns:inkscape="http://www.inkscape.org/namespaces/inkscape"
   version="1.1"
   id="svg20"
   width="726"
   height="332"
   viewBox="0 0 726.66669 278.66666"
   sodipodi:docname="Google_connect.svg"
   inkscape:version="0.92.1 r15371">
  <metadata
     id="metadata26">
    <rdf:RDF>
      <cc:Work
         rdf:about="">
        <dc:format>image/svg+xml</dc:format>
        <dc:type
           rdf:resource="http://purl.org/dc/dcmitype/StillImage" />
        <dc:title />
      </cc:Work>
    </rdf:RDF>
  </metadata>
  <defs
     id="defs24" />
  <sodipodi:namedview
     pagecolor="#ffffff"
     bordercolor="#666666"
     borderopacity="1"
     objecttolerance="10"
     gridtolerance="10"
     guidetolerance="10"
     inkscape:pageopacity="0"
     inkscape:pageshadow="2"
     inkscape:window-width="1920"
     inkscape:window-height="1001"
     id="namedview22"
     showgrid="false"
     inkscape:zoom="1.866055"
     inkscape:cx="296.56757"
     inkscape:cy="127.48216"
     inkscape:window-x="-9"
     inkscape:window-y="-9"
     inkscape:window-maximized="1"
     inkscape:current-layer="svg20" />
  <g
     id="g95"
     transform="matrix(1.0002161,0,0,1.0002604,-0.01771697,-27.277169)">
    <path
       sodipodi:nodetypes="ssssssscccssccccsscscsccsssssssscscccccccscscscsscsssscscccccccccccccccccccccccs"
       inkscape:connector-curvature="0"
       id="path30"
       d="M 96.046518,277.24386 C 73.542139,272.69277 49.873153,261.95417 33.136569,245.21758 16.18479,228.26581 7.1436055,211.61108 2.3902129,188.57982 c -3.16331382,-15.32696 -3.16331382,-28.84576 0,-44.17272 C 7.1436055,121.37585 16.18479,104.72112 33.136569,87.769339 50.088347,70.817561 66.743083,61.776377 89.774328,57.022985 101.3801,54.627685 114.28037,54.527797 414.19405,54.510977 l 312.33334,-0.01752 v 112.000003 112 l -313.00001,-0.0939 c -296.18133,-0.0887 -306.24304,1.11694 -317.480862,-1.1557 z M 722.52739,166.47442 V 62.45538 L 407.52738,62.807754 92.527359,63.160127 83.194025,66.314126 C 46.884456,78.58416 22.728228,102.95863 11.660963,138.49346 c -4.5061625,14.46841 -4.5070647,41.55171 -0.0019,55.94258 9.066597,28.96122 27.007621,50.95731 52.083004,63.8549 11.214128,5.76801 20.925646,9.21837 30.46977,10.82544 3.473518,0.58489 146.265503,1.134 317.315513,1.22025 l 311.00001,0.15683 z M 93.194025,242.1257 c -24.30684,-8.31736 -43.930197,-28.39373 -51.405745,-52.59246 -2.958831,-9.5779 -3.843228,-25.2679 -2.015787,-35.76184 6.903043,-39.64021 43.743916,-68.51386 83.380567,-65.348638 19.89238,1.588524 35.92701,9.047066 50.09045,23.299688 15.04957,15.14434 22.6172,33.69356 22.6172,55.43768 0,34.69001 -20.84024,63.57771 -53.86385,74.66336 -13.67922,4.59196 -35.86488,4.72934 -48.802835,0.30221 z m 18.343865,-34.76189 c 17.48731,-4.53615 28.32281,-20.27915 28.32281,-41.15048 v -6.38653 h -20 -20.000005 v 8.66666 8.66667 c 7.054315,-0.004 14.108615,0.004 21.162925,0.0108 -1.58557,4.87179 -1.58724,4.36022 -3.08764,7.1694 -6.87824,8.74427 -20.907847,10.76823 -31.636195,4.48099 -8.770228,-5.1397 -12.421508,-11.56611 -12.431295,-21.87963 -0.0067,-6.99142 0.58942,-9.06395 3.992202,-13.88125 2.2,-3.11453 6.4,-6.91621 9.333333,-8.44819 7.245964,-3.78431 18.413345,-3.71165 24.979605,0.16254 l 4.85354,2.86366 4.87613,-5.95067 c 5.73246,-6.99571 5.3187,-8.02761 -5.08458,-12.681 -9.51458,-4.25588 -25.546785,-4.40024 -34.454568,-0.31023 -8.441673,3.87598 -16.680448,11.63616 -20.928096,19.71235 -3.082409,5.86068 -4.49814,8.33424 -4.49814,18.75127 0,10.41703 1.415731,12.89059 4.49814,18.75128 9.588315,18.23057 29.558417,26.78129 50.101834,21.4524 z m 60.32282,-30.87035 v -6 h 6 6 v -5.33333 -5.33333 h -6 -6 v -6 -6 h -5.33334 -5.33333 v 6 6 h -6 -6 v 5.33333 5.33333 h 6.34294 6.10611 l 0.0611,6.20096 0.008,5.83253 4.68051,-0.0335 h 5.46759 z"
       style="fill:#ffffff;stroke-width:1.33333337" />
  </g>
</svg>
