<?xml version="1.0" encoding="UTF-8" standalone="no"?>
<!-- Created with Inkscape (http://www.inkscape.org/) -->

<svg
   xmlns:dc="http://purl.org/dc/elements/1.1/"
   xmlns:cc="http://creativecommons.org/ns#"
   xmlns:rdf="http://www.w3.org/1999/02/22-rdf-syntax-ns#"
   xmlns:svg="http://www.w3.org/2000/svg"
   xmlns="http://www.w3.org/2000/svg"
   xmlns:sodipodi="http://sodipodi.sourceforge.net/DTD/sodipodi-0.dtd"
   xmlns:inkscape="http://www.inkscape.org/namespaces/inkscape"
   version="1.1"
   id="svg10"
   width="726"
   height="332"
   viewBox="0 0 726.66669 278.66666"
   sodipodi:docname="Google_connect_hover.svg"
   inkscape:version="0.92.1 r15371">
  <metadata
     id="metadata16">
    <rdf:RDF>
      <cc:Work
         rdf:about="">
        <dc:format>image/svg+xml</dc:format>
        <dc:type
           rdf:resource="http://purl.org/dc/dcmitype/StillImage" />
        <dc:title />
      </cc:Work>
    </rdf:RDF>
  </metadata>
  <defs
     id="defs14" />
  <sodipodi:namedview
     pagecolor="#ffffff"
     bordercolor="#666666"
     borderopacity="1"
     objecttolerance="10"
     gridtolerance="10"
     guidetolerance="10"
     inkscape:pageopacity="0"
     inkscape:pageshadow="2"
     inkscape:window-width="1920"
     inkscape:window-height="1001"
     id="namedview12"
     showgrid="false"
     inkscape:zoom="1.9334862"
     inkscape:cx="194.59632"
     inkscape:cy="139.33333"
     inkscape:window-x="-9"
     inkscape:window-y="-9"
     inkscape:window-maximized="1"
     inkscape:current-layer="svg10" />
  <path
     style="fill:#ffffff;stroke-width:1.33446145"
     d="M 88.848431,249.98538 C 55.68955,243.48067 26.051489,220.59474 10.312075,189.34119 1.8248406,172.48818 1.85e-6,163.64158 1.85e-6,139.34952 c 0,-19.37159 0.3758684,-23.21384 3.12822155,-31.97774 C 14.738368,70.403396 41.110562,43.795574 78.738908,31.085529 L 88.080813,27.930035 407.37376,27.580258 726.66669,27.23048 v 112.10285 112.10285 l -315.95654,-0.1462 c -173.7761,-0.0804 -318.613875,-0.66748 -321.861719,-1.3046 z m 47.943749,-33.34211 c 9.74911,-2.22164 24.5542,-10.26105 33.04584,-17.94443 29.1298,-26.35714 34.62752,-69.07743 13.11271,-101.89285 C 172.41389,80.73467 158.12111,69.875971 140.12857,64.272534 128.55095,60.666903 106.58496,60.34192 95.914351,63.61839 c -33.476923,10.27928 -55.775412,38.33837 -57.53229,72.39522 -0.78617,15.23981 1.799507,26.71401 9.244011,41.02122 9.742616,18.72384 28.042392,33.58082 47.95996,38.93709 8.399848,2.25891 32.515388,2.65181 41.206148,0.67135 z M 86.911723,179.8653 c -12.146027,-3.72932 -20.30885,-10.59273 -26.577202,-22.34644 -4.292376,-8.04858 -4.226735,-27.07444 0.121591,-35.24263 4.69995,-8.82869 11.771839,-15.84229 20.064113,-19.89874 10.231308,-5.005 25.428455,-5.23901 35.877925,-0.55247 10.40893,4.66835 10.81099,5.68512 4.99763,12.63874 l -4.95011,5.92106 -4.84052,-2.85841 c -3.53595,-2.08804 -7.05752,-2.85899 -13.066554,-2.86053 -6.980124,-0.002 -9.102488,0.60689 -14.012856,4.01883 -21.394208,14.86562 -11.166131,46.79108 14.943218,46.64307 4.937552,-0.028 8.916032,-0.9362 12.006482,-2.74088 4.93723,-2.88307 11.0664,-10.78761 9.86801,-12.72635 -0.39792,-0.64377 -5.49246,-1.17047 -11.32119,-1.17047 H 99.424548 v -8.04186 -8.04187 l 19.684732,0.36927 19.68473,0.36925 -0.26222,9.59437 c -0.3458,12.65281 -4.13037,21.40032 -12.5228,28.94475 -10.31595,9.27359 -25.07543,12.2866 -39.097267,7.98131 z m 75.237047,-30.43493 v -5.93154 l -6.33915,-0.4067 c -6.27804,-0.40277 -6.34314,-0.45493 -6.75335,-5.41056 l -0.4142,-5.00387 h 6.75334 6.75336 v -6.00465 c 0,-5.97287 0.0247,-6.00464 4.67095,-6.00464 4.64624,0 4.67096,0.0317 4.67096,6.00464 v 6.00465 h 6.00551 6.00551 v 5.33745 5.33746 h -6.00551 -6.00551 v 6.00464 c 0,5.97288 -0.0247,6.00465 -4.67096,6.00465 -4.6377,0 -4.67095,-0.0421 -4.67095,-5.93153 z"
     id="path20"
     inkscape:connector-curvature="0"
     sodipodi:nodetypes="ssssscccccssssssssssscssscscscscccscccccsscsccccccssscccccccsss" />
</svg>
