<?xml version="1.0" encoding="UTF-8" standalone="no"?>
<!-- Created with Inkscape (http://www.inkscape.org/) -->

<svg
   xmlns:dc="http://purl.org/dc/elements/1.1/"
   xmlns:cc="http://creativecommons.org/ns#"
   xmlns:rdf="http://www.w3.org/1999/02/22-rdf-syntax-ns#"
   xmlns:svg="http://www.w3.org/2000/svg"
   xmlns="http://www.w3.org/2000/svg"
   xmlns:sodipodi="http://sodipodi.sourceforge.net/DTD/sodipodi-0.dtd"
   xmlns:inkscape="http://www.inkscape.org/namespaces/inkscape"
   version="1.1"
   id="svg10"
   xml:space="preserve"
   width="342.71033"
   height="159.70108"
   viewBox="0 0 342.71032 159.70108"
   sodipodi:docname="LogoFinal.svg"
   inkscape:version="0.92.3 (2405546, 2018-03-11)"><metadata
     id="metadata16"><rdf:RDF><cc:Work
         rdf:about=""><dc:format>image/svg+xml</dc:format><dc:type
           rdf:resource="http://purl.org/dc/dcmitype/StillImage" /><dc:title></dc:title></cc:Work></rdf:RDF></metadata><defs
     id="defs14"><clipPath
       clipPathUnits="userSpaceOnUse"
       id="clipPath26"><path
         d="M 0,595.28 H 841.89 V 0 H 0 Z"
         id="path24"
         inkscape:connector-curvature="0" /></clipPath></defs><sodipodi:namedview
     pagecolor="#ffffff"
     bordercolor="#666666"
     borderopacity="1"
     objecttolerance="10"
     gridtolerance="10"
     guidetolerance="10"
     inkscape:pageopacity="0"
     inkscape:pageshadow="2"
     inkscape:window-width="1920"
     inkscape:window-height="1001"
     id="namedview12"
     showgrid="false"
     inkscape:zoom="2.9669942"
     inkscape:cx="174.75724"
     inkscape:cy="54.247335"
     inkscape:window-x="-9"
     inkscape:window-y="-9"
     inkscape:window-maximized="1"
     inkscape:current-layer="g18"
     inkscape:snap-grids="true"
     fit-margin-top="0"
     fit-margin-left="0"
     fit-margin-right="0"
     fit-margin-bottom="0" /><g
     id="g18"
     inkscape:groupmode="layer"
     inkscape:label="LogoFinal"
     transform="matrix(1.3333333,0,0,-1.3333333,-1.54944,792.23991)"><g
       id="g150"
       transform="translate(-297.42872,193.75765)"><g
         id="g20"><g
           clip-path="url(#clipPath26)"
           id="g22"><g
             transform="translate(356.7617,308.5063)"
             id="g28"><path
               inkscape:connector-curvature="0"
               id="path30"
               style="fill:#127bbf;fill-opacity:1;fill-rule:nonzero;stroke:none"
               d="m 0,0 c -18.158,0 -32.879,14.721 -32.879,32.88 0,18.158 14.721,32.879 32.879,32.879 18.16,0 32.881,-14.721 32.881,-32.879 C 32.881,14.721 18.16,0 0,0 m -0.046,71.666 c -21.401,0 -38.75,-17.349 -38.75,-38.75 0,-21.4 17.349,-38.75 38.75,-38.75 21.401,0 38.75,17.35 38.75,38.75 0,21.401 -17.349,38.75 -38.75,38.75" /></g><g
             transform="translate(408.9658,342.1733)"
             id="g32"><path
               inkscape:connector-curvature="0"
               id="path34"
               style="fill:#127bbf;fill-opacity:1;fill-rule:nonzero;stroke:none"
               d="M 0,0 C 0,-2.037 -0.129,-4.043 -0.355,-6.019 L 5.54,-6.097 c 0.217,2.045 0.335,4.119 0.335,6.221 0,16.816 -7.149,31.956 -18.565,42.569 l -3.289,-5.104 C -6.134,28.087 0,14.764 0,0" /></g><g
             transform="translate(304.4658,342.1733)"
             id="g36"><path
               inkscape:connector-curvature="0"
               id="path38"
               style="fill:#127bbf;fill-opacity:1;fill-rule:nonzero;stroke:none"
               d="m 0,0 c 0,28.854 23.394,52.248 52.25,52.248 v 6.001 c -32.102,0 -58.125,-26.023 -58.125,-58.125 0,-3.323 0.294,-6.577 0.83,-9.748 l 5.731,1.199 C 0.24,-5.681 0,-2.869 0,0" /></g><g
             transform="translate(356.7158,289.9229)"
             id="g40"><path
               inkscape:connector-curvature="0"
               id="path42"
               style="fill:#127bbf;fill-opacity:1;fill-rule:nonzero;stroke:none"
               d="m 0,0 c -13.897,0 -26.518,5.438 -35.877,14.286 l -4.364,-3.83 C -29.797,0.426 -15.624,-5.75 0,-5.75 c 11.694,0 22.573,3.465 31.689,9.408 L 28.597,8.529 C 20.379,3.143 10.559,0 0,0" /></g><g
             transform="translate(314.9189,339.396)"
             id="g44"><path
               inkscape:connector-curvature="0"
               id="path46"
               style="fill:#127bbf;fill-opacity:1;fill-rule:nonzero;stroke:none"
               d="m 0,0 -5.557,-0.395 c 0.755,-13.029 6.781,-24.637 15.976,-32.738 l 3.632,3.799 C 5.876,-22.066 0.558,-11.66 0,0" /></g><g
             transform="translate(356.8408,383.4067)"
             id="g48"><path
               inkscape:connector-curvature="0"
               id="path50"
               style="fill:#127bbf;fill-opacity:1;fill-rule:nonzero;stroke:none"
               d="m 0,0 c 23.182,0 41.975,-18.792 41.975,-41.972 0,-0.764 -0.024,-1.522 -0.064,-2.277 l 5.067,-0.529 c 0.069,1.043 0.116,2.09 0.116,3.151 0,26.142 -21.188,47.331 -47.33,47.331 -13.537,0 -25.739,-5.692 -34.366,-14.805 l 5.043,-3.077 C -21.973,-4.652 -11.53,0 0,0" /></g><g
             transform="translate(361.2412,359.9238)"
             id="g52"><path
               inkscape:connector-curvature="0"
               id="path54"
               style="fill:#127bbf;fill-opacity:1;fill-rule:nonzero;stroke:none"
               d="M 0,0 C -0.93,0.56 -1.869,1.357 -2.912,1.676 -3.188,1.76 -3.387,1.609 -3.475,1.404 c 0,0 -0.002,0 -0.002,-10e-4 -1.23,-1.832 -1.57,-4.704 -0.925,-6.8 0.082,-0.261 0.326,-0.387 0.574,-0.344 0.139,-0.029 3.449,0.748 3.408,1.226 -0.117,1.383 0.174,2.658 0.65,3.951 C 0.307,-0.354 0.18,-0.108 0,0" /></g><g
             transform="translate(358.8838,350.2021)"
             id="g56"><path
               inkscape:connector-curvature="0"
               id="path58"
               style="fill:#127bbf;fill-opacity:1;fill-rule:nonzero;stroke:none"
               d="m 0,0 c 3.063,-3.438 6.521,-5.126 11.104,-4.813 0.566,0.039 0.591,0.639 0.566,0.799 -0.135,0.805 -0.084,1.437 -0.211,2.243 0.006,0.167 -0.221,0.845 -0.605,0.895 C 8.35,-0.556 5.217,0.477 3.422,2.372 3.063,2.645 3.037,2.948 2.686,2.743 1.742,2.197 0.951,1.438 0.039,0.848 -0.217,0.683 -0.234,0.404 -0.129,0.191 -0.125,0.182 -0.123,0.172 -0.117,0.162" /></g><g
             transform="translate(362.9873,343.8887)"
             id="g60"><path
               inkscape:connector-curvature="0"
               id="path62"
               style="fill:#127bbf;fill-opacity:1;fill-rule:nonzero;stroke:none"
               d="m 0,0 c -2.227,1.125 -4.145,1.652 -5.969,3.531 -2.232,2.303 -3.424,3.958 -4.031,7.563 -0.006,0.036 -0.195,0.968 -0.203,1 -0.031,0.484 -0.36,0.802 -0.627,0.792 -1.037,-0.042 -1.514,-0.198 -2.904,-0.369 -0.311,-0.038 -0.594,-0.236 -0.705,-0.71 -0.004,-0.028 -0.04,-0.34 -0.041,-0.369 -0.12,-3.525 2.353,-7.732 4.437,-10.125 2.793,-3.209 7.586,-5.608 9.152,-5.608 0.375,0 0.912,1.222 1.204,1.998 C 0.531,-1.719 0.936,-0.473 0,0" /></g><g
             transform="translate(342.5908,368.3369)"
             id="g64"><path
               inkscape:connector-curvature="0"
               id="path66"
               style="fill:#127bbf;fill-opacity:1;fill-rule:nonzero;stroke:none"
               d="m 0,0 c -0.127,0.062 -4.604,-2.803 -7.27,-7.262 -1.097,-1.836 -2.007,-4.139 -2.5,-6.208 -0.222,-0.937 -0.636,-3.438 -0.179,-4.068 0.135,-0.189 2.097,0.15 2.472,0.443 0.53,0.414 -0.293,3.542 1.332,8.303 1.565,4.583 5.579,7.601 6.334,8.081 C 0.668,-0.406 0.461,0.077 0,0" /></g><g
             transform="translate(377.79,347.4863)"
             id="g68"><path
               inkscape:connector-curvature="0"
               id="path70"
               style="fill:#127bbf;fill-opacity:1;fill-rule:nonzero;stroke:none"
               d="m 0,0 c -2.293,-3.18 -4.537,-4.4 -8.002,-4.472 -1.092,-0.022 -1.162,-4.245 -0.424,-4.189 5.424,0.409 8.485,2.384 10.83,5.976 C 3.457,-1.07 0.771,1.071 0,0" /></g><g
             transform="translate(384.1553,353.7012)"
             id="g72"><path
               inkscape:connector-curvature="0"
               id="path74"
               style="fill:#127bbf;fill-opacity:1;fill-rule:nonzero;stroke:none"
               d="m 0,0 c -0.346,1.747 -1.303,1.524 -1.125,0.25 1.416,-10.208 -2.418,-14.583 -5.5,-16.127 -3.488,-1.746 -4.209,-1.774 -6.543,-2.178 -0.912,-0.158 -0.869,-4.475 0.209,-4.577 3.461,-0.326 8.754,2.439 11.186,6.574 C 1.375,-10.7 1.291,-6.517 0,0" /></g><g
             transform="translate(358.9463,329.3838)"
             id="g76"><path
               inkscape:connector-curvature="0"
               id="path78"
               style="fill:#127bbf;fill-opacity:1;fill-rule:nonzero;stroke:none"
               d="m 0,0 c -4.4,1.659 -7.041,3.192 -10.641,6.3 -2.375,2.05 -5.843,6.757 -5.855,6.77 -0.195,0.368 -0.58,0.637 -1.102,0.519 -0.781,-0.177 -2.777,-1.314 -2.175,-2.401 1.572,-2.841 4.072,-5.648 4.859,-6.385 4.471,-4.778 9.685,-7.476 12.133,-8.452 C -0.555,-4.537 0.707,-0.333 0,0" /></g><g
             transform="translate(387.7373,342.5264)"
             id="g80"><path
               inkscape:connector-curvature="0"
               id="path82"
               style="fill:#127bbf;fill-opacity:1;fill-rule:nonzero;stroke:none"
               d="m 0,0 c 0.119,1.821 -0.811,2.192 -1.041,0.925 -0.662,-3.634 -0.5,-3.875 -2.25,-7.542 -2.293,-4.125 -4.375,-5.125 -5.975,-6.12 -3.634,-2.264 -6.82,-2.687 -11.306,-2.547 -1.344,0.042 -1.471,-3.917 -0.094,-3.917 6.75,-0.001 12.424,2.013 16.207,6.744 C -1.709,-9.027 -0.334,-5.158 0,0" /></g><g
             transform="translate(353.5361,340.4502)"
             id="g84"><path
               inkscape:connector-curvature="0"
               id="path86"
               style="fill:#127bbf;fill-opacity:1;fill-rule:nonzero;stroke:none"
               d="m 0,0 c -5.576,4.171 -10.232,13.778 -6.893,21.328 0.678,1.532 -1.779,2.661 -2.56,1.344 C -12.02,18.337 -11.945,13.16 -10.682,8.407 -9.66,4.562 -5.836,-0.631 -2.76,-3.113 -1.506,-4.125 0.855,-0.641 0,0" /></g><g
             transform="translate(375.1943,319.6797)"
             id="g88"><path
               inkscape:connector-curvature="0"
               id="path90"
               style="fill:#127bbf;fill-opacity:1;fill-rule:nonzero;stroke:none"
               d="m 0,0 c -2.685,-0.838 -4.338,-1.185 -9.03,-1.387 -7.802,-0.335 -15.836,3.58 -19.901,6.301 -3.787,2.534 -7.022,6.385 -10.496,11.898 -0.88,1.394 -3.65,0.015 -2.801,-1.986 1.331,-2.77 2.883,-5.153 7.489,-9.826 5.115,-5.188 11.055,-7.537 15.598,-8.829 C -7.726,-6.418 0.533,-3.996 1.581,-2.097 2.307,-0.379 1.43,0.446 0,0" /></g><g
             transform="translate(333.9463,362.2002)"
             id="g92"><path
               inkscape:connector-curvature="0"
               id="path94"
               style="fill:#127bbf;fill-opacity:1;fill-rule:nonzero;stroke:none"
               d="m 0,0 c -2.387,-3.018 -4.041,-6.166 -4.834,-9.957 -0.754,-3.608 -0.637,-8.626 0.752,-12.043 0.18,-0.441 1.928,-0.416 2.572,0.293 0.387,0.96 -1.23,4.098 -1.365,8.666 -0.199,6.765 2.836,10.906 3.959,12.916 C 1.713,1.002 1.385,1.751 0,0" /></g><g
             transform="translate(332.6963,329.5986)"
             id="g96"><path
               inkscape:connector-curvature="0"
               id="path98"
               style="fill:#127bbf;fill-opacity:1;fill-rule:nonzero;stroke:none"
               d="m 0,0 c -1.574,2.704 -3.205,4.913 -4.184,10.504 -0.435,2.501 -1.377,3.919 -1.461,1.818 -0.222,-5.431 1.106,-8.734 2.84,-12.371 1.655,-3.474 6.493,-9.062 8.127,-9.679 0.994,-0.376 2.032,0.843 2.043,1.124 C 7.383,-8.22 1.803,-3.098 0,0" /></g></g></g><text
         id="text102"
         style="font-style:italic;font-variant:normal;font-weight:normal;font-stretch:normal;font-size:80px;font-family:'Franklin Gothic Heavy';-inkscape-font-specification:FranklinGothic-HeavyItalic;writing-mode:lr-tb;fill:#41525d;fill-opacity:1;fill-rule:nonzero;stroke:none"
         transform="matrix(1,0,0,-1,393.0923,295.2715)"><tspan
           id="tspan100"
           sodipodi:role="line"
           y="0"
           x="0 40.080002 108">TMS</tspan></text>
<text
         id="text106"
         style="font-style:italic;font-variant:normal;font-weight:normal;font-stretch:normal;font-size:14px;font-family:'Franklin Gothic Heavy';-inkscape-font-specification:FranklinGothic-HeavyItalic;writing-mode:lr-tb;fill:#127bbf;fill-opacity:1;fill-rule:nonzero;stroke:none"
         transform="matrix(1,0,0,-1,401.9155,280.8584)"><tspan
           id="tspan104"
           sodipodi:role="line"
           y="0"
           x="0 7.0700002 19.403999 29.218 40.040001 52.136002 64.358002 75.306 85.120003 92.190002 104.608 116.83 128.45">INTERNATIONAL</tspan></text>
</g></g></svg>